<svg width="49" height="37" viewBox="0 0 49 37" fill="none" xmlns="http://www.w3.org/2000/svg">
<g filter="url(#filter0_dd_1791:233)">
<path d="M41.8013 10.2886C41.5976 9.56185 41.2008 8.90393 40.653 8.38473C40.0898 7.84957 39.3995 7.46676 38.6473 7.27242C35.832 6.53038 24.553 6.53038 24.553 6.53038C19.8509 6.47689 15.15 6.71218 10.4768 7.23495C9.72452 7.44364 9.03551 7.835 8.47101 8.37424C7.91636 8.90791 7.51461 9.566 7.30474 10.2871C6.80059 13.003 6.55564 15.7607 6.57319 18.5229C6.5552 21.2827 6.79955 24.0395 7.30474 26.7588C7.51011 27.4769 7.91036 28.132 8.46652 28.6611C9.02267 29.1903 9.71524 29.5726 10.4768 29.775C13.3295 30.5155 24.553 30.5155 24.553 30.5155C29.2611 30.5691 33.968 30.3338 38.6473 29.8109C39.3995 29.6166 40.0898 29.2338 40.653 28.6986C41.2077 28.1695 41.602 27.5114 41.7998 26.7948C42.3171 24.0799 42.5687 21.3211 42.5509 18.5574C42.5898 15.782 42.3386 13.0102 41.8013 10.2871V10.2886Z" fill="white"/>
<path d="M18.6833 12.4615L18.6834 12.4615L24.2635 16.6468L24.5635 16.8718L24.8635 16.6468L29.3412 13.2876L29.3415 13.2875L30.4435 12.4616L30.4437 12.4615C31.5482 11.633 33.1261 12.4212 33.1261 13.803V23.8368C33.1261 24.4369 32.6401 24.9229 32.04 24.9229H29.3791V19.1402V18.14L28.579 18.7402L24.5635 21.7526L20.548 18.7402L19.7479 18.14V19.1402V24.9236H17.0871C16.9444 24.9236 16.8031 24.8955 16.6713 24.8409C16.5395 24.7862 16.4197 24.7062 16.3189 24.6052L15.9652 24.9587L16.3189 24.6052C16.218 24.5043 16.138 24.3845 16.0835 24.2527L15.6214 24.4438L16.0835 24.2527C16.0289 24.1209 16.0009 23.9796 16.001 23.837V23.8368V13.803C16.001 12.4211 17.5782 11.6323 18.6833 12.4615Z" fill="#161616" stroke="#F7EEE5"/>
</g>
<defs>
<filter id="filter0_dd_1791:233" x="0.572266" y="0.522949" width="47.9824" height="36" filterUnits="userSpaceOnUse" color-interpolation-filters="sRGB">
<feFlood flood-opacity="0" result="BackgroundImageFix"/>
<feColorMatrix in="SourceAlpha" type="matrix" values="0 0 0 0 0 0 0 0 0 0 0 0 0 0 0 0 0 0 127 0" result="hardAlpha"/>
<feOffset dx="-2" dy="-2"/>
<feGaussianBlur stdDeviation="2"/>
<feComposite in2="hardAlpha" operator="out"/>
<feColorMatrix type="matrix" values="0 0 0 0 0.996078 0 0 0 0 0.345098 0 0 0 0 0.14902 0 0 0 1 0"/>
<feBlend mode="normal" in2="BackgroundImageFix" result="effect1_dropShadow_1791:233"/>
<feColorMatrix in="SourceAlpha" type="matrix" values="0 0 0 0 0 0 0 0 0 0 0 0 0 0 0 0 0 0 127 0" result="hardAlpha"/>
<feOffset dx="2" dy="2"/>
<feGaussianBlur stdDeviation="2"/>
<feComposite in2="hardAlpha" operator="out"/>
<feColorMatrix type="matrix" values="0 0 0 0 0.247059 0 0 0 0 0.670588 0 0 0 0 0.682353 0 0 0 1 0"/>
<feBlend mode="normal" in2="effect1_dropShadow_1791:233" result="effect2_dropShadow_1791:233"/>
<feBlend mode="normal" in="SourceGraphic" in2="effect2_dropShadow_1791:233" result="shape"/>
</filter>
</defs>
</svg>
