<svg width="190" height="131" viewBox="0 0 190 131" fill="none" xmlns="http://www.w3.org/2000/svg">
<g filter="url(#filter0_dd)">
<path d="M108.731 28.6035L98.0376 32.1677C97.6992 31.11 97.0797 30.0327 96.0885 29.0416C94.2666 27.2128 91.4709 25.7724 88.117 24.9347C84.7632 24.0969 81.0305 23.9066 77.4742 24.3919C73.9179 24.8773 70.728 26.0124 68.379 27.6284C66.03 29.2445 64.6474 31.2551 64.4369 33.3613L63.8818 36.076L59.5034 34.9679C54.5889 33.5853 48.5959 33.5439 43.4454 35.2606C35.3027 37.9746 32.5246 43.96 37.2258 48.6608C38.217 49.6519 39.5233 50.5003 40.9408 51.1983L30.2474 54.7624C24.8026 56.5772 23.0065 60.5362 26.1501 63.6795L65.6123 103.204C68.7559 106.347 75.6421 107.412 81.0868 105.597L159.57 79.4385C165.015 77.6237 166.86 73.6484 163.717 70.5051L124.205 30.9972C121.062 27.8539 114.176 26.7887 108.731 28.6035ZM78.5408 31.1146C81.2387 30.2154 84.7204 30.754 86.2781 32.3114C87.8357 33.8689 86.9027 35.879 84.2049 36.7782C81.507 37.6774 78.0252 37.1388 76.4676 35.5813C74.91 34.0238 75.8429 32.0138 78.5408 31.1146ZM49.1095 40.9242C51.8073 40.025 55.2891 40.5636 56.8467 42.121C58.4043 43.6785 57.4714 45.6885 54.7735 46.5878C52.0757 47.487 48.5939 46.9484 47.0363 45.3909C45.4786 43.8334 46.4116 41.8234 49.1095 40.9242ZM149.001 75.4099L80.328 98.2989C77.6301 99.1981 74.1484 98.6596 72.5908 97.1021L78.1101 102.621L155.282 75.1509L151.074 70.9432C152.632 72.5006 151.699 74.5107 149.001 75.4099ZM155.282 75.1509L78.1101 102.621L38.7435 63.2578C37.1859 61.7003 38.1188 59.6903 40.8167 58.7911L60.83 52.1205L59.291 60.2604C59.2067 60.6889 59.2708 61.1227 59.4795 61.5367C59.6881 61.9507 60.0373 62.3366 60.5066 62.672C60.976 63.0075 61.5561 63.2857 62.2133 63.4905C62.8705 63.6954 63.5917 63.8227 64.335 63.8653C67.3995 64.0521 70.2066 62.7389 70.5302 60.9697L73.454 45.6475L97.9013 51.8468C100.717 52.5696 104.091 51.8228 105.343 50.1972C106.644 48.5553 105.35 46.6078 102.457 45.873L89.4765 42.5725L109.49 35.902C112.188 35.0028 115.669 35.5414 117.227 37.0989L155.282 75.1509Z" fill="#F7EEE5"/>
<path d="M131.996 69.604L117.984 55.5926C116.442 54.0514 112.435 53.7057 109.078 54.8245L69.4087 68.0465C66.0521 69.1653 64.5669 71.3417 66.1082 72.883L80.1209 86.8944C81.6623 88.4356 85.6697 88.7813 89.0264 87.6625L128.696 74.4404C132.053 73.3217 133.538 71.1453 131.996 69.604ZM97.0286 79.3907L85.8185 68.1816L109.733 67.6837L97.0286 79.3907Z" fill="#F7EEE5"/>
</g>
<defs>
<filter id="filter0_dd" x="0.605225" y="0.129089" width="188.644" height="130.353" filterUnits="userSpaceOnUse" color-interpolation-filters="sRGB">
<feFlood flood-opacity="0" result="BackgroundImageFix"/>
<feColorMatrix in="SourceAlpha" type="matrix" values="0 0 0 0 0 0 0 0 0 0 0 0 0 0 0 0 0 0 127 0" result="hardAlpha"/>
<feOffset dx="-4" dy="-4"/>
<feGaussianBlur stdDeviation="10"/>
<feComposite in2="hardAlpha" operator="out"/>
<feColorMatrix type="matrix" values="0 0 0 0 0.996078 0 0 0 0 0.345098 0 0 0 0 0.14902 0 0 0 1 0"/>
<feBlend mode="normal" in2="BackgroundImageFix" result="effect1_dropShadow"/>
<feColorMatrix in="SourceAlpha" type="matrix" values="0 0 0 0 0 0 0 0 0 0 0 0 0 0 0 0 0 0 127 0" result="hardAlpha"/>
<feOffset dx="4" dy="4"/>
<feGaussianBlur stdDeviation="10"/>
<feComposite in2="hardAlpha" operator="out"/>
<feColorMatrix type="matrix" values="0 0 0 0 0.247059 0 0 0 0 0.670588 0 0 0 0 0.682353 0 0 0 1 0"/>
<feBlend mode="normal" in2="effect1_dropShadow" result="effect2_dropShadow"/>
<feBlend mode="normal" in="SourceGraphic" in2="effect2_dropShadow" result="shape"/>
</filter>
</defs>
</svg>
