<svg width="176" height="122" viewBox="0 0 176 122" fill="none" xmlns="http://www.w3.org/2000/svg">
<g filter="url(#filter0_dd)">
<path d="M110.027 25.4374C114.765 23.8581 120.828 24.7936 123.567 27.5319L132.182 36.1462C133.605 37.5692 134.326 39.1902 134.266 40.833C134.206 42.4759 133.368 44.0779 131.841 45.4649L110.256 65.0816C116.633 64.8476 122.959 65.8653 128.207 67.9695C133.455 70.0736 137.316 73.1405 139.164 76.6717C141.011 80.2029 140.735 83.991 138.381 87.4203C136.028 90.8497 131.734 93.7187 126.199 95.5614C120.667 97.4075 114.217 98.1194 107.895 97.5814C101.574 97.0435 95.7537 95.2872 91.38 92.5982C87.0062 89.9091 84.3362 86.4452 83.8038 82.7693C83.2713 79.0934 84.9078 75.4216 88.4472 72.3505L48.2269 73.334C45.383 73.4035 42.5605 73.0218 40.066 72.2304C37.5714 71.439 35.5002 70.2681 34.0774 68.8449L25.4623 60.2306C22.7238 57.4923 24.352 53.9932 29.0904 52.4138L110.027 25.4374ZM102.127 71.4912C97.5736 73.0088 94.2511 75.5085 92.8903 78.4404C91.5295 81.3722 92.2419 84.4961 94.8707 87.1247C97.4996 89.7533 101.83 91.6714 106.908 92.457C111.987 93.2426 117.398 92.8313 121.951 91.3137C126.504 89.796 129.827 87.2963 131.188 84.3645C132.549 81.4326 131.836 78.3088 129.207 75.6802C126.578 73.0515 122.248 71.1335 117.17 70.3479C112.091 69.5623 106.68 69.9735 102.127 71.4912ZM93.4275 36.6336L54.171 49.718L72.2903 67.8357L97.1059 67.2293C97.3346 67.2238 97.5576 67.1865 97.7558 67.1204C97.954 67.0544 98.1215 66.9616 98.2439 66.85L111.547 54.7514L93.4275 36.6336Z" fill="#F7EEE5"/>
<path d="M107.272 73.17L108.773 74.6706L113.972 72.9378L116.973 75.9392L106.575 79.4048C106.25 79.5128 106.007 79.687 105.893 79.8934C105.779 80.0997 105.804 80.3231 105.961 80.5196C106.118 80.7161 106.398 80.8715 106.744 80.9552C107.089 81.0388 107.477 81.0446 107.83 80.9715L108.076 80.9055L113.275 79.1727C114.999 78.5982 117.047 78.4425 118.969 78.7399C120.892 79.0373 122.531 79.7633 123.526 80.7583C124.521 81.7534 124.791 82.9358 124.275 84.0456C123.76 85.1554 122.503 86.1016 120.779 86.6761L122.28 88.1768L117.081 89.9096L115.58 88.4089L110.381 90.1418L107.38 87.1404L117.777 83.6747C118.103 83.5668 118.346 83.3925 118.46 83.1862C118.573 82.9799 118.549 82.7565 118.392 82.56C118.234 82.3634 117.955 82.2081 117.609 82.1244C117.263 82.0408 116.876 82.035 116.523 82.1081L116.277 82.1741L111.078 83.9069C109.354 84.4814 107.306 84.637 105.383 84.3397C103.461 84.0423 101.822 83.3162 100.827 82.3212C99.8318 81.3262 99.5622 80.1438 100.077 79.034C100.592 77.9242 101.85 76.978 103.574 76.4035L102.073 74.9028L107.272 73.17Z" fill="#F7EEE5"/>
</g>
<defs>
<filter id="filter0_dd" x="0.132629" y="0.669922" width="164.24" height="121.086" filterUnits="userSpaceOnUse" color-interpolation-filters="sRGB">
<feFlood flood-opacity="0" result="BackgroundImageFix"/>
<feColorMatrix in="SourceAlpha" type="matrix" values="0 0 0 0 0 0 0 0 0 0 0 0 0 0 0 0 0 0 127 0" result="hardAlpha"/>
<feOffset dx="-4" dy="-4"/>
<feGaussianBlur stdDeviation="10"/>
<feComposite in2="hardAlpha" operator="out"/>
<feColorMatrix type="matrix" values="0 0 0 0 0.996078 0 0 0 0 0.345098 0 0 0 0 0.14902 0 0 0 1 0"/>
<feBlend mode="normal" in2="BackgroundImageFix" result="effect1_dropShadow"/>
<feColorMatrix in="SourceAlpha" type="matrix" values="0 0 0 0 0 0 0 0 0 0 0 0 0 0 0 0 0 0 127 0" result="hardAlpha"/>
<feOffset dx="4" dy="4"/>
<feGaussianBlur stdDeviation="10"/>
<feComposite in2="hardAlpha" operator="out"/>
<feColorMatrix type="matrix" values="0 0 0 0 0.247059 0 0 0 0 0.670588 0 0 0 0 0.682353 0 0 0 1 0"/>
<feBlend mode="normal" in2="effect1_dropShadow" result="effect2_dropShadow"/>
<feBlend mode="normal" in="SourceGraphic" in2="effect2_dropShadow" result="shape"/>
</filter>
</defs>
</svg>
