<svg width="190" height="126" viewBox="0 0 190 126" fill="none" xmlns="http://www.w3.org/2000/svg">
<g filter="url(#filter0_dd)">
<path d="M31.4504 44.1723C28.198 45.2563 25.8248 47.0418 24.8528 49.136C23.8808 51.2302 24.3896 53.4615 26.2674 55.3391L68.7479 97.8159C70.6257 99.6935 73.7185 101.064 77.3461 101.625C80.9736 102.186 84.8387 101.892 88.0911 100.808L123.948 88.8567C120.581 88.2938 117.371 87.457 114.412 86.3715L83.843 96.5604C82.5421 96.994 80.996 97.1115 79.545 96.887C78.094 96.6626 76.8569 96.1146 76.1058 95.3635L109.525 84.2247C107.377 83.1032 105.467 81.8387 103.835 80.4577L71.8577 91.1158L33.6252 52.8867C32.8741 52.1357 32.6706 51.2431 33.0594 50.4055C33.4482 49.5678 34.3975 48.8536 35.6984 48.42L92.1085 29.6183C93.4095 29.1846 94.9555 29.0671 96.4065 29.2916C97.8576 29.5161 99.0947 30.0641 99.8458 30.8151L118.308 49.2755C120.972 48.5386 123.717 48.0011 126.498 47.6557L107.204 28.3627C105.326 26.4851 102.233 25.1151 98.6055 24.5539C94.978 23.9928 91.1129 24.2866 87.8605 25.3706L31.4504 44.1723Z" fill="#F7EEE5"/>
<path d="M161.188 59.4537C157.057 55.323 150.253 52.3089 142.272 51.0744C134.292 49.8399 125.789 50.4862 118.633 52.871C111.478 55.2559 106.257 59.184 104.119 63.7912C101.98 68.3984 103.1 73.3073 107.231 77.438C111.362 81.5687 118.166 84.5828 126.147 85.8173C134.127 87.0518 142.631 86.4055 149.786 84.0207C156.941 81.6358 162.162 77.7077 164.3 73.1005C166.439 68.4933 165.319 63.5844 161.188 59.4537ZM124.53 62.5991L143.505 63.222C144.089 63.2379 144.657 63.3394 145.155 63.5169C145.653 63.6944 146.065 63.9421 146.351 64.2368C146.646 64.531 146.815 64.8616 146.844 65.2012C146.884 65.5337 146.77 65.8663 146.513 66.1649L138.168 76.177C138.021 76.3499 137.834 76.5103 137.611 76.6534C137.091 76.9834 136.377 77.1903 135.608 77.234C135.162 77.2562 134.712 77.2336 134.279 77.1673C133.846 77.0888 133.439 76.9692 133.075 76.8135C132.709 76.6519 132.402 76.4499 132.173 76.2192L121.53 65.5773C121.187 65.2374 121.022 64.8473 121.055 64.4543C121.088 64.0613 121.318 63.6823 121.716 63.3632C122.028 63.105 122.452 62.8983 122.945 62.7638C123.438 62.6293 123.983 62.5715 124.527 62.5963L124.53 62.5991Z" fill="#F7EEE5"/>
<path d="M95.0944 39.141C94.4973 38.877 93.7432 38.7604 92.9975 38.8167C92.6287 38.8425 92.2722 38.9098 91.9483 39.0148L79.639 43.1175C78.9861 43.3351 78.5097 43.6936 78.3146 44.114C78.1194 44.5344 78.2216 44.9823 78.5985 45.3593C78.9755 45.7362 79.5964 46.0112 80.3246 46.1239C81.0529 46.2365 81.8288 46.1776 82.4817 45.9599L88.8579 43.8347L83.0415 56.3662L70.2516 54.3758C69.8895 54.3188 69.5115 54.3039 69.1394 54.3317C68.7672 54.3595 68.4083 54.4296 68.0833 54.538C67.7583 54.6463 67.4737 54.7907 67.2458 54.9628C67.018 55.135 66.8514 55.3314 66.7558 55.5409L60.5128 68.9915C60.4142 69.2006 60.3883 69.4188 60.4365 69.6336C60.4847 69.8485 60.6061 70.0557 60.7938 70.2433C60.9814 70.4309 61.2315 70.5952 61.5297 70.7268C61.8279 70.8583 62.1683 70.9544 62.5311 71.0097C62.8932 71.0666 63.2712 71.0816 63.6434 71.0537C64.0156 71.0259 64.3745 70.9558 64.6995 70.8475C65.0245 70.7391 65.3091 70.5947 65.5369 70.4226C65.7648 70.2505 65.9313 70.054 66.0269 69.8445L71.517 57.9713L84.3069 59.9618C84.669 60.0187 85.047 60.0337 85.4191 60.0059C85.7913 59.978 86.1502 59.9079 86.4752 59.7996C86.8002 59.6913 87.0848 59.5469 87.3127 59.3747C87.5405 59.2026 87.7071 59.0061 87.8027 58.7966L94.3332 44.6817L98.0145 48.3627C98.3915 48.7396 99.0123 49.0146 99.7406 49.1273C100.469 49.2399 101.245 49.181 101.898 48.9633C102.551 48.7457 103.027 48.3873 103.222 47.9669C103.417 47.5465 103.315 47.0985 102.938 46.7216L95.8314 39.6155C95.6418 39.431 95.3914 39.2699 95.0944 39.141Z" fill="#F7EEE5"/>
</g>
<defs>
<filter id="filter0_dd" x="0.37027" y="0.275391" width="188.992" height="125.628" filterUnits="userSpaceOnUse" color-interpolation-filters="sRGB">
<feFlood flood-opacity="0" result="BackgroundImageFix"/>
<feColorMatrix in="SourceAlpha" type="matrix" values="0 0 0 0 0 0 0 0 0 0 0 0 0 0 0 0 0 0 127 0" result="hardAlpha"/>
<feOffset dx="-4" dy="-4"/>
<feGaussianBlur stdDeviation="10"/>
<feComposite in2="hardAlpha" operator="out"/>
<feColorMatrix type="matrix" values="0 0 0 0 0.996078 0 0 0 0 0.345098 0 0 0 0 0.14902 0 0 0 1 0"/>
<feBlend mode="normal" in2="BackgroundImageFix" result="effect1_dropShadow"/>
<feColorMatrix in="SourceAlpha" type="matrix" values="0 0 0 0 0 0 0 0 0 0 0 0 0 0 0 0 0 0 127 0" result="hardAlpha"/>
<feOffset dx="4" dy="4"/>
<feGaussianBlur stdDeviation="10"/>
<feComposite in2="hardAlpha" operator="out"/>
<feColorMatrix type="matrix" values="0 0 0 0 0.247059 0 0 0 0 0.670588 0 0 0 0 0.682353 0 0 0 1 0"/>
<feBlend mode="normal" in2="effect1_dropShadow" result="effect2_dropShadow"/>
<feBlend mode="normal" in="SourceGraphic" in2="effect2_dropShadow" result="shape"/>
</filter>
</defs>
</svg>
