<svg width="552" height="152" viewBox="0 0 552 152" fill="none" xmlns="http://www.w3.org/2000/svg">
<path d="M2.17432 139.723C2.17432 139.446 1.95046 139.223 1.67432 139.223C1.39817 139.223 1.17432 139.446 1.17432 139.723H2.17432ZM1.17432 116.413C1.17432 116.689 1.39817 116.913 1.67432 116.913C1.95046 116.913 2.17432 116.689 2.17432 116.413H1.17432ZM2.92617 97.0488C2.97976 96.7779 2.8036 96.5148 2.53271 96.4613C2.26182 96.4077 1.99877 96.5838 1.94518 96.8547L2.92617 97.0488ZM7.9962 82.2554C7.84258 82.4849 7.90406 82.7955 8.13353 82.9491C8.36299 83.1027 8.67355 83.0412 8.82717 82.8118L7.9962 82.2554ZM19.7278 71.9111C19.9573 71.7575 20.0188 71.4469 19.8652 71.2174C19.7115 70.988 19.401 70.9265 19.1715 71.0801L19.7278 71.9111ZM33.7708 65.0291C33.4999 65.0827 33.3237 65.3457 33.3773 65.6166C33.4309 65.8875 33.6939 66.0637 33.9648 66.0101L33.7708 65.0291ZM51.4519 65.2582C51.728 65.2582 51.9519 65.0344 51.9519 64.7582C51.9519 64.4821 51.728 64.2582 51.4519 64.2582V65.2582ZM71.0071 64.2582C70.731 64.2582 70.5071 64.4821 70.5071 64.7582C70.5071 65.0344 70.731 65.2582 71.0071 65.2582V64.2582ZM90.5624 65.2582C90.8385 65.2582 91.0624 65.0344 91.0624 64.7582C91.0624 64.4821 90.8385 64.2582 90.5624 64.2582V65.2582ZM110.118 64.2582C109.841 64.2582 109.618 64.4821 109.618 64.7582C109.618 65.0344 109.841 65.2582 110.118 65.2582V64.2582ZM129.673 65.2582C129.949 65.2582 130.173 65.0344 130.173 64.7582C130.173 64.4821 129.949 64.2582 129.673 64.2582V65.2582ZM149.228 64.2582C148.952 64.2582 148.728 64.4821 148.728 64.7582C148.728 65.0344 148.952 65.2582 149.228 65.2582V64.2582ZM168.783 65.2582C169.059 65.2582 169.283 65.0344 169.283 64.7582C169.283 64.4821 169.059 64.2582 168.783 64.2582V65.2582ZM188.339 64.2582C188.062 64.2582 187.839 64.4821 187.839 64.7582C187.839 65.0344 188.062 65.2582 188.339 65.2582V64.2582ZM207.894 65.2582C208.17 65.2582 208.394 65.0344 208.394 64.7582C208.394 64.4821 208.17 64.2582 207.894 64.2582V65.2582ZM227.449 64.2582C227.173 64.2582 226.949 64.4821 226.949 64.7582C226.949 65.0344 227.173 65.2582 227.449 65.2582V64.2582ZM247.004 65.2582C247.28 65.2582 247.504 65.0344 247.504 64.7582C247.504 64.4821 247.28 64.2582 247.004 64.2582V65.2582ZM266.56 64.2582C266.283 64.2582 266.06 64.4821 266.06 64.7582C266.06 65.0344 266.283 65.2582 266.56 65.2582V64.2582ZM286.115 65.2582C286.391 65.2582 286.615 65.0344 286.615 64.7582C286.615 64.4821 286.391 64.2582 286.115 64.2582V65.2582ZM305.67 64.2582C305.394 64.2582 305.17 64.4821 305.17 64.7582C305.17 65.0344 305.394 65.2582 305.67 65.2582V64.2582ZM325.225 65.2582C325.501 65.2582 325.725 65.0344 325.725 64.7582C325.725 64.4821 325.501 64.2582 325.225 64.2582V65.2582ZM344.78 64.2582C344.504 64.2582 344.28 64.4821 344.28 64.7582C344.28 65.0344 344.504 65.2582 344.78 65.2582V64.2582ZM364.336 65.2582C364.612 65.2582 364.836 65.0344 364.836 64.7582C364.836 64.4821 364.612 64.2582 364.336 64.2582V65.2582ZM383.891 64.2582C383.615 64.2582 383.391 64.4821 383.391 64.7582C383.391 65.0344 383.615 65.2582 383.891 65.2582V64.2582ZM403.446 65.2582C403.722 65.2582 403.946 65.0344 403.946 64.7582C403.946 64.4821 403.722 64.2582 403.446 64.2582V65.2582ZM423.001 64.2582C422.725 64.2582 422.501 64.4821 422.501 64.7582C422.501 65.0344 422.725 65.2582 423.001 65.2582V64.2582ZM442.557 65.2582C442.833 65.2582 443.057 65.0344 443.057 64.7582C443.057 64.4821 442.833 64.2582 442.557 64.2582V65.2582ZM462.112 64.2582C461.836 64.2582 461.612 64.4821 461.612 64.7582C461.612 65.0344 461.836 65.2582 462.112 65.2582V64.2582ZM481.667 65.2582C481.943 65.2582 482.167 65.0344 482.167 64.7582C482.167 64.4821 481.943 64.2582 481.667 64.2582V65.2582ZM501.222 64.2582C500.946 64.2582 500.722 64.4821 500.722 64.7582C500.722 65.0344 500.946 65.2582 501.222 65.2582V64.2582ZM518.904 64.4874C519.174 64.4338 519.351 64.1707 519.297 63.8998C519.243 63.6289 518.98 63.4528 518.709 63.5064L518.904 64.4874ZM532.946 57.6053C532.717 57.759 532.656 58.0695 532.809 58.299C532.963 58.5285 533.273 58.5899 533.503 58.4363L532.946 57.6053ZM544.678 47.261C544.832 47.0315 544.77 46.721 544.541 46.5673C544.311 46.4137 544.001 46.4752 543.847 46.7047L544.678 47.261ZM549.748 32.4676C549.695 32.7385 549.871 33.0016 550.142 33.0552C550.412 33.1088 550.676 32.9326 550.729 32.6617L549.748 32.4676ZM551.5 18.6129C551.5 18.3368 551.276 18.1129 551 18.1129C550.724 18.1129 550.5 18.3368 550.5 18.6129H551.5ZM550.5 6.32239C550.5 6.59854 550.724 6.82239 551 6.82239C551.276 6.82239 551.5 6.59854 551.5 6.32239H550.5ZM2.17432 151.377V139.723H1.17432V151.377H2.17432ZM2.17432 116.413V104.758H1.17432V116.413H2.17432ZM2.17432 104.758C2.17432 102.12 2.43298 99.5418 2.92617 97.0488L1.94518 96.8547C1.43941 99.4113 1.17432 102.054 1.17432 104.758H2.17432ZM8.82717 82.8118C11.7111 78.504 15.4201 74.7951 19.7278 71.9111L19.1715 71.0801C14.7551 74.0368 10.9529 77.8391 7.9962 82.2554L8.82717 82.8118ZM33.9648 66.0101C36.4579 65.5169 39.0356 65.2582 41.6743 65.2582V64.2582C38.9701 64.2582 36.3274 64.5233 33.7708 65.0291L33.9648 66.0101ZM41.6743 65.2582H51.4519V64.2582H41.6743V65.2582ZM71.0071 65.2582H90.5624V64.2582H71.0071V65.2582ZM110.118 65.2582H129.673V64.2582H110.118V65.2582ZM149.228 65.2582H168.783V64.2582H149.228V65.2582ZM188.339 65.2582H207.894V64.2582H188.339V65.2582ZM227.449 65.2582H247.004V64.2582H227.449V65.2582ZM266.56 65.2582H286.115V64.2582H266.56V65.2582ZM305.67 65.2582H325.225V64.2582H305.67V65.2582ZM344.78 65.2582H364.336V64.2582H344.78V65.2582ZM383.891 65.2582H403.446V64.2582H383.891V65.2582ZM423.001 65.2582H442.557V64.2582H423.001V65.2582ZM462.112 65.2582H481.667V64.2582H462.112V65.2582ZM501.222 65.2582H511V64.2582H501.222V65.2582ZM511 65.2582C513.704 65.2582 516.347 64.9931 518.904 64.4874L518.709 63.5064C516.216 63.9996 513.639 64.2582 511 64.2582V65.2582ZM533.503 58.4363C537.919 55.4796 541.721 51.6774 544.678 47.261L543.847 46.7047C540.963 51.0124 537.254 54.7214 532.946 57.6053L533.503 58.4363ZM550.729 32.6617C551.235 30.1051 551.5 27.4624 551.5 24.7582H550.5C550.5 27.3969 550.241 29.9746 549.748 32.4676L550.729 32.6617ZM551.5 24.7582V18.6129H550.5V24.7582H551.5ZM551.5 6.32239V0.177124H550.5V6.32239H551.5ZM2.67432 139.723C2.67432 139.17 2.2266 138.723 1.67432 138.723C1.12203 138.723 0.674316 139.17 0.674316 139.723H2.67432ZM0.674316 116.413C0.674316 116.965 1.12203 117.413 1.67432 117.413C2.2266 117.413 2.67432 116.965 2.67432 116.413H0.674316ZM3.41666 97.1458C3.52385 96.604 3.17153 96.0779 2.62975 95.9708C2.08796 95.8636 1.56187 96.2159 1.45469 96.7577L3.41666 97.1458ZM7.58072 81.9773C7.27347 82.4362 7.39644 83.0573 7.85537 83.3646C8.3143 83.6718 8.93541 83.5488 9.24266 83.0899L7.58072 81.9773ZM20.006 72.3266C20.4649 72.0193 20.5879 71.3982 20.2806 70.9393C19.9734 70.4804 19.3523 70.3574 18.8933 70.6646L20.006 72.3266ZM33.6737 64.5386C33.132 64.6458 32.7796 65.1719 32.8868 65.7136C32.994 66.2554 33.5201 66.6077 34.0619 66.5006L33.6737 64.5386ZM51.4519 65.7582C52.0042 65.7582 52.4519 65.3105 52.4519 64.7582C52.4519 64.2059 52.0042 63.7582 51.4519 63.7582V65.7582ZM71.0071 63.7582C70.4549 63.7582 70.0071 64.2059 70.0071 64.7582C70.0071 65.3105 70.4549 65.7582 71.0071 65.7582V63.7582ZM90.5624 65.7582C91.1147 65.7582 91.5624 65.3105 91.5624 64.7582C91.5624 64.2059 91.1147 63.7582 90.5624 63.7582V65.7582ZM110.118 63.7582C109.565 63.7582 109.118 64.2059 109.118 64.7582C109.118 65.3105 109.565 65.7582 110.118 65.7582V63.7582ZM129.673 65.7582C130.225 65.7582 130.673 65.3105 130.673 64.7582C130.673 64.2059 130.225 63.7582 129.673 63.7582V65.7582ZM149.228 63.7582C148.676 63.7582 148.228 64.2059 148.228 64.7582C148.228 65.3105 148.676 65.7582 149.228 65.7582V63.7582ZM168.783 65.7582C169.336 65.7582 169.783 65.3105 169.783 64.7582C169.783 64.2059 169.336 63.7582 168.783 63.7582V65.7582ZM188.339 63.7582C187.786 63.7582 187.339 64.2059 187.339 64.7582C187.339 65.3105 187.786 65.7582 188.339 65.7582V63.7582ZM207.894 65.7582C208.446 65.7582 208.894 65.3105 208.894 64.7582C208.894 64.2059 208.446 63.7582 207.894 63.7582V65.7582ZM227.449 63.7582C226.897 63.7582 226.449 64.2059 226.449 64.7582C226.449 65.3105 226.897 65.7582 227.449 65.7582V63.7582ZM247.004 65.7582C247.557 65.7582 248.004 65.3105 248.004 64.7582C248.004 64.2059 247.557 63.7582 247.004 63.7582V65.7582ZM266.56 63.7582C266.007 63.7582 265.56 64.2059 265.56 64.7582C265.56 65.3105 266.007 65.7582 266.56 65.7582V63.7582ZM286.115 65.7582C286.667 65.7582 287.115 65.3105 287.115 64.7582C287.115 64.2059 286.667 63.7582 286.115 63.7582V65.7582ZM305.67 63.7582C305.118 63.7582 304.67 64.2059 304.67 64.7582C304.67 65.3105 305.118 65.7582 305.67 65.7582V63.7582ZM325.225 65.7582C325.778 65.7582 326.225 65.3105 326.225 64.7582C326.225 64.2059 325.778 63.7582 325.225 63.7582V65.7582ZM344.78 63.7582C344.228 63.7582 343.78 64.2059 343.78 64.7582C343.78 65.3105 344.228 65.7582 344.78 65.7582V63.7582ZM364.336 65.7582C364.888 65.7582 365.336 65.3105 365.336 64.7582C365.336 64.2059 364.888 63.7582 364.336 63.7582V65.7582ZM383.891 63.7582C383.339 63.7582 382.891 64.2059 382.891 64.7582C382.891 65.3105 383.339 65.7582 383.891 65.7582V63.7582ZM403.446 65.7582C403.999 65.7582 404.446 65.3105 404.446 64.7582C404.446 64.2059 403.999 63.7582 403.446 63.7582V65.7582ZM423.001 63.7582C422.449 63.7582 422.001 64.2059 422.001 64.7582C422.001 65.3105 422.449 65.7582 423.001 65.7582V63.7582ZM442.557 65.7582C443.109 65.7582 443.557 65.3105 443.557 64.7582C443.557 64.2059 443.109 63.7582 442.557 63.7582V65.7582ZM462.112 63.7582C461.56 63.7582 461.112 64.2059 461.112 64.7582C461.112 65.3105 461.56 65.7582 462.112 65.7582V63.7582ZM481.667 65.7582C482.219 65.7582 482.667 65.3105 482.667 64.7582C482.667 64.2059 482.219 63.7582 481.667 63.7582V65.7582ZM501.222 63.7582C500.67 63.7582 500.222 64.2059 500.222 64.7582C500.222 65.3105 500.67 65.7582 501.222 65.7582V63.7582ZM519.001 64.9778C519.542 64.8707 519.895 64.3446 519.787 63.8028C519.68 63.261 519.154 62.9087 518.612 63.0159L519.001 64.9778ZM532.668 57.1899C532.209 57.4971 532.086 58.1182 532.394 58.5771C532.701 59.0361 533.322 59.159 533.781 58.8518L532.668 57.1899ZM545.094 47.5392C545.401 47.0802 545.278 46.4591 544.819 46.1519C544.36 45.8446 543.739 45.9676 543.432 46.4265L545.094 47.5392ZM549.258 32.3706C549.15 32.9124 549.503 33.4385 550.045 33.5457C550.586 33.6528 551.112 33.3005 551.22 32.7587L549.258 32.3706ZM552 18.6129C552 18.0606 551.552 17.6129 551 17.6129C550.448 17.6129 550 18.0606 550 18.6129H552ZM550 6.32239C550 6.87468 550.448 7.32239 551 7.32239C551.552 7.32239 552 6.87468 552 6.32239H550ZM2.67432 151.377V139.723H0.674316V151.377H2.67432ZM2.67432 116.413V104.758H0.674316V116.413H2.67432ZM2.67432 104.758C2.67432 102.152 2.92976 99.6071 3.41666 97.1458L1.45469 96.7577C0.942629 99.3461 0.674316 102.021 0.674316 104.758H2.67432ZM9.24266 83.0899C12.0903 78.8365 15.7526 75.1742 20.006 72.3266L18.8933 70.6646C14.4227 73.6577 10.5738 77.5066 7.58072 81.9773L9.24266 83.0899ZM34.0619 66.5006C36.5231 66.0137 39.0684 65.7582 41.6743 65.7582V63.7582C38.9374 63.7582 36.2621 64.0265 33.6737 64.5386L34.0619 66.5006ZM41.6743 65.7582H51.4519V63.7582H41.6743V65.7582ZM71.0071 65.7582H90.5624V63.7582H71.0071V65.7582ZM110.118 65.7582H129.673V63.7582H110.118V65.7582ZM149.228 65.7582H168.783V63.7582H149.228V65.7582ZM188.339 65.7582H207.894V63.7582H188.339V65.7582ZM227.449 65.7582H247.004V63.7582H227.449V65.7582ZM266.56 65.7582H286.115V63.7582H266.56V65.7582ZM305.67 65.7582H325.225V63.7582H305.67V65.7582ZM344.78 65.7582H364.336V63.7582H344.78V65.7582ZM383.891 65.7582H403.446V63.7582H383.891V65.7582ZM423.001 65.7582H442.557V63.7582H423.001V65.7582ZM462.112 65.7582H481.667V63.7582H462.112V65.7582ZM501.222 65.7582H511V63.7582H501.222V65.7582ZM511 65.7582C513.737 65.7582 516.412 65.4899 519.001 64.9778L518.612 63.0159C516.151 63.5028 513.606 63.7582 511 63.7582V65.7582ZM533.781 58.8518C538.252 55.8587 542.101 52.0098 545.094 47.5392L543.432 46.4265C540.584 50.6799 536.922 54.3423 532.668 57.1899L533.781 58.8518ZM551.22 32.7587C551.732 30.1704 552 27.4951 552 24.7582H550C550 27.3641 549.745 29.9094 549.258 32.3706L551.22 32.7587ZM552 24.7582V18.6129H550V24.7582H552ZM552 6.32239V0.177124H550V6.32239H552Z" fill="url(#paint0_linear_1826:146)"/>
<defs>
<linearGradient id="paint0_linear_1826:146" x1="75.105" y1="0.17716" x2="491.123" y2="74.0292" gradientUnits="userSpaceOnUse">
<stop stop-color="#FE5826"/>
<stop offset="1" stop-color="#3FABAE"/>
</linearGradient>
</defs>
</svg>
