<svg width="501" height="467" viewBox="0 0 501 467" fill="none" xmlns="http://www.w3.org/2000/svg">
<g filter="url(#filter0_d_1798:147)">
<path d="M217.023 42.5739C213.093 44.9304 213.149 50.644 217.123 52.9241L286.567 92.7629C288.455 93.8461 290.782 93.8217 292.646 92.6994L360.773 51.7003C364.703 49.3352 364.634 43.6143 360.648 41.3451L291.066 1.7346C289.184 0.662978 286.87 0.689192 285.012 1.80318L217.023 42.5739Z" fill="#FF9D7F"/>
</g>
<path d="M295.088 96.6898C293.265 97.7854 292.159 99.7643 292.179 101.891L293.168 203.182C293.214 207.803 298.247 210.641 302.225 208.286L370.329 167.97C372.172 166.879 373.293 164.89 373.272 162.749L372.284 60.843C372.239 56.2035 367.17 53.3685 363.193 55.7586L295.088 96.6898Z" fill="url(#paint0_linear_1798:147)"/>
<path d="M284.017 96.7481C285.864 97.8075 287.011 99.7663 287.031 101.895L287.997 203.193C288.041 207.812 283.067 210.746 279.045 208.474L209.763 169.33C207.897 168.276 206.735 166.307 206.714 164.164L205.725 62.2509C205.68 57.6137 210.688 54.6806 214.711 56.9882L284.017 96.7481Z" fill="url(#paint1_linear_1798:147)"/>
<path d="M325.82 78.4626L326.944 193.565L341.666 185.32L340.542 69.4954L325.82 78.4626Z" fill="white"/>
<path d="M241.256 27.5976L323.299 74.5218L337.915 65.5545L255.684 18.8981L241.256 27.5976Z" fill="white"/>
<path d="M253.003 79.3461L254.101 194.448L239.699 186.712L238.575 70.8875L253.003 79.3461Z" fill="white"/>
<path d="M335.961 27.1694L255.523 75.4052L241.202 66.9465L321.827 18.9517L335.961 27.1694Z" fill="white"/>
<path d="M300.467 48.3697L287.323 40.955C287.323 40.955 300.306 22.2175 312.485 16.2215C315.796 14.7724 319.527 14.6085 322.952 15.7616C326.377 16.9147 329.249 19.3022 331.009 22.4584C332.615 25.7241 329.028 31.3453 324.959 33.8615C314.065 40.607 300.467 48.3697 300.467 48.3697Z" fill="#308285"/>
<path d="M324.932 23.8502C326.827 22.9147 328.924 22.4641 331.035 22.5386C329.293 19.3572 326.422 16.9441 322.988 15.7748C319.554 14.6054 315.807 14.7648 312.485 16.2213C300.306 22.2173 287.323 40.9549 287.323 40.9549L300.065 48.1287C302.019 45.3983 313.797 29.3376 324.932 23.8502Z" fill="url(#paint2_linear_1798:147)"/>
<path style="mix-blend-mode:color-dodge" d="M330.607 21.789C328.513 21.7179 326.434 22.1686 324.558 23.1007C313.422 28.5881 300.065 48.1287 300.065 48.1287C302.019 45.4519 313.797 29.3911 324.932 23.8502C326.827 22.9147 328.924 22.464 331.035 22.5385L330.607 21.789Z" fill="url(#paint3_radial_1798:147)"/>
<path d="M277.875 49.1459L290.884 41.4903C290.884 41.4903 277.5 22.9936 265.24 17.2385C261.905 15.8497 258.172 15.7548 254.771 16.9727C251.37 18.1905 248.546 20.6334 246.851 23.8235C245.298 27.1427 248.992 32.6836 253.114 35.1195C264.143 41.6509 277.875 49.1459 277.875 49.1459Z" fill="#308285"/>
<path d="M252.953 25.0816C251.037 24.1971 248.931 23.8017 246.823 23.9306C248.497 20.7107 251.318 18.2362 254.728 16.9969C258.138 15.7577 261.89 15.8439 265.24 17.2386C277.526 22.9937 290.883 41.4904 290.883 41.4904L278.383 48.9051C276.268 46.2283 264.196 30.3549 252.953 25.0816Z" fill="url(#paint4_linear_1798:147)"/>
<path style="mix-blend-mode:color-dodge" d="M247.225 23.1542C249.325 23.037 251.422 23.4416 253.328 24.332C264.544 29.6856 278.276 48.9049 278.276 48.9049C276.268 46.2281 264.196 30.3548 252.953 25.0815C251.037 24.197 248.931 23.8015 246.823 23.9305C246.931 23.6093 247.091 23.4219 247.225 23.1542Z" fill="url(#paint5_radial_1798:147)"/>
<path d="M297.388 45.6124C303.758 44.3297 310.319 44.3297 316.688 45.6124C327.636 48.6104 334.97 59.157 329.59 63.4399C324.21 67.7227 318.669 71.6844 312.673 68.499C306.677 65.3136 285.477 53.4019 285.477 53.4019L297.388 45.6124Z" fill="#308285"/>
<path d="M305.366 53.2948C298.996 52.0121 292.435 52.0121 286.066 53.2948L285.557 53.6428L297.469 45.6124C303.838 44.3297 310.399 44.3297 316.769 45.6124C327.717 48.6104 335.051 59.157 329.671 63.4399C326.777 66.0604 323.38 68.0641 319.686 69.3288C321.935 64.5373 315.082 55.9448 305.366 53.2948Z" fill="url(#paint6_linear_1798:147)"/>
<path style="mix-blend-mode:color-dodge" d="M286.413 53.054C292.939 51.6173 299.69 51.5353 306.248 52.8131C315.965 55.4899 322.791 64.0556 320.489 68.8738C321.078 68.7132 320.489 69.088 319.418 69.3289C321.747 64.4303 314.894 55.9449 305.178 53.2681C298.808 51.9854 292.247 51.9854 285.878 53.2681L285.369 53.6161L286.413 53.054Z" fill="url(#paint7_radial_1798:147)"/>
<path d="M296.425 46.0677L292.891 43.1232C291.888 42.2757 290.609 41.8264 289.296 41.861C287.983 41.8955 286.728 42.4115 285.771 43.3106L282.104 46.7637L288.903 51.5819L296.425 46.0677Z" fill="white"/>
<path d="M280.015 45.773C273.613 44.6534 267.051 44.8263 260.716 46.2816C249.821 49.467 242.674 60.1742 248.162 64.35C253.649 68.5257 259.244 72.3803 265.159 69.0611C271.075 65.7419 292.088 53.4286 292.088 53.4286L280.015 45.773Z" fill="#308285"/>
<path d="M272.173 53.6161C278.51 52.1782 285.071 52.0144 291.472 53.1342L292.008 53.4822L279.935 45.8266C273.533 44.707 266.971 44.8799 260.636 46.3352C249.741 49.5206 242.594 60.2278 248.082 64.4035C251.024 66.9618 254.458 68.8927 258.173 70.0783C255.817 65.1798 262.509 56.4535 272.173 53.6161Z" fill="url(#paint8_linear_1798:147)"/>
<path style="mix-blend-mode:color-dodge" d="M291.018 53.054C284.475 51.7412 277.731 51.7959 271.21 53.2146C261.52 56.052 254.854 64.7783 257.263 69.6233C256.675 69.6233 257.263 69.8375 258.334 70.0516C255.898 65.2066 262.59 56.4803 272.253 53.6429C278.591 52.205 285.152 52.0412 291.553 53.1611L292.088 53.509L291.018 53.054Z" fill="url(#paint9_radial_1798:147)"/>
<g filter="url(#filter1_d_1798:147)">
<path d="M321.397 146.099C318.778 147.67 318.815 151.478 321.464 152.998L394.886 195.119C396.144 195.841 397.695 195.825 398.939 195.077L470.998 151.711C473.619 150.134 473.572 146.32 470.914 144.807L397.323 102.928C396.068 102.213 394.526 102.231 393.287 102.974L321.397 146.099Z" fill="#65E2E6"/>
</g>
<path d="M401.34 199.041C400.163 199.78 399.453 201.077 399.465 202.467L400.072 268.11C400.101 271.226 403.524 273.114 406.175 271.476L474.936 228.986C476.127 228.25 476.846 226.946 476.833 225.546L476.227 159.279C476.198 156.152 472.752 154.265 470.102 155.927L401.34 199.041Z" fill="url(#paint10_linear_1798:147)"/>
<path d="M392.381 199.08C393.585 199.794 394.329 201.085 394.342 202.484L394.955 268.166C394.984 271.27 391.62 273.223 388.939 271.658L318.213 230.392C316.996 229.681 316.242 228.383 316.229 226.974L315.616 160.643C315.587 157.527 318.974 155.576 321.655 157.165L392.381 199.08Z" fill="url(#paint11_linear_1798:147)"/>
<path d="M430.492 180.375L431.215 258.118L445.937 249.566L445.215 171.073L430.492 180.375Z" fill="white"/>
<path d="M348.555 129.369L430.599 176.294L445.214 167.326L362.983 120.67L348.555 129.369Z" fill="white"/>
<path d="M362.903 181.419L363.652 259.32L349.224 251.282L348.475 172.659L362.903 181.419Z" fill="white"/>
<path d="M443.26 128.914L362.822 177.15L348.475 168.718L429.126 120.723L443.26 128.914Z" fill="white"/>
<path d="M407.766 150.114L394.596 142.726C394.596 142.726 407.578 123.989 419.758 117.993C423.062 116.533 426.794 116.363 430.218 117.518C433.641 118.672 436.508 121.067 438.254 124.23C439.887 127.495 436.3 133.117 432.231 135.633C421.364 142.352 407.766 150.114 407.766 150.114Z" fill="#CD4117"/>
<path d="M432.232 125.595C434.132 124.68 436.227 124.239 438.335 124.31C436.597 121.124 433.726 118.707 430.291 117.537C426.855 116.367 423.106 116.53 419.785 117.993C407.605 123.989 394.623 142.726 394.623 142.726L407.364 149.9C409.318 147.17 421.096 131.082 432.232 125.595Z" fill="url(#paint12_linear_1798:147)"/>
<path style="mix-blend-mode:color-dodge" d="M437.906 123.614C435.807 123.547 433.722 123.987 431.83 124.899C420.694 130.252 407.364 149.954 407.364 149.954C409.318 147.277 421.096 131.216 432.231 125.648C434.132 124.734 436.226 124.293 438.334 124.364C438.201 124.069 438.067 123.801 437.906 123.614Z" fill="url(#paint13_radial_1798:147)"/>
<path d="M385.174 150.891L398.156 143.262C398.156 143.262 384.772 124.765 372.539 119.01C369.205 117.621 365.472 117.526 362.07 118.744C358.669 119.962 355.845 122.405 354.15 125.595C352.597 128.914 356.291 134.455 360.414 136.891C371.442 143.422 385.174 150.891 385.174 150.891Z" fill="#CD4117"/>
<path d="M360.226 126.853C358.32 125.963 356.223 125.558 354.123 125.675C355.795 122.462 358.613 119.994 362.019 118.76C365.425 117.525 369.169 117.615 372.512 119.01C384.826 124.765 398.156 143.262 398.156 143.262L385.548 150.677C383.567 147.973 371.468 132.126 360.226 126.853Z" fill="url(#paint14_linear_1798:147)"/>
<path style="mix-blend-mode:color-dodge" d="M369.942 129.985C372.034 129.865 374.122 130.27 376.018 131.163C387.261 136.516 400.966 155.736 400.966 155.736C398.985 153.059 386.886 137.186 375.643 131.912C373.737 131.022 371.641 130.617 369.54 130.734C369.653 130.474 369.787 130.223 369.942 129.985Z" fill="url(#paint15_radial_1798:147)"/>
<path d="M404.661 147.384C411.039 146.102 417.609 146.102 423.987 147.384C434.936 150.382 442.27 160.929 436.89 165.211C431.509 169.494 425.968 173.456 419.972 170.271C413.976 167.085 392.776 155.147 392.776 155.147L404.661 147.384Z" fill="#CD4117"/>
<path d="M412.664 155.066C406.295 153.784 399.734 153.784 393.365 155.066L392.829 155.414L404.714 147.545C411.093 146.263 417.662 146.263 424.041 147.545C434.989 150.543 442.323 161.089 436.943 165.372C434.049 167.993 430.652 169.996 426.958 171.261C429.234 166.443 422.381 157.716 412.664 155.066Z" fill="url(#paint16_linear_1798:147)"/>
<path style="mix-blend-mode:color-dodge" d="M393.82 154.799C400.335 153.347 407.08 153.265 413.628 154.558C423.345 157.235 430.198 165.8 427.869 170.618C428.484 170.458 427.869 170.833 426.825 171.074C429.154 166.175 422.301 157.69 412.584 155.013C406.215 153.73 399.654 153.73 393.285 155.013L392.749 155.361L393.82 154.799Z" fill="url(#paint17_radial_1798:147)"/>
<path d="M403.697 147.839L400.19 145.028C399.187 144.181 397.907 143.732 396.595 143.766C395.282 143.801 394.027 144.317 393.07 145.216L389.376 148.669L396.202 153.487L403.697 147.839Z" fill="white"/>
<path d="M387.315 147.545C380.913 146.425 374.353 146.589 368.015 148.027C357.121 151.239 349.974 161.946 355.434 166.095C360.895 170.244 366.543 174.125 372.459 170.833C378.374 167.54 399.361 155.2 399.361 155.2L387.315 147.545Z" fill="#CD4117"/>
<path d="M379.473 155.388C385.81 153.95 392.371 153.786 398.772 154.906L399.307 155.254L387.262 147.598C380.86 146.479 374.3 146.642 367.962 148.08C357.068 151.292 349.921 161.999 355.381 166.149C358.345 168.7 361.796 170.622 365.526 171.797C363.117 166.952 369.809 158.225 379.473 155.388Z" fill="url(#paint18_linear_1798:147)"/>
<path style="mix-blend-mode:color-dodge" d="M398.317 154.745C391.765 153.433 385.012 153.488 378.482 154.906C368.819 157.743 362.154 166.443 364.563 171.314C363.947 171.154 364.563 171.529 365.607 171.743C363.198 166.898 369.89 158.171 379.553 155.334C385.891 153.896 392.451 153.732 398.853 154.852L399.388 155.2L398.317 154.745Z" fill="url(#paint19_radial_1798:147)"/>
<path d="M274.979 388.318L391.633 320.913C401.284 315.356 400.117 305.642 388.939 299.216L188.76 183.622C177.646 177.259 160.806 176.495 151.177 182.073L34.5221 249.478C24.8928 255.035 26.0381 264.749 37.2157 271.176L237.416 386.77C248.53 393.197 265.349 393.854 274.979 388.318Z" fill="#3FABAE"/>
<g filter="url(#filter2_d_1798:147)">
<path d="M274.979 385.243L391.633 317.817C401.284 312.26 400.117 302.546 388.939 296.119L188.76 180.546C177.646 174.183 160.806 173.42 151.177 178.977L34.5221 246.382C24.8928 251.96 26.0381 261.674 37.2157 268.101L237.416 383.673C248.53 390.1 265.349 390.8 274.979 385.243Z" fill="url(#paint20_linear_1798:147)"/>
</g>
<path opacity="0.2" d="M391.739 325.77L275.085 393.175C265.455 398.754 248.636 398.054 237.501 391.627L37.1945 276.033C31.8284 272.936 28.7105 269.097 28.159 265.301C27.2894 270.009 30.28 275.185 37.1945 279.13L237.395 394.702C248.53 401.065 265.349 401.829 274.979 396.272L391.633 328.846C396.639 325.982 398.696 321.974 397.996 317.901C397.591 319.59 396.82 321.17 395.739 322.529C394.658 323.889 393.293 324.995 391.739 325.77Z" fill="#FE5826"/>
<path style="mix-blend-mode:color-dodge" d="M37.1943 266.404L237.395 381.998C248.53 388.361 265.349 389.124 274.978 383.546L391.633 316.141C393.319 315.327 394.78 314.113 395.889 312.605C396.999 311.096 397.722 309.339 397.996 307.487C398.399 311.348 396.299 315.08 391.633 317.817L274.978 385.243C265.349 390.8 248.53 390.1 237.395 383.673L37.1943 268.101C30.8313 264.368 27.6499 259.617 28.0529 255.035C28.4558 259.023 31.5313 263.137 37.1943 266.404Z" fill="url(#paint21_radial_1798:147)"/>
<g opacity="0.15">
<path opacity="0.15" d="M258.922 301.774C235.794 301.774 217.003 290.853 217.003 277.362V279.637C217.003 279.637 217.003 282.528 217.003 282.662C217.003 296.046 235.741 307.047 258.922 307.047C282.103 307.047 300.84 296.126 300.84 282.662V282.314V277.362C300.84 290.853 282.076 301.774 258.922 301.774Z" fill="url(#paint22_linear_1798:147)"/>
</g>
<path d="M300.948 262.934H217.111V274.765C217.111 274.765 217.111 274.979 217.111 275.113C217.111 288.497 235.848 299.499 259.029 299.499C282.21 299.499 300.948 288.577 300.948 275.113V274.765V262.934Z" fill="url(#paint23_linear_1798:147)"/>
<g style="mix-blend-mode:multiply">
<g style="mix-blend-mode:multiply">
<path d="M259.029 296.902C235.901 296.902 217.11 285.981 217.11 272.49V274.765C217.11 274.765 217.11 274.979 217.11 275.113C217.11 288.497 235.848 299.499 259.029 299.499C282.21 299.499 300.947 288.577 300.947 275.113V274.765V272.49C300.947 285.981 282.183 296.902 259.029 296.902Z" fill="#FFC9B8"/>
</g>
</g>
<path d="M259.029 287.506C282.18 287.506 300.948 276.577 300.948 263.094C300.948 249.611 282.18 238.682 259.029 238.682C235.878 238.682 217.111 249.611 217.111 263.094C217.111 276.577 235.878 287.506 259.029 287.506Z" fill="#F7EEE5"/>
<path d="M290.374 263.094C290.374 273.186 276.347 281.35 259.029 281.35C241.71 281.35 227.71 273.32 227.71 263.094C227.71 252.869 241.63 244.865 259.029 244.865C276.428 244.865 290.374 253.029 290.374 263.094Z" fill="url(#paint24_linear_1798:147)"/>
<path style="mix-blend-mode:screen" d="M260.073 245.775C276.83 245.775 290.455 253.431 291.338 263.041C291.338 262.719 291.338 262.398 291.338 262.05C291.338 251.986 277.312 243.821 259.993 243.821C242.674 243.821 228.674 251.852 228.674 262.05C228.674 262.398 228.674 262.719 228.674 263.041C229.718 253.431 243.343 245.775 260.073 245.775Z" fill="url(#paint25_radial_1798:147)"/>
<path style="mix-blend-mode:multiply" d="M259.029 246.819C275.786 246.819 289.411 254.475 290.294 264.085C290.294 263.763 290.294 263.442 290.294 263.094C290.294 253.029 276.268 244.865 258.949 244.865C241.63 244.865 227.63 252.896 227.63 263.094C227.63 263.442 227.63 263.763 227.63 264.085C228.674 254.475 242.299 246.819 259.029 246.819Z" fill="url(#paint26_linear_1798:147)"/>
<path style="mix-blend-mode:color-dodge" d="M281.058 239.592C290.481 242.804 296.825 249.175 295.219 253.859C293.613 258.544 284.726 259.695 275.303 256.536C265.881 253.377 259.537 246.953 261.116 242.295C262.696 237.638 271.636 236.38 281.058 239.592Z" fill="url(#paint27_radial_1798:147)"/>
<g style="mix-blend-mode:multiply">
<path style="mix-blend-mode:multiply" d="M261.465 257.366L259.029 257.928L256.727 258.597C255.897 258.865 255.121 259.186 254.371 259.507L256.888 260.953L257.691 260.685L258.601 260.364C260.019 259.855 261.278 259.427 262.643 259.106C263.807 258.771 264.998 258.538 266.203 258.41C267.26 258.275 268.331 258.275 269.388 258.41C270.405 258.602 271.382 258.964 272.279 259.481C273.176 259.916 273.908 260.63 274.367 261.515C274.513 261.862 274.588 262.236 274.588 262.612C274.588 262.989 274.513 263.362 274.367 263.71C274.019 264.555 273.489 265.314 272.815 265.932C271.988 266.701 271.092 267.391 270.138 267.993L273.511 269.947L270.834 271.58L267.407 269.599C265.593 270.49 263.724 271.268 261.813 271.928C259.934 272.602 258.011 273.148 256.058 273.56L254.211 269.09C255.174 268.903 256.138 268.689 257.155 268.421C258.172 268.153 258.949 267.939 259.993 267.618C261.003 267.288 261.995 266.903 262.964 266.467L260.501 265.048C259.618 265.369 258.735 265.691 257.825 265.985C256.406 266.467 255.148 266.815 253.997 267.083C252.971 267.339 251.921 267.491 250.865 267.538C249.968 267.59 249.069 267.527 248.188 267.35C247.378 267.168 246.602 266.861 245.886 266.44C245.052 265.997 244.35 265.341 243.852 264.54C243.498 263.875 243.403 263.102 243.584 262.371C243.798 261.536 244.212 260.764 244.789 260.123C245.51 259.295 246.338 258.566 247.251 257.955L244.574 256.322L247.251 254.716L250.089 256.349C250.945 255.947 251.802 255.572 252.765 255.251C253.729 254.93 254.505 254.609 255.442 254.341C256.379 254.073 257.129 253.806 257.932 253.592L260.153 253.003L261.465 257.366ZM251.989 261.863C252.307 262.038 252.674 262.104 253.033 262.05C253.561 262 254.081 261.892 254.586 261.729L252.444 260.498C251.614 261.113 251.454 261.568 251.989 261.863ZM265.373 264.111C265.031 263.95 264.649 263.894 264.276 263.951C263.712 264.026 263.157 264.151 262.616 264.326L264.704 265.503C265.212 265.155 265.534 264.888 265.614 264.647C265.662 264.554 265.672 264.446 265.642 264.347C265.612 264.247 265.544 264.162 265.453 264.111H265.373Z" fill="url(#paint28_linear_1798:147)"/>
</g>
<path d="M261.465 256.322L259.029 256.884L256.727 257.553C255.897 257.821 255.121 258.142 254.371 258.463L256.887 259.909L257.717 259.614L258.627 259.293C260.046 258.785 261.304 258.356 262.669 258.035C263.833 257.7 265.025 257.467 266.229 257.339C267.287 257.204 268.357 257.204 269.415 257.339C270.431 257.532 271.409 257.893 272.306 258.41C273.202 258.846 273.935 259.559 274.393 260.444C274.539 260.792 274.614 261.165 274.614 261.542C274.614 261.919 274.539 262.292 274.393 262.639C274.045 263.485 273.515 264.243 272.841 264.861C272.015 265.63 271.119 266.32 270.164 266.922L273.537 268.876L270.86 270.509L267.3 268.715C265.485 269.607 263.617 270.385 261.705 271.044C259.827 271.719 257.904 272.265 255.95 272.677L254.103 268.207C255.067 268.02 256.031 267.805 257.048 267.538C258.065 267.27 258.841 267.056 259.885 266.735C260.896 266.404 261.887 266.02 262.857 265.584L260.394 264.165C259.511 264.486 258.627 264.807 257.717 265.102C256.298 265.584 255.04 265.932 253.889 266.199C252.861 266.442 251.813 266.595 250.757 266.654C249.861 266.707 248.961 266.644 248.081 266.467C247.271 266.284 246.494 265.977 245.779 265.557C244.945 265.114 244.243 264.458 243.744 263.656C243.39 262.991 243.295 262.219 243.477 261.488C243.691 260.653 244.104 259.881 244.681 259.24C245.403 258.412 246.231 257.683 247.144 257.071L244.306 255.332L246.983 253.725L249.821 255.358C250.677 254.957 251.534 254.582 252.497 254.261C253.461 253.94 254.237 253.618 255.174 253.351C256.111 253.083 256.861 252.815 257.664 252.601L259.885 252.012L261.465 256.322ZM251.989 260.819C252.307 260.994 252.674 261.06 253.033 261.006C253.56 260.956 254.081 260.848 254.585 260.685L252.444 259.454C251.614 260.069 251.453 260.525 251.989 260.819ZM265.373 263.067C265.031 262.906 264.649 262.85 264.275 262.907C263.712 262.982 263.157 263.107 262.616 263.282L264.704 264.459C265.212 264.111 265.533 263.844 265.614 263.603C265.662 263.51 265.672 263.403 265.642 263.303C265.612 263.203 265.544 263.118 265.453 263.067H265.373Z" fill="url(#paint29_linear_1798:147)"/>
<path style="mix-blend-mode:color-dodge" d="M261.465 256.322L259.029 256.884L256.727 257.553C255.897 257.821 255.121 258.142 254.371 258.463L256.887 259.909L257.717 259.614L258.627 259.293C260.046 258.785 261.304 258.356 262.669 258.035C263.833 257.7 265.025 257.467 266.229 257.339C267.287 257.204 268.357 257.204 269.415 257.339C270.431 257.532 271.409 257.893 272.306 258.41C273.202 258.846 273.935 259.559 274.393 260.444C274.539 260.792 274.614 261.165 274.614 261.542C274.614 261.919 274.539 262.292 274.393 262.639C274.045 263.485 273.515 264.243 272.841 264.861C272.015 265.63 271.119 266.32 270.164 266.922L273.537 268.876L270.86 270.509L267.3 268.715C265.485 269.607 263.617 270.385 261.705 271.044C259.827 271.719 257.904 272.265 255.95 272.677L254.103 268.207C255.067 268.02 256.031 267.805 257.048 267.538C258.065 267.27 258.841 267.056 259.885 266.735C260.896 266.404 261.887 266.02 262.857 265.584L260.394 264.165C259.511 264.486 258.627 264.807 257.717 265.102C256.298 265.584 255.04 265.932 253.889 266.199C252.861 266.442 251.813 266.595 250.757 266.654C249.861 266.707 248.961 266.644 248.081 266.467C247.271 266.284 246.494 265.977 245.779 265.557C244.945 265.114 244.243 264.458 243.744 263.656C243.39 262.991 243.295 262.219 243.477 261.488C243.691 260.653 244.104 259.881 244.681 259.24C245.403 258.412 246.231 257.683 247.144 257.071L244.306 255.332L246.983 253.725L249.821 255.358C250.677 254.957 251.534 254.582 252.497 254.261C253.461 253.94 254.237 253.618 255.174 253.351C256.111 253.083 256.861 252.815 257.664 252.601L259.885 252.012L261.465 256.322ZM251.989 260.819C252.307 260.994 252.674 261.06 253.033 261.006C253.56 260.956 254.081 260.848 254.585 260.685L252.444 259.454C251.614 260.069 251.453 260.525 251.989 260.819ZM265.373 263.067C265.031 262.906 264.649 262.85 264.275 262.907C263.712 262.982 263.157 263.107 262.616 263.282L264.704 264.459C265.212 264.111 265.533 263.844 265.614 263.603C265.662 263.51 265.672 263.403 265.642 263.303C265.612 263.203 265.544 263.118 265.453 263.067H265.373Z" fill="url(#paint30_radial_1798:147)"/>
<path d="M300.948 249.71H217.111V261.542C217.111 261.542 217.111 261.756 217.111 261.863C217.111 275.247 235.848 286.275 259.029 286.275C282.21 286.275 300.948 275.354 300.948 261.863V261.542V249.71Z" fill="url(#paint31_linear_1798:147)"/>
<g style="mix-blend-mode:multiply">
<g style="mix-blend-mode:multiply">
<path d="M259.029 283.679C235.901 283.679 217.11 272.731 217.11 259.266V261.542C217.11 261.542 217.11 261.756 217.11 261.863C217.11 275.247 235.848 286.275 259.029 286.275C282.21 286.275 300.947 275.354 300.947 261.863V261.542V259.266C300.947 272.731 282.183 283.679 259.029 283.679Z" fill="#FFC9B8"/>
</g>
</g>
<path d="M259.029 274.283C282.18 274.283 300.948 263.353 300.948 249.871C300.948 236.388 282.18 225.458 259.029 225.458C235.878 225.458 217.111 236.388 217.111 249.871C217.111 263.353 235.878 274.283 259.029 274.283Z" fill="#F7EEE5"/>
<path d="M290.374 249.978C290.374 260.069 276.347 268.234 259.029 268.234C241.71 268.234 227.71 260.203 227.71 249.978C227.71 239.753 241.63 231.642 259.029 231.642C276.428 231.642 290.374 239.806 290.374 249.978Z" fill="url(#paint32_linear_1798:147)"/>
<path style="mix-blend-mode:screen" d="M260.073 232.552C276.83 232.552 290.455 240.181 291.338 249.817C291.338 249.496 291.338 249.175 291.338 248.827C291.338 238.762 277.312 230.598 259.993 230.598C242.674 230.598 228.674 238.628 228.674 248.827C228.674 249.175 228.674 249.496 228.674 249.817C229.718 240.181 243.343 232.552 260.073 232.552Z" fill="url(#paint33_radial_1798:147)"/>
<path style="mix-blend-mode:multiply" d="M259.029 233.596C275.786 233.596 289.411 241.225 290.294 250.861C290.294 250.54 290.294 250.219 290.294 249.871C290.294 239.806 276.268 231.642 258.949 231.642C241.63 231.642 227.63 239.672 227.63 249.871C227.63 250.219 227.63 250.54 227.63 250.861C228.674 241.225 242.299 233.596 259.029 233.596Z" fill="url(#paint34_linear_1798:147)"/>
<path style="mix-blend-mode:color-dodge" d="M281.058 226.369C290.481 229.581 296.825 235.951 295.219 240.609C293.613 245.267 284.726 246.471 275.303 243.286C265.881 240.101 259.537 233.703 261.116 229.045C262.696 224.388 271.636 223.21 281.058 226.369Z" fill="url(#paint35_radial_1798:147)"/>
<g style="mix-blend-mode:multiply">
<path style="mix-blend-mode:multiply" d="M261.465 244.142L259.029 244.624L256.727 245.293C255.897 245.561 255.121 245.856 254.371 246.177L256.887 247.649C257.155 247.526 257.432 247.428 257.717 247.355L258.627 247.033C260.046 246.525 261.304 246.097 262.669 245.749C263.837 245.434 265.027 245.211 266.229 245.079C267.287 244.944 268.357 244.944 269.415 245.079C270.432 245.272 271.409 245.634 272.306 246.15C273.202 246.586 273.935 247.299 274.394 248.184C274.539 248.532 274.614 248.905 274.614 249.282C274.614 249.659 274.539 250.032 274.394 250.379C274.05 251.22 273.519 251.971 272.841 252.574C272.016 253.352 271.12 254.051 270.164 254.662L273.537 256.616L270.86 258.249L267.434 256.242C265.625 257.153 263.756 257.94 261.839 258.597C259.957 259.26 258.035 259.805 256.084 260.23L254.237 255.76C255.201 255.572 256.165 255.358 257.182 255.091C258.199 254.823 258.975 254.609 260.019 254.288C261.029 253.957 262.021 253.573 262.99 253.136L260.528 251.718C259.644 252.039 258.761 252.36 257.851 252.655C256.432 253.11 255.174 253.484 254.023 253.752C252.995 253.995 251.947 254.148 250.891 254.207C249.993 254.265 249.092 254.193 248.215 253.993C247.406 253.819 246.63 253.521 245.912 253.11C245.067 252.67 244.362 252.003 243.878 251.182C243.524 250.527 243.428 249.763 243.61 249.041C243.818 248.203 244.232 247.43 244.815 246.792C245.537 245.964 246.365 245.235 247.278 244.624L244.601 242.991L247.278 241.359L250.115 243.018C250.972 242.617 251.828 242.242 252.792 241.921C253.755 241.6 254.532 241.278 255.469 241.011C256.405 240.743 257.155 240.475 257.958 240.261L260.18 239.672L261.465 244.142ZM251.989 248.639C252.311 248.801 252.674 248.866 253.033 248.827C253.56 248.777 254.081 248.669 254.585 248.506L252.337 247.301C251.614 247.863 251.453 248.318 251.989 248.639ZM265.373 250.888C265.035 250.714 264.649 250.658 264.275 250.727C263.713 250.792 263.157 250.909 262.616 251.075L264.704 252.28C265.07 252.07 265.382 251.777 265.614 251.423C265.662 251.331 265.672 251.223 265.642 251.123C265.612 251.023 265.544 250.939 265.453 250.888H265.373Z" fill="url(#paint36_linear_1798:147)"/>
</g>
<path d="M261.464 243.099L259.029 243.661L256.726 244.33C255.897 244.598 255.12 244.892 254.371 245.213L256.887 246.686C257.154 246.563 257.432 246.464 257.717 246.391L258.627 246.07C260.046 245.561 261.304 245.133 262.669 244.785C263.837 244.471 265.027 244.247 266.229 244.116C267.287 243.981 268.357 243.981 269.414 244.116C270.431 244.308 271.409 244.67 272.305 245.187C273.202 245.622 273.935 246.336 274.393 247.221C274.539 247.568 274.614 247.941 274.614 248.318C274.614 248.695 274.539 249.068 274.393 249.416C274.05 250.256 273.519 251.007 272.841 251.611C272.016 252.389 271.119 253.088 270.164 253.699L273.537 255.653L270.86 257.286L267.3 255.332C265.491 256.243 263.622 257.03 261.705 257.687C259.822 258.35 257.9 258.895 255.95 259.32L254.103 254.85C255.067 254.662 256.031 254.448 257.048 254.181C258.065 253.913 258.841 253.699 259.885 253.377C260.895 253.047 261.887 252.663 262.856 252.226L260.394 250.808C259.51 251.129 258.627 251.45 257.717 251.745C256.298 252.2 255.04 252.574 253.889 252.842C252.861 253.085 251.813 253.238 250.757 253.297C249.859 253.355 248.958 253.283 248.08 253.083C247.272 252.909 246.496 252.611 245.778 252.2C244.933 251.76 244.228 251.093 243.744 250.272C243.39 249.617 243.294 248.853 243.476 248.131C243.684 247.293 244.098 246.52 244.681 245.882C245.403 245.054 246.231 244.325 247.144 243.714L244.467 242.081L247.144 240.449L249.981 242.108C250.838 241.707 251.694 241.332 252.658 241.011C253.621 240.69 254.398 240.368 255.335 240.101C256.271 239.833 257.021 239.565 257.824 239.351L260.046 238.762L261.464 243.099ZM251.989 247.596C252.311 247.757 252.674 247.822 253.033 247.783C253.56 247.733 254.081 247.625 254.585 247.462L252.337 246.23C251.614 246.819 251.453 247.301 251.989 247.596ZM265.373 249.844C265.035 249.67 264.649 249.614 264.275 249.684C263.712 249.748 263.157 249.865 262.615 250.031L264.703 251.236C265.07 251.026 265.382 250.733 265.613 250.379C265.628 250.304 265.62 250.226 265.592 250.155C265.563 250.084 265.515 250.023 265.453 249.978L265.373 249.844Z" fill="url(#paint37_linear_1798:147)"/>
<path style="mix-blend-mode:color-dodge" d="M261.464 243.099L259.029 243.661L256.726 244.33C255.897 244.598 255.12 244.892 254.371 245.213L256.887 246.686C257.154 246.563 257.432 246.464 257.717 246.391L258.627 246.07C260.046 245.561 261.304 245.133 262.669 244.785C263.837 244.471 265.027 244.247 266.229 244.116C267.287 243.981 268.357 243.981 269.414 244.116C270.431 244.308 271.409 244.67 272.305 245.187C273.202 245.622 273.935 246.336 274.393 247.221C274.539 247.568 274.614 247.941 274.614 248.318C274.614 248.695 274.539 249.068 274.393 249.416C274.05 250.256 273.519 251.007 272.841 251.611C272.016 252.389 271.119 253.088 270.164 253.699L273.537 255.653L270.86 257.286L267.3 255.332C265.491 256.243 263.622 257.03 261.705 257.687C259.822 258.35 257.9 258.895 255.95 259.32L254.103 254.85C255.067 254.662 256.031 254.448 257.048 254.181C258.065 253.913 258.841 253.699 259.885 253.377C260.895 253.047 261.887 252.663 262.856 252.226L260.394 250.808C259.51 251.129 258.627 251.45 257.717 251.745C256.298 252.2 255.04 252.574 253.889 252.842C252.861 253.085 251.813 253.238 250.757 253.297C249.859 253.355 248.958 253.283 248.08 253.083C247.272 252.909 246.496 252.611 245.778 252.2C244.933 251.76 244.228 251.093 243.744 250.272C243.39 249.617 243.294 248.853 243.476 248.131C243.684 247.293 244.098 246.52 244.681 245.882C245.403 245.054 246.231 244.325 247.144 243.714L244.467 242.081L247.144 240.449L249.981 242.108C250.838 241.707 251.694 241.332 252.658 241.011C253.621 240.69 254.398 240.368 255.335 240.101C256.271 239.833 257.021 239.565 257.824 239.351L260.046 238.762L261.464 243.099ZM251.989 247.596C252.311 247.757 252.674 247.822 253.033 247.783C253.56 247.733 254.081 247.625 254.585 247.462L252.337 246.23C251.614 246.819 251.453 247.301 251.989 247.596ZM265.373 249.844C265.035 249.67 264.649 249.614 264.275 249.684C263.712 249.748 263.157 249.865 262.615 250.031L264.703 251.236C265.07 251.026 265.382 250.733 265.613 250.379C265.628 250.304 265.62 250.226 265.592 250.155C265.563 250.084 265.515 250.023 265.453 249.978L265.373 249.844Z" fill="url(#paint38_radial_1798:147)"/>
<path d="M300.948 235.791H217.111V247.622C217.111 247.622 217.111 247.837 217.111 247.944C217.111 261.328 235.848 272.356 259.029 272.356C282.21 272.356 300.948 261.435 300.948 247.944V247.622V235.791Z" fill="url(#paint39_linear_1798:147)"/>
<g style="mix-blend-mode:multiply">
<g style="mix-blend-mode:multiply">
<path d="M259.029 269.733C235.901 269.733 217.11 258.811 217.11 245.347V247.622C217.11 247.622 217.11 247.837 217.11 247.944C217.11 261.328 235.848 272.356 259.029 272.356C282.21 272.356 300.947 261.435 300.947 247.944V247.622V245.347C300.947 258.811 282.183 269.733 259.029 269.733Z" fill="#FFC9B8"/>
</g>
</g>
<path d="M259.029 260.364C282.18 260.364 300.948 249.434 300.948 235.952C300.948 222.469 282.18 211.539 259.029 211.539C235.878 211.539 217.111 222.469 217.111 235.952C217.111 249.434 235.878 260.364 259.029 260.364Z" fill="#F7EEE5"/>
<path d="M290.374 235.952C290.374 246.016 276.347 254.207 259.029 254.207C241.71 254.207 227.71 246.016 227.71 235.952C227.71 225.887 241.63 217.696 259.029 217.696C276.428 217.696 290.374 225.887 290.374 235.952Z" fill="url(#paint40_linear_1798:147)"/>
<path style="mix-blend-mode:screen" d="M260.073 218.606C276.83 218.606 290.455 226.262 291.338 235.898C291.338 235.55 291.338 235.229 291.338 234.908C291.338 224.843 277.312 216.652 259.993 216.652C242.674 216.652 228.674 224.843 228.674 234.908C228.674 235.229 228.674 235.55 228.674 235.898C229.718 226.262 243.343 218.606 260.073 218.606Z" fill="url(#paint41_radial_1798:147)"/>
<path style="mix-blend-mode:multiply" d="M259.029 219.677C275.785 219.677 289.41 227.305 290.294 236.942C290.294 236.594 290.294 236.273 290.294 235.952C290.294 225.887 276.267 217.696 258.948 217.696C241.63 217.696 227.71 225.887 227.71 235.952C227.71 236.273 227.71 236.594 227.71 236.942C228.674 227.305 242.299 219.677 259.029 219.677Z" fill="url(#paint42_linear_1798:147)"/>
<path style="mix-blend-mode:color-dodge" d="M281.058 212.503C290.481 215.688 296.825 222.086 295.219 226.743C293.613 231.401 284.726 232.579 275.303 229.42C265.881 226.261 259.537 219.837 261.116 215.153C262.696 210.468 271.636 209.237 281.058 212.503Z" fill="url(#paint43_radial_1798:147)"/>
<g style="mix-blend-mode:multiply">
<path style="mix-blend-mode:multiply" d="M261.465 230.223C260.644 230.368 259.831 230.556 259.029 230.785C258.306 230.946 257.557 231.187 256.727 231.455C255.897 231.722 255.121 232.017 254.372 232.338L256.888 233.81L257.718 233.489L258.628 233.168C260.046 232.686 261.304 232.258 262.67 231.91C263.834 231.583 265.026 231.359 266.23 231.24C267.285 231.079 268.359 231.079 269.415 231.24C270.435 231.421 271.415 231.783 272.306 232.311C273.203 232.747 273.935 233.46 274.394 234.345C274.54 234.693 274.615 235.066 274.615 235.443C274.615 235.82 274.54 236.193 274.394 236.54C274.051 237.381 273.52 238.132 272.841 238.735C272.009 239.505 271.114 240.204 270.165 240.823L273.537 242.777L270.861 244.383L267.434 242.403C265.625 243.314 263.756 244.101 261.84 244.758C259.957 245.421 258.035 245.966 256.085 246.391L254.104 241.948C255.068 241.76 256.031 241.546 257.048 241.278C258.066 241.011 258.842 240.797 259.886 240.449C260.905 240.133 261.898 239.739 262.857 239.271L260.368 237.932C259.484 238.28 258.601 238.602 257.691 238.896C256.272 239.351 255.014 239.726 253.863 239.993C252.832 240.224 251.785 240.376 250.731 240.449C249.833 240.493 248.934 240.421 248.054 240.234C247.245 240.052 246.468 239.745 245.752 239.324C244.904 238.902 244.197 238.242 243.718 237.424C243.366 236.768 243.271 236.005 243.45 235.282C243.658 234.444 244.072 233.671 244.655 233.034C245.377 232.206 246.205 231.477 247.117 230.866L244.441 229.233L247.117 227.6L249.955 229.26C250.811 228.858 251.668 228.483 252.632 228.135C253.595 227.787 254.372 227.493 255.308 227.225L257.798 226.502L260.02 225.914L261.465 230.223ZM251.989 234.72C252.312 234.882 252.674 234.947 253.033 234.908C253.561 234.857 254.081 234.75 254.586 234.586L252.444 233.355C251.614 233.917 251.454 234.399 251.989 234.72ZM265.373 236.969C265.035 236.795 264.649 236.738 264.276 236.808C263.713 236.873 263.157 236.989 262.616 237.156L264.704 238.361C265.071 238.151 265.383 237.857 265.614 237.504C265.662 237.411 265.672 237.304 265.642 237.204C265.612 237.104 265.545 237.02 265.453 236.969H265.373Z" fill="url(#paint44_linear_1798:147)"/>
</g>
<path d="M261.465 229.179C260.644 229.324 259.831 229.512 259.029 229.741C258.306 229.902 257.557 230.143 256.727 230.41C255.897 230.678 255.121 230.973 254.372 231.294L256.888 232.766L257.718 232.445L258.628 232.124C260.046 231.642 261.304 231.213 262.67 230.866C263.834 230.539 265.026 230.315 266.23 230.196C267.285 230.035 268.359 230.035 269.415 230.196C270.435 230.377 271.415 230.739 272.306 231.267C273.209 231.695 273.943 232.41 274.394 233.301C274.54 233.649 274.615 234.022 274.615 234.399C274.615 234.776 274.54 235.149 274.394 235.496C274.051 236.337 273.52 237.088 272.841 237.691C272.009 238.461 271.114 239.16 270.165 239.779L273.537 241.733L270.861 243.339L267.434 241.359C265.625 242.27 263.756 243.057 261.84 243.714C259.957 244.377 258.035 244.922 256.085 245.347L254.238 240.877C255.201 240.689 256.165 240.475 257.182 240.208C258.199 239.94 258.976 239.726 260.02 239.378C261.038 239.071 262.031 238.686 262.991 238.227L260.368 236.888C259.484 237.236 258.601 237.557 257.691 237.852C256.272 238.307 255.014 238.682 253.863 238.949C252.832 239.18 251.785 239.332 250.731 239.404C249.833 239.449 248.934 239.377 248.054 239.19C247.245 239.008 246.468 238.701 245.752 238.28C244.904 237.858 244.197 237.198 243.718 236.38C243.366 235.724 243.271 234.961 243.45 234.238C243.658 233.4 244.072 232.627 244.655 231.99C245.377 231.162 246.205 230.433 247.117 229.822L244.441 228.189L247.117 226.556L249.955 228.215C250.811 227.814 251.668 227.439 252.632 227.091C253.595 226.743 254.372 226.449 255.308 226.181L257.798 225.458L260.02 224.87L261.465 229.179ZM251.989 233.676C252.312 233.838 252.674 233.903 253.033 233.864C253.561 233.813 254.081 233.706 254.586 233.542L252.337 232.311C251.614 232.9 251.454 233.355 251.989 233.676ZM265.373 235.925C265.035 235.751 264.649 235.694 264.276 235.764C263.713 235.829 263.157 235.945 262.616 236.112L264.704 237.317C265.095 237.159 265.444 236.912 265.721 236.594C265.771 236.538 265.805 236.469 265.818 236.396C265.831 236.322 265.824 236.246 265.796 236.176C265.768 236.106 265.721 236.046 265.661 236.001C265.6 235.957 265.528 235.93 265.453 235.925H265.373Z" fill="url(#paint45_linear_1798:147)"/>
<path style="mix-blend-mode:color-dodge" d="M261.465 229.179C260.644 229.324 259.831 229.512 259.029 229.741C258.306 229.902 257.557 230.143 256.727 230.41C255.897 230.678 255.121 230.973 254.372 231.294L256.888 232.766L257.718 232.445L258.628 232.124C260.046 231.642 261.304 231.213 262.67 230.866C263.834 230.539 265.026 230.315 266.23 230.196C267.285 230.035 268.359 230.035 269.415 230.196C270.435 230.377 271.415 230.739 272.306 231.267C273.209 231.695 273.943 232.41 274.394 233.301C274.54 233.649 274.615 234.022 274.615 234.399C274.615 234.776 274.54 235.149 274.394 235.496C274.051 236.337 273.52 237.088 272.841 237.691C272.009 238.461 271.114 239.16 270.165 239.779L273.537 241.733L270.861 243.339L267.434 241.359C265.625 242.27 263.756 243.057 261.84 243.714C259.957 244.377 258.035 244.922 256.085 245.347L254.238 240.877C255.201 240.689 256.165 240.475 257.182 240.208C258.199 239.94 258.976 239.726 260.02 239.378C261.038 239.071 262.031 238.686 262.991 238.227L260.368 236.888C259.484 237.236 258.601 237.557 257.691 237.852C256.272 238.307 255.014 238.682 253.863 238.949C252.832 239.18 251.785 239.332 250.731 239.404C249.833 239.449 248.934 239.377 248.054 239.19C247.245 239.008 246.468 238.701 245.752 238.28C244.904 237.858 244.197 237.198 243.718 236.38C243.366 235.724 243.271 234.961 243.45 234.238C243.658 233.4 244.072 232.627 244.655 231.99C245.377 231.162 246.205 230.433 247.117 229.822L244.441 228.189L247.117 226.556L249.955 228.215C250.811 227.814 251.668 227.439 252.632 227.091C253.595 226.743 254.372 226.449 255.308 226.181L257.798 225.458L260.02 224.87L261.465 229.179ZM251.989 233.676C252.312 233.838 252.674 233.903 253.033 233.864C253.561 233.813 254.081 233.706 254.586 233.542L252.337 232.311C251.614 232.9 251.454 233.355 251.989 233.676ZM265.373 235.925C265.035 235.751 264.649 235.694 264.276 235.764C263.713 235.829 263.157 235.945 262.616 236.112L264.704 237.317C265.095 237.159 265.444 236.912 265.721 236.594C265.771 236.538 265.805 236.469 265.818 236.396C265.831 236.322 265.824 236.246 265.796 236.176C265.768 236.106 265.721 236.046 265.661 236.001C265.6 235.957 265.528 235.93 265.453 235.925H265.373Z" fill="url(#paint46_radial_1798:147)"/>
<path d="M300.948 221.631H217.111V233.462C217.111 233.462 217.111 233.703 217.111 233.81C217.111 247.194 235.848 258.222 259.029 258.222C282.21 258.222 300.948 247.301 300.948 233.917V233.569V221.631Z" fill="url(#paint47_linear_1798:147)"/>
<g style="mix-blend-mode:multiply">
<g style="mix-blend-mode:multiply">
<path d="M259.029 255.599C235.901 255.599 217.11 244.624 217.11 231.24V233.516C217.11 233.516 217.11 233.757 217.11 233.864C217.11 247.248 235.848 258.276 259.029 258.276C282.21 258.276 300.947 247.301 300.947 233.917V233.569V231.24C300.947 244.624 282.183 255.599 259.029 255.599Z" fill="#FFC9B8"/>
</g>
</g>
<path d="M259.029 246.23C282.18 246.23 300.948 235.301 300.948 221.818C300.948 208.336 282.18 197.406 259.029 197.406C235.878 197.406 217.111 208.336 217.111 221.818C217.111 235.301 235.878 246.23 259.029 246.23Z" fill="#F7EEE5"/>
<path style="mix-blend-mode:screen" d="M259.029 245.561C236.384 245.561 217.967 235.095 217.191 222.005C217.191 222.3 217.191 222.567 217.191 222.862C217.191 236.246 235.928 247.274 259.109 247.274C282.29 247.274 301.028 236.326 301.028 222.862C301.028 222.567 301.028 222.3 301.028 222.005C300.118 235.095 281.782 245.561 259.029 245.561Z" fill="url(#paint48_radial_1798:147)"/>
<path d="M290.374 221.818C290.374 231.883 276.347 240.047 259.029 240.047C241.71 240.047 227.71 231.883 227.71 221.818C227.71 211.753 241.63 203.562 259.029 203.562C276.428 203.562 290.374 211.726 290.374 221.818Z" fill="#FFD9B3"/>
<path style="mix-blend-mode:screen" d="M217.07 204.887C233.827 204.887 247.452 212.543 248.335 222.153C248.335 221.831 248.335 221.51 248.335 221.189C248.335 211.098 234.309 202.933 216.99 202.933C199.671 202.933 185.672 210.964 185.672 221.189C185.672 221.51 185.672 221.831 185.672 222.153C186.716 212.543 200.34 204.887 217.07 204.887Z" fill="url(#paint49_radial_1798:147)"/>
<path style="mix-blend-mode:multiply" d="M259.029 205.516C275.786 205.516 289.411 213.172 290.294 222.782C290.294 222.46 290.294 222.139 290.294 221.818C290.294 211.726 276.268 203.562 258.949 203.562C241.63 203.562 227.63 211.593 227.63 221.818C227.63 222.139 227.63 222.46 227.63 222.782C228.674 213.172 242.299 205.516 259.029 205.516Z" fill="url(#paint50_linear_1798:147)"/>
<path style="mix-blend-mode:multiply" d="M270.111 218.204L281.969 220.346C283.95 220.721 284.378 222.22 282.692 223.023L272.6 227.145C271.904 227.413 271.53 227.868 271.53 228.323L271.744 235.496C271.744 236.701 269.415 237.397 267.729 236.674L257.691 232.258C256.962 231.957 256.16 231.883 255.389 232.043L243.664 234.319C241.683 234.693 239.81 233.623 240.479 232.472L244.414 225.699C244.479 225.59 244.521 225.468 244.538 225.341C244.554 225.214 244.545 225.085 244.51 224.963C244.475 224.84 244.415 224.725 244.334 224.627C244.253 224.528 244.152 224.446 244.039 224.388L236.598 218.633C235.339 217.669 236.597 216.304 238.632 216.304H251.025C251.761 216.329 252.485 216.113 253.087 215.688L260.367 209.987C261.041 209.526 261.855 209.316 262.667 209.394C263.479 209.473 264.238 209.834 264.811 210.415L268.398 217.241C268.592 217.521 268.847 217.753 269.143 217.92C269.44 218.087 269.771 218.184 270.111 218.204Z" fill="url(#paint51_linear_1798:147)"/>
<path d="M270.111 216.866L281.969 219.008C283.95 219.382 284.378 220.881 282.692 221.684L272.6 225.807C271.904 226.074 271.53 226.529 271.53 226.984L271.744 234.158C271.744 235.363 269.415 236.059 267.729 235.336L257.691 230.919C256.962 230.619 256.16 230.544 255.389 230.705L243.664 232.98C241.683 233.355 239.81 232.284 240.479 231.133L244.414 224.361C244.479 224.251 244.521 224.129 244.538 224.003C244.554 223.876 244.545 223.747 244.51 223.624C244.475 223.502 244.415 223.387 244.334 223.288C244.253 223.189 244.152 223.108 244.039 223.049L236.598 217.294C235.339 216.331 236.597 214.966 238.632 214.966H251.025C251.761 214.991 252.485 214.775 253.087 214.35L260.367 208.648C261.041 208.187 261.855 207.978 262.667 208.056C263.479 208.134 264.238 208.496 264.811 209.077L268.398 215.902C268.592 216.182 268.847 216.414 269.143 216.581C269.44 216.748 269.771 216.846 270.111 216.866Z" fill="url(#paint52_linear_1798:147)"/>
<path d="M270.111 216.866L281.969 219.008C283.95 219.382 284.378 220.881 282.692 221.684L272.6 225.807C271.904 226.074 271.53 226.529 271.53 226.984L271.744 234.158C271.744 235.363 269.415 236.059 267.729 235.336L257.691 230.919C256.962 230.619 256.16 230.544 255.389 230.705L243.664 232.98C241.683 233.355 239.81 232.284 240.479 231.133L244.414 224.361C244.479 224.251 244.521 224.129 244.538 224.003C244.554 223.876 244.545 223.747 244.51 223.624C244.475 223.502 244.415 223.387 244.334 223.288C244.253 223.189 244.152 223.108 244.039 223.049L236.598 217.294C235.339 216.331 236.597 214.966 238.632 214.966H251.025C251.761 214.991 252.485 214.775 253.087 214.35L260.367 208.648C261.041 208.187 261.855 207.978 262.667 208.056C263.479 208.134 264.238 208.496 264.811 209.077L268.398 215.902C268.592 216.182 268.847 216.414 269.143 216.581C269.44 216.748 269.771 216.846 270.111 216.866Z" fill="white"/>
<path d="M343.348 292.807H259.618V304.611C259.618 304.611 259.618 304.852 259.618 304.959C259.618 318.343 278.356 329.372 301.537 329.372C324.718 329.372 343.348 318.557 343.348 305.066C343.348 305.066 343.348 304.852 343.348 304.718V292.807Z" fill="url(#paint53_linear_1798:147)"/>
<g style="mix-blend-mode:multiply">
<g style="mix-blend-mode:multiply">
<path d="M301.537 326.855C278.383 326.855 259.619 315.934 259.619 302.443V304.718C259.619 304.718 259.619 304.959 259.619 305.066C259.619 318.45 278.356 329.479 301.537 329.479C324.718 329.479 343.349 318.557 343.349 305.066C343.349 305.066 343.349 304.852 343.349 304.718V302.443C343.349 315.934 324.611 326.855 301.537 326.855Z" fill="#FFC9B8"/>
</g>
</g>
<g opacity="0.15">
<path opacity="0.15" d="M301.537 331.54C278.383 331.54 259.619 320.618 259.619 307.127V309.403C259.619 309.403 259.619 312.32 259.619 312.427C259.619 325.811 278.356 336.84 301.537 336.84C324.718 336.84 343.349 325.919 343.349 312.427C343.349 312.427 343.349 312.213 343.349 312.08V307.127C343.349 320.618 324.611 331.54 301.537 331.54Z" fill="url(#paint54_linear_1798:147)"/>
</g>
<path d="M301.537 317.487C324.688 317.487 343.455 306.557 343.455 293.074C343.455 279.592 324.688 268.662 301.537 268.662C278.386 268.662 259.618 279.592 259.618 293.074C259.618 306.557 278.386 317.487 301.537 317.487Z" fill="#F7EEE5"/>
<path style="mix-blend-mode:screen" d="M301.536 316.898C278.891 316.898 260.474 306.432 259.698 293.342C259.698 293.637 259.698 293.904 259.698 294.199C259.698 307.583 278.436 318.611 301.617 318.611C324.798 318.611 343.348 307.609 343.348 294.118C343.348 293.824 343.348 293.556 343.348 293.262C342.598 306.351 324.182 316.898 301.536 316.898Z" fill="url(#paint55_radial_1798:147)"/>
<path d="M332.882 293.074C332.882 303.139 318.829 311.33 301.537 311.33C284.245 311.33 270.192 303.139 270.192 293.074C270.192 283.01 284.245 274.819 301.537 274.819C318.829 274.819 332.882 282.983 332.882 293.074Z" fill="#FFD9B3"/>
<path style="mix-blend-mode:screen" d="M302.58 275.729C319.31 275.729 332.962 283.384 333.818 292.994C333.818 292.673 333.818 292.352 333.818 292.03C333.818 281.939 319.765 273.775 302.473 273.775C285.181 273.775 271.128 281.805 271.128 292.03C271.128 292.352 271.128 292.673 271.128 292.994C272.199 283.384 285.85 275.729 302.58 275.729Z" fill="url(#paint56_radial_1798:147)"/>
<path style="mix-blend-mode:multiply" d="M301.537 276.746C318.267 276.746 331.918 284.401 332.775 294.011C332.775 293.69 332.775 293.369 332.775 293.047C332.775 282.956 318.722 274.792 301.43 274.792C284.138 274.792 270.084 282.822 270.084 293.047C270.058 293.368 270.058 293.69 270.084 294.011C271.075 284.428 284.807 276.746 301.537 276.746Z" fill="url(#paint57_linear_1798:147)"/>
<path style="mix-blend-mode:multiply" d="M276.696 297.25L296.611 308.733L298.512 307.636L278.597 296.126L276.696 297.25ZM326.859 295.912C326.171 295.561 325.41 295.379 324.637 295.379C323.865 295.379 323.104 295.561 322.416 295.912C321.532 296.42 321.291 297.17 321.693 297.812L302.554 299.151L309.353 290.853C310.606 291.265 311.971 291.169 313.154 290.585C314.385 289.862 314.385 288.711 313.154 287.908C312.461 287.558 311.695 287.375 310.919 287.375C310.142 287.375 309.377 287.558 308.684 287.908C307.667 288.497 307.533 289.407 308.202 290.103L293.346 293.743L295.675 282.742C296.81 283.022 298.009 282.879 299.047 282.34C300.279 281.644 300.252 280.493 299.047 279.664C298.361 279.307 297.599 279.121 296.826 279.121C296.052 279.121 295.29 279.307 294.604 279.664C293.372 280.359 293.372 281.511 294.604 282.34L280.015 295.082L300.064 306.646L322.121 298.214H322.309C323.002 298.564 323.767 298.747 324.544 298.747C325.32 298.747 326.086 298.564 326.779 298.214C328.117 297.759 328.117 296.608 326.859 295.912Z" fill="url(#paint58_linear_1798:147)"/>
<path d="M276.696 296.126L296.611 307.609L298.512 306.512L278.597 295.001L276.696 296.126ZM326.859 294.787C326.171 294.437 325.41 294.254 324.637 294.254C323.865 294.254 323.104 294.437 322.416 294.787C321.532 295.296 321.291 296.045 321.693 296.688L302.554 298.026L309.353 289.728C310.606 290.14 311.971 290.044 313.154 289.46C314.385 288.738 314.385 287.587 313.154 286.784C312.461 286.433 311.695 286.25 310.919 286.25C310.142 286.25 309.377 286.433 308.684 286.784C307.667 287.372 307.533 288.283 308.202 288.979L293.346 292.806L295.675 281.805C296.81 282.085 298.009 281.942 299.047 281.403C300.279 280.707 300.252 279.556 299.047 278.726C298.361 278.37 297.599 278.184 296.826 278.184C296.052 278.184 295.29 278.37 294.604 278.726C293.372 279.422 293.372 280.573 294.604 281.403L280.015 294.145L300.064 305.708L322.121 297.277H322.309C323.002 297.627 323.767 297.81 324.544 297.81C325.32 297.81 326.086 297.627 326.779 297.277C328.117 296.634 328.117 295.483 326.859 294.787Z" fill="url(#paint59_linear_1798:147)"/>
<path d="M276.696 296.126L296.611 307.609L298.512 306.512L278.597 295.001L276.696 296.126ZM326.859 294.787C326.171 294.437 325.41 294.254 324.637 294.254C323.865 294.254 323.104 294.437 322.416 294.787C321.532 295.296 321.291 296.045 321.693 296.688L302.554 298.026L309.353 289.728C310.606 290.14 311.971 290.044 313.154 289.46C314.385 288.738 314.385 287.587 313.154 286.784C312.461 286.433 311.695 286.25 310.919 286.25C310.142 286.25 309.377 286.433 308.684 286.784C307.667 287.372 307.533 288.283 308.202 288.979L293.346 292.806L295.675 281.805C296.81 282.085 298.009 281.942 299.047 281.403C300.279 280.707 300.252 279.556 299.047 278.726C298.361 278.37 297.599 278.184 296.826 278.184C296.052 278.184 295.29 278.37 294.604 278.726C293.372 279.422 293.372 280.573 294.604 281.403L280.015 294.145L300.064 305.708L322.121 297.277H322.309C323.002 297.627 323.767 297.81 324.544 297.81C325.32 297.81 326.086 297.627 326.779 297.277C328.117 296.634 328.117 295.483 326.859 294.787Z" fill="white"/>
<path d="M185.631 256.893V248.14L170.106 251.86L153.108 248.809C152.325 248.73 151.567 248.486 150.884 248.094C150.202 247.702 149.609 247.17 149.146 246.534L140.259 230.178C138.787 227.502 132.524 226.859 129.552 229.188L112.688 243.134C111.242 244.147 109.501 244.655 107.736 244.579L78.1579 244.392H77.9973L72.0013 238.396V247.524C71.9729 247.974 72.0675 248.424 72.275 248.825C72.4824 249.226 72.7949 249.562 73.179 249.799L90.9797 263.558C91.5085 263.866 91.8965 264.369 92.0614 264.958C92.2263 265.548 92.1551 266.178 91.863 266.717L86.5095 275.844L82.1195 275.122V283.607C82.0661 283.881 82.0661 284.163 82.1195 284.437V284.544C82.7084 286.498 86.2418 287.943 89.9358 287.221L118.31 281.867C120.109 281.538 121.965 281.724 123.663 282.403L147.46 292.574C151.448 294.287 157.096 292.574 157.016 289.898L156.534 272.793C156.534 271.669 157.444 270.598 159.051 269.929L183.142 260.105C185.23 259.275 185.845 258.044 185.631 256.893Z" fill="#F7EEE5"/>
<g style="mix-blend-mode:multiply">
<path d="M147.46 290.781L123.664 280.529C121.966 279.846 120.106 279.669 118.31 280.02L90.284 285.374C86.5901 286.097 83.0567 284.624 82.4678 282.697V283.527C82.4144 283.801 82.4144 284.083 82.4678 284.357V284.544C83.0567 286.498 86.5901 287.944 90.284 287.221L118.31 281.867C120.109 281.538 121.965 281.724 123.664 282.403L147.46 292.574C151.449 294.288 157.097 292.574 157.016 289.898V288.265C156.776 290.942 151.342 292.574 147.46 290.781Z" fill="#FFD9B3"/>
</g>
<g style="mix-blend-mode:multiply">
<path d="M92.0238 264.709C92.2699 264.183 92.3102 263.583 92.1368 263.028C91.9635 262.474 91.589 262.004 91.0869 261.711L73.2862 247.979C72.9114 247.726 72.6069 247.382 72.4009 246.98C72.195 246.577 72.0943 246.129 72.1084 245.677V247.524C72.0801 247.974 72.1747 248.424 72.3822 248.825C72.5896 249.226 72.9021 249.562 73.2862 249.799L91.0869 263.558C91.4884 263.86 91.81 264.255 92.0238 264.709Z" fill="#FFD9B3"/>
</g>
<g style="mix-blend-mode:multiply">
<path d="M183.168 258.204L159.077 268.028C157.471 268.697 156.534 269.768 156.561 270.892V272.499C156.561 271.455 157.525 270.491 159.024 269.822L183.115 259.998C185.042 259.222 185.792 257.99 185.578 256.839V255.099C185.845 256.224 185.23 257.428 183.168 258.204Z" fill="#FFD9B3"/>
</g>
<path d="M153.108 239.788L181.402 244.901C186.14 245.757 187.157 249.371 183.115 251.031L159.024 260.854C157.418 261.497 156.481 262.568 156.508 263.719L156.99 280.797C156.99 283.661 151.422 285.32 147.434 283.607L123.664 273.328C121.96 272.671 120.108 272.495 118.31 272.82L90.2842 278.173C85.5998 279.083 81.1028 276.487 82.6821 273.783L92.1044 257.723C92.3978 257.181 92.4698 256.546 92.3051 255.952C92.1403 255.358 91.7518 254.851 91.221 254.537L73.4204 240.805C70.4491 238.503 73.4204 235.264 78.2654 235.291L107.871 235.559C109.638 235.653 111.384 235.144 112.823 234.113L129.713 220.301C132.577 217.972 138.841 218.561 140.42 221.292L149.307 237.62C149.759 238.222 150.33 238.724 150.984 239.097C151.637 239.47 152.36 239.705 153.108 239.788Z" fill="#FFBC97"/>
<defs>
<filter id="filter0_d_1798:147" x="186.109" y="0.948853" width="205.57" height="285.61" filterUnits="userSpaceOnUse" color-interpolation-filters="sRGB">
<feFlood flood-opacity="0" result="BackgroundImageFix"/>
<feColorMatrix in="SourceAlpha" type="matrix" values="0 0 0 0 0 0 0 0 0 0 0 0 0 0 0 0 0 0 127 0" result="hardAlpha"/>
<feOffset dy="165"/>
<feGaussianBlur stdDeviation="14"/>
<feComposite in2="hardAlpha" operator="out"/>
<feColorMatrix type="matrix" values="0 0 0 0 0 0 0 0 0 0 0 0 0 0 0 0 0 0 0.08 0"/>
<feBlend mode="normal" in2="BackgroundImageFix" result="effect1_dropShadow_1798:147"/>
<feBlend mode="normal" in="SourceGraphic" in2="effect1_dropShadow_1798:147" result="shape"/>
</filter>
<filter id="filter1_d_1798:147" x="291.455" y="102.404" width="209.481" height="246.246" filterUnits="userSpaceOnUse" color-interpolation-filters="sRGB">
<feFlood flood-opacity="0" result="BackgroundImageFix"/>
<feColorMatrix in="SourceAlpha" type="matrix" values="0 0 0 0 0 0 0 0 0 0 0 0 0 0 0 0 0 0 127 0" result="hardAlpha"/>
<feOffset dy="125"/>
<feGaussianBlur stdDeviation="14"/>
<feComposite in2="hardAlpha" operator="out"/>
<feColorMatrix type="matrix" values="0 0 0 0 0 0 0 0 0 0 0 0 0 0 0 0 0 0 0.08 0"/>
<feBlend mode="normal" in2="BackgroundImageFix" result="effect1_dropShadow_1798:147"/>
<feBlend mode="normal" in="SourceGraphic" in2="effect1_dropShadow_1798:147" result="shape"/>
</filter>
<filter id="filter2_d_1798:147" x="0" y="175.249" width="426.164" height="291.744" filterUnits="userSpaceOnUse" color-interpolation-filters="sRGB">
<feFlood flood-opacity="0" result="BackgroundImageFix"/>
<feColorMatrix in="SourceAlpha" type="matrix" values="0 0 0 0 0 0 0 0 0 0 0 0 0 0 0 0 0 0 127 0" result="hardAlpha"/>
<feOffset dy="50"/>
<feGaussianBlur stdDeviation="14"/>
<feComposite in2="hardAlpha" operator="out"/>
<feColorMatrix type="matrix" values="0 0 0 0 0 0 0 0 0 0 0 0 0 0 0 0 0 0 0.08 0"/>
<feBlend mode="normal" in2="BackgroundImageFix" result="effect1_dropShadow_1798:147"/>
<feBlend mode="normal" in="SourceGraphic" in2="effect1_dropShadow_1798:147" result="shape"/>
</filter>
<linearGradient id="paint0_linear_1798:147" x1="332.726" y1="69.1009" x2="335.964" y2="181.172" gradientUnits="userSpaceOnUse">
<stop stop-color="#FF8E6C"/>
<stop offset="1" stop-color="#FE5826"/>
</linearGradient>
<linearGradient id="paint1_linear_1798:147" x1="246.86" y1="51.7751" x2="246.86" y2="185.913" gradientUnits="userSpaceOnUse">
<stop stop-color="#FF8E6C"/>
<stop offset="1" stop-color="#FE5826"/>
</linearGradient>
<linearGradient id="paint2_linear_1798:147" x1="298.255" y1="46.9122" x2="326.232" y2="8.14961" gradientUnits="userSpaceOnUse">
<stop offset="0.04" stop-color="#40ABAE"/>
<stop offset="0.53" stop-color="#62E0E3"/>
<stop offset="0.63" stop-color="#62E0E3"/>
<stop offset="0.87" stop-color="#40ABAE"/>
</linearGradient>
<radialGradient id="paint3_radial_1798:147" cx="0" cy="0" r="1" gradientUnits="userSpaceOnUse" gradientTransform="translate(6983.7 596.537) rotate(-0.55) scale(167.24 142.273)">
<stop stop-color="white"/>
<stop offset="1"/>
</radialGradient>
<linearGradient id="paint4_linear_1798:147" x1="257.842" y1="47.7014" x2="285.358" y2="8.86375" gradientUnits="userSpaceOnUse">
<stop offset="0.04" stop-color="#40ABAE"/>
<stop offset="0.53" stop-color="#62E0E3"/>
<stop offset="0.63" stop-color="#62E0E3"/>
<stop offset="0.87" stop-color="#40ABAE"/>
</linearGradient>
<radialGradient id="paint5_radial_1798:147" cx="0" cy="0" r="1" gradientUnits="userSpaceOnUse" gradientTransform="translate(-187416 2536.22) rotate(179.427) scale(169.851 139.168)">
<stop stop-color="white"/>
<stop offset="1"/>
</radialGradient>
<linearGradient id="paint6_linear_1798:147" x1="297.041" y1="68.4226" x2="314.852" y2="33.6217" gradientUnits="userSpaceOnUse">
<stop offset="0.04" stop-color="#40ABAE"/>
<stop offset="0.53" stop-color="#62E0E3"/>
<stop offset="0.63" stop-color="#62E0E3"/>
<stop offset="0.87" stop-color="#40ABAE"/>
</linearGradient>
<radialGradient id="paint7_radial_1798:147" cx="0" cy="0" r="1" gradientUnits="userSpaceOnUse" gradientTransform="translate(-213516 2813.69) rotate(179.427) scale(186.743 91.4432)">
<stop stop-color="white"/>
<stop offset="1"/>
</radialGradient>
<linearGradient id="paint8_linear_1798:147" x1="257.649" y1="69.1611" x2="275.829" y2="34.1468" gradientUnits="userSpaceOnUse">
<stop offset="0.04" stop-color="#40ABAE"/>
<stop offset="0.53" stop-color="#62E0E3"/>
<stop offset="0.63" stop-color="#62E0E3"/>
<stop offset="0.87" stop-color="#40ABAE"/>
</linearGradient>
<radialGradient id="paint9_radial_1798:147" cx="0" cy="0" r="1" gradientUnits="userSpaceOnUse" gradientTransform="translate(7160.17 622.967) rotate(-0.55) scale(185.429 94.2018)">
<stop stop-color="white"/>
<stop offset="1"/>
</radialGradient>
<linearGradient id="paint10_linear_1798:147" x1="438.149" y1="174.72" x2="439.873" y2="250.247" gradientUnits="userSpaceOnUse">
<stop stop-color="#55D6DA"/>
<stop offset="1" stop-color="#40ABAE"/>
</linearGradient>
<linearGradient id="paint11_linear_1798:147" x1="355.285" y1="175.697" x2="355.285" y2="250.572" gradientUnits="userSpaceOnUse">
<stop stop-color="#55D6DA"/>
<stop offset="1" stop-color="#40ABAE"/>
</linearGradient>
<linearGradient id="paint12_linear_1798:147" x1="405.531" y1="148.661" x2="433.507" y2="109.899" gradientUnits="userSpaceOnUse">
<stop offset="0.04" stop-color="#FE5826"/>
<stop offset="0.482292" stop-color="#FFAE96"/>
<stop offset="0.841667" stop-color="#FE5826"/>
</linearGradient>
<radialGradient id="paint13_radial_1798:147" cx="0" cy="0" r="1" gradientUnits="userSpaceOnUse" gradientTransform="translate(6057.85 1613.64) rotate(-0.55) scale(167.24 142.27)">
<stop stop-color="white"/>
<stop offset="1"/>
</radialGradient>
<linearGradient id="paint14_linear_1798:147" x1="361.153" y1="117.895" x2="387.133" y2="143.409" gradientUnits="userSpaceOnUse">
<stop offset="0.04" stop-color="#FE5826"/>
<stop offset="0.482292" stop-color="#FFAE96"/>
<stop offset="0.841667" stop-color="#FE5826"/>
</linearGradient>
<radialGradient id="paint15_radial_1798:147" cx="0" cy="0" r="1" gradientUnits="userSpaceOnUse" gradientTransform="translate(-187989 3535.74) rotate(179.427) scale(169.706 139.172)">
<stop stop-color="white"/>
<stop offset="1"/>
</radialGradient>
<linearGradient id="paint16_linear_1798:147" x1="422.347" y1="137.735" x2="440.38" y2="161.53" gradientUnits="userSpaceOnUse">
<stop offset="0.04" stop-color="#FE5826"/>
<stop offset="0.482292" stop-color="#FFAE96"/>
<stop offset="0.841667" stop-color="#FE5826"/>
</linearGradient>
<radialGradient id="paint17_radial_1798:147" cx="0" cy="0" r="1" gradientUnits="userSpaceOnUse" gradientTransform="translate(-214473 3525.72) rotate(179.427) scale(186.785 91.5011)">
<stop stop-color="white"/>
<stop offset="1"/>
</radialGradient>
<linearGradient id="paint18_linear_1798:147" x1="364.935" y1="170.864" x2="383.056" y2="135.899" gradientUnits="userSpaceOnUse">
<stop offset="0.04" stop-color="#FE5826"/>
<stop offset="0.482292" stop-color="#FFAE96"/>
<stop offset="0.841667" stop-color="#FE5826"/>
</linearGradient>
<radialGradient id="paint19_radial_1798:147" cx="0" cy="0" r="1" gradientUnits="userSpaceOnUse" gradientTransform="translate(6085.13 1352.84) rotate(-0.550001) scale(185.43 94.1984)">
<stop stop-color="white"/>
<stop offset="1"/>
</radialGradient>
<linearGradient id="paint20_linear_1798:147" x1="261.138" y1="404.029" x2="230.437" y2="115.279" gradientUnits="userSpaceOnUse">
<stop offset="0.03" stop-color="#FFDBB0"/>
<stop offset="1" stop-color="#F7EEE5"/>
</linearGradient>
<radialGradient id="paint21_radial_1798:147" cx="0" cy="0" r="1" gradientUnits="userSpaceOnUse" gradientTransform="translate(213.13 322.016) rotate(180) scale(139.201)">
<stop stop-color="white"/>
<stop offset="1"/>
</radialGradient>
<linearGradient id="paint22_linear_1798:147" x1="7003.62" y1="3744.05" x2="9588.31" y2="3744.05" gradientUnits="userSpaceOnUse">
<stop stop-color="#FFBB96"/>
<stop offset="0.23" stop-color="#FFFBC9"/>
<stop offset="0.54" stop-color="#F9B673"/>
<stop offset="0.64" stop-color="#F9B876"/>
<stop offset="0.72" stop-color="#FABE81"/>
<stop offset="0.81" stop-color="#FCC993"/>
<stop offset="0.86" stop-color="#FED2A3"/>
<stop offset="0.97" stop-color="#FFC28C"/>
</linearGradient>
<linearGradient id="paint23_linear_1798:147" x1="7007.08" y1="4382.71" x2="9591.78" y2="4382.71" gradientUnits="userSpaceOnUse">
<stop stop-color="#FFBB96"/>
<stop offset="0.23" stop-color="#FFFBC9"/>
<stop offset="0.54" stop-color="#F9B673"/>
<stop offset="0.64" stop-color="#F9B876"/>
<stop offset="0.72" stop-color="#FABE81"/>
<stop offset="0.81" stop-color="#FCC993"/>
<stop offset="0.86" stop-color="#FED2A3"/>
<stop offset="0.97" stop-color="#FFC28C"/>
</linearGradient>
<linearGradient id="paint24_linear_1798:147" x1="7063.69" y1="3646.7" x2="6339.27" y2="4898.51" gradientUnits="userSpaceOnUse">
<stop offset="0.04" stop-color="#FFBA78"/>
<stop offset="0.4" stop-color="#FFC987"/>
<stop offset="1" stop-color="#FEECA8"/>
</linearGradient>
<radialGradient id="paint25_radial_1798:147" cx="0" cy="0" r="1" gradientUnits="userSpaceOnUse" gradientTransform="translate(6621 2135.78) scale(542.667 166.44)">
<stop stop-color="white"/>
<stop offset="1"/>
</radialGradient>
<linearGradient id="paint26_linear_1798:147" x1="7327.43" y1="1940.97" x2="7095.8" y2="2701.07" gradientUnits="userSpaceOnUse">
<stop stop-color="#FFBB96"/>
<stop offset="0.23" stop-color="#FFFBC9"/>
<stop offset="0.54" stop-color="#F9B673"/>
<stop offset="0.64" stop-color="#F9B876"/>
<stop offset="0.72" stop-color="#FABE81"/>
<stop offset="0.81" stop-color="#FCC993"/>
<stop offset="0.86" stop-color="#FED2A3"/>
<stop offset="0.97" stop-color="#FFC28C"/>
</linearGradient>
<radialGradient id="paint27_radial_1798:147" cx="0" cy="0" r="1" gradientUnits="userSpaceOnUse" gradientTransform="translate(261.995 268.87) rotate(-70.3462) scale(8.84208 18.2443)">
<stop stop-color="#F49587"/>
<stop offset="0.12" stop-color="#BD7368"/>
<stop offset="0.24" stop-color="#8B554D"/>
<stop offset="0.36" stop-color="#603B35"/>
<stop offset="0.48" stop-color="#3E2622"/>
<stop offset="0.61" stop-color="#231513"/>
<stop offset="0.74" stop-color="#0F0908"/>
<stop offset="0.86" stop-color="#040202"/>
<stop offset="1"/>
</radialGradient>
<linearGradient id="paint28_linear_1798:147" x1="3062.45" y1="2431.92" x2="3425.32" y2="2431.92" gradientUnits="userSpaceOnUse">
<stop stop-color="#FFBB96"/>
<stop offset="0.23" stop-color="#FFFBC9"/>
<stop offset="0.54" stop-color="#F9B673"/>
<stop offset="0.64" stop-color="#F9B876"/>
<stop offset="0.72" stop-color="#FABE81"/>
<stop offset="0.81" stop-color="#FCC993"/>
<stop offset="0.86" stop-color="#FED2A3"/>
<stop offset="0.97" stop-color="#FFC28C"/>
</linearGradient>
<linearGradient id="paint29_linear_1798:147" x1="3613.78" y1="2303.82" x2="3373.77" y2="2501.76" gradientUnits="userSpaceOnUse">
<stop offset="0.04" stop-color="#FFBA78"/>
<stop offset="0.4" stop-color="#FFC987"/>
<stop offset="1" stop-color="#FEECA8"/>
</linearGradient>
<radialGradient id="paint30_radial_1798:147" cx="0" cy="0" r="1" gradientUnits="userSpaceOnUse" gradientTransform="translate(3007.34 2450.13) scale(326.016 215.741)">
<stop stop-color="#F49587"/>
<stop offset="0.12" stop-color="#BD7368"/>
<stop offset="0.24" stop-color="#8B554D"/>
<stop offset="0.36" stop-color="#603B35"/>
<stop offset="0.48" stop-color="#3E2622"/>
<stop offset="0.61" stop-color="#231513"/>
<stop offset="0.74" stop-color="#0F0908"/>
<stop offset="0.86" stop-color="#040202"/>
<stop offset="1"/>
</radialGradient>
<linearGradient id="paint31_linear_1798:147" x1="7007.08" y1="4188.85" x2="9591.78" y2="4188.85" gradientUnits="userSpaceOnUse">
<stop stop-color="#FFBB96"/>
<stop offset="0.23" stop-color="#FFFBC9"/>
<stop offset="0.54" stop-color="#F9B673"/>
<stop offset="0.64" stop-color="#F9B876"/>
<stop offset="0.72" stop-color="#FABE81"/>
<stop offset="0.81" stop-color="#FCC993"/>
<stop offset="0.86" stop-color="#FED2A3"/>
<stop offset="0.97" stop-color="#FFC28C"/>
</linearGradient>
<linearGradient id="paint32_linear_1798:147" x1="7063.69" y1="3462.69" x2="6336.09" y2="4716.33" gradientUnits="userSpaceOnUse">
<stop offset="0.04" stop-color="#FFBA78"/>
<stop offset="0.4" stop-color="#FFC987"/>
<stop offset="1" stop-color="#FEECA8"/>
</linearGradient>
<radialGradient id="paint33_radial_1798:147" cx="0" cy="0" r="1" gradientUnits="userSpaceOnUse" gradientTransform="translate(6621 2027.42) scale(542.667 166.44)">
<stop stop-color="white"/>
<stop offset="1"/>
</radialGradient>
<linearGradient id="paint34_linear_1798:147" x1="7327.43" y1="1832.81" x2="7095.71" y2="2592.84" gradientUnits="userSpaceOnUse">
<stop stop-color="#FFBB96"/>
<stop offset="0.23" stop-color="#FFFBC9"/>
<stop offset="0.54" stop-color="#F9B673"/>
<stop offset="0.64" stop-color="#F9B876"/>
<stop offset="0.72" stop-color="#FABE81"/>
<stop offset="0.81" stop-color="#FCC993"/>
<stop offset="0.86" stop-color="#FED2A3"/>
<stop offset="0.97" stop-color="#FFC28C"/>
</linearGradient>
<radialGradient id="paint35_radial_1798:147" cx="0" cy="0" r="1" gradientUnits="userSpaceOnUse" gradientTransform="translate(522108 -190340) scale(768.635 454.793)">
<stop stop-color="#F49587"/>
<stop offset="0.12" stop-color="#BD7368"/>
<stop offset="0.24" stop-color="#8B554D"/>
<stop offset="0.36" stop-color="#603B35"/>
<stop offset="0.48" stop-color="#3E2622"/>
<stop offset="0.61" stop-color="#231513"/>
<stop offset="0.74" stop-color="#0F0908"/>
<stop offset="0.86" stop-color="#040202"/>
<stop offset="1"/>
</radialGradient>
<linearGradient id="paint36_linear_1798:147" x1="3062.53" y1="2317.03" x2="3425.4" y2="2317.03" gradientUnits="userSpaceOnUse">
<stop stop-color="#FFBB96"/>
<stop offset="0.23" stop-color="#FFFBC9"/>
<stop offset="0.54" stop-color="#F9B673"/>
<stop offset="0.64" stop-color="#F9B876"/>
<stop offset="0.72" stop-color="#FABE81"/>
<stop offset="0.81" stop-color="#FCC993"/>
<stop offset="0.86" stop-color="#FED2A3"/>
<stop offset="0.97" stop-color="#FFC28C"/>
</linearGradient>
<linearGradient id="paint37_linear_1798:147" x1="3613.84" y1="2178.39" x2="3374.84" y2="2376.52" gradientUnits="userSpaceOnUse">
<stop offset="0.04" stop-color="#FFBA78"/>
<stop offset="0.4" stop-color="#FFC987"/>
<stop offset="1" stop-color="#FEECA8"/>
</linearGradient>
<radialGradient id="paint38_radial_1798:147" cx="0" cy="0" r="1" gradientUnits="userSpaceOnUse" gradientTransform="translate(3007.39 2323.94) scale(326.022 214.623)">
<stop stop-color="#F49587"/>
<stop offset="0.12" stop-color="#BD7368"/>
<stop offset="0.24" stop-color="#8B554D"/>
<stop offset="0.36" stop-color="#603B35"/>
<stop offset="0.48" stop-color="#3E2622"/>
<stop offset="0.61" stop-color="#231513"/>
<stop offset="0.74" stop-color="#0F0908"/>
<stop offset="0.86" stop-color="#040202"/>
<stop offset="1"/>
</radialGradient>
<linearGradient id="paint39_linear_1798:147" x1="7007.08" y1="3984.8" x2="9591.78" y2="3984.8" gradientUnits="userSpaceOnUse">
<stop stop-color="#FFBB96"/>
<stop offset="0.23" stop-color="#FFFBC9"/>
<stop offset="0.54" stop-color="#F9B673"/>
<stop offset="0.64" stop-color="#F9B876"/>
<stop offset="0.72" stop-color="#FABE81"/>
<stop offset="0.81" stop-color="#FCC993"/>
<stop offset="0.86" stop-color="#FED2A3"/>
<stop offset="0.97" stop-color="#FFC28C"/>
</linearGradient>
<linearGradient id="paint40_linear_1798:147" x1="7063.69" y1="3251.8" x2="6338.48" y2="4504.07" gradientUnits="userSpaceOnUse">
<stop offset="0.04" stop-color="#FFBA78"/>
<stop offset="0.4" stop-color="#FFC987"/>
<stop offset="1" stop-color="#FEECA8"/>
</linearGradient>
<radialGradient id="paint41_radial_1798:147" cx="0" cy="0" r="1" gradientUnits="userSpaceOnUse" gradientTransform="translate(6621 1915.89) scale(542.667 166.671)">
<stop stop-color="white"/>
<stop offset="1"/>
</radialGradient>
<linearGradient id="paint42_linear_1798:147" x1="7318.41" y1="1721.01" x2="7085.86" y2="2481.75" gradientUnits="userSpaceOnUse">
<stop stop-color="#FFBB96"/>
<stop offset="0.23" stop-color="#FFFBC9"/>
<stop offset="0.54" stop-color="#F9B673"/>
<stop offset="0.64" stop-color="#F9B876"/>
<stop offset="0.72" stop-color="#FABE81"/>
<stop offset="0.81" stop-color="#FCC993"/>
<stop offset="0.86" stop-color="#FED2A3"/>
<stop offset="0.97" stop-color="#FFC28C"/>
</linearGradient>
<radialGradient id="paint43_radial_1798:147" cx="0" cy="0" r="1" gradientUnits="userSpaceOnUse" gradientTransform="translate(523244 -190942) scale(768.635 455.926)">
<stop stop-color="#F49587"/>
<stop offset="0.12" stop-color="#BD7368"/>
<stop offset="0.24" stop-color="#8B554D"/>
<stop offset="0.36" stop-color="#603B35"/>
<stop offset="0.48" stop-color="#3E2622"/>
<stop offset="0.61" stop-color="#231513"/>
<stop offset="0.74" stop-color="#0F0908"/>
<stop offset="0.86" stop-color="#040202"/>
<stop offset="1"/>
</radialGradient>
<linearGradient id="paint44_linear_1798:147" x1="3076.78" y1="2188.68" x2="3441.5" y2="2188.68" gradientUnits="userSpaceOnUse">
<stop stop-color="#FFBB96"/>
<stop offset="0.23" stop-color="#FFFBC9"/>
<stop offset="0.54" stop-color="#F9B673"/>
<stop offset="0.64" stop-color="#F9B876"/>
<stop offset="0.72" stop-color="#FABE81"/>
<stop offset="0.81" stop-color="#FCC993"/>
<stop offset="0.86" stop-color="#FED2A3"/>
<stop offset="0.97" stop-color="#FFC28C"/>
</linearGradient>
<linearGradient id="paint45_linear_1798:147" x1="3616.52" y1="2050.43" x2="3378.24" y2="2248.9" gradientUnits="userSpaceOnUse">
<stop offset="0.04" stop-color="#FFBA78"/>
<stop offset="0.4" stop-color="#FFC987"/>
<stop offset="1" stop-color="#FEECA8"/>
</linearGradient>
<radialGradient id="paint46_radial_1798:147" cx="0" cy="0" r="1" gradientUnits="userSpaceOnUse" gradientTransform="translate(3009.58 2195.21) scale(326.284 213.784)">
<stop stop-color="#F49587"/>
<stop offset="0.12" stop-color="#BD7368"/>
<stop offset="0.24" stop-color="#8B554D"/>
<stop offset="0.36" stop-color="#603B35"/>
<stop offset="0.48" stop-color="#3E2622"/>
<stop offset="0.61" stop-color="#231513"/>
<stop offset="0.74" stop-color="#0F0908"/>
<stop offset="0.86" stop-color="#040202"/>
<stop offset="1"/>
</radialGradient>
<linearGradient id="paint47_linear_1798:147" x1="7007.08" y1="3779.81" x2="9591.78" y2="3779.81" gradientUnits="userSpaceOnUse">
<stop stop-color="#FFBB96"/>
<stop offset="0.23" stop-color="#FFFBC9"/>
<stop offset="0.54" stop-color="#F9B673"/>
<stop offset="0.64" stop-color="#F9B876"/>
<stop offset="0.72" stop-color="#FABE81"/>
<stop offset="0.81" stop-color="#FCC993"/>
<stop offset="0.86" stop-color="#FED2A3"/>
<stop offset="0.97" stop-color="#FFC28C"/>
</linearGradient>
<radialGradient id="paint48_radial_1798:147" cx="0" cy="0" r="1" gradientUnits="userSpaceOnUse" gradientTransform="translate(7743.25 2677.64) scale(1649.91 497.292)">
<stop stop-color="white"/>
<stop offset="1"/>
</radialGradient>
<radialGradient id="paint49_radial_1798:147" cx="0" cy="0" r="1" gradientUnits="userSpaceOnUse" gradientTransform="translate(6577.99 1798.33) scale(542.667 166.44)">
<stop stop-color="white"/>
<stop offset="1"/>
</radialGradient>
<linearGradient id="paint50_linear_1798:147" x1="7327.43" y1="1603.11" x2="7095.8" y2="2363.21" gradientUnits="userSpaceOnUse">
<stop stop-color="#FFBB96"/>
<stop offset="0.23" stop-color="#FFFBC9"/>
<stop offset="0.54" stop-color="#F9B673"/>
<stop offset="0.64" stop-color="#F9B876"/>
<stop offset="0.72" stop-color="#FABE81"/>
<stop offset="0.81" stop-color="#FCC993"/>
<stop offset="0.86" stop-color="#FED2A3"/>
<stop offset="0.97" stop-color="#FFC28C"/>
</linearGradient>
<linearGradient id="paint51_linear_1798:147" x1="4426.95" y1="2718.9" x2="5273.6" y2="2718.9" gradientUnits="userSpaceOnUse">
<stop stop-color="#FFBB96"/>
<stop offset="0.23" stop-color="#FFFBC9"/>
<stop offset="0.54" stop-color="#F9B673"/>
<stop offset="0.64" stop-color="#F9B876"/>
<stop offset="0.72" stop-color="#FABE81"/>
<stop offset="0.81" stop-color="#FCC993"/>
<stop offset="0.86" stop-color="#FED2A3"/>
<stop offset="0.97" stop-color="#FFC28C"/>
</linearGradient>
<linearGradient id="paint52_linear_1798:147" x1="3993.86" y1="3113.47" x2="4528.37" y2="2318.44" gradientUnits="userSpaceOnUse">
<stop offset="0.04" stop-color="#FFBA78"/>
<stop offset="0.4" stop-color="#FFC987"/>
<stop offset="1" stop-color="#FEECA8"/>
</linearGradient>
<linearGradient id="paint53_linear_1798:147" x1="8370.55" y1="4822.11" x2="10951.1" y2="4822.11" gradientUnits="userSpaceOnUse">
<stop stop-color="#FFBB96"/>
<stop offset="0.23" stop-color="#FFFBC9"/>
<stop offset="0.54" stop-color="#F9B673"/>
<stop offset="0.64" stop-color="#F9B876"/>
<stop offset="0.72" stop-color="#FABE81"/>
<stop offset="0.81" stop-color="#FCC993"/>
<stop offset="0.86" stop-color="#FED2A3"/>
<stop offset="0.97" stop-color="#FFC28C"/>
</linearGradient>
<linearGradient id="paint54_linear_1798:147" x1="8370.55" y1="4107.34" x2="10951.1" y2="4107.34" gradientUnits="userSpaceOnUse">
<stop stop-color="#FFBB96"/>
<stop offset="0.23" stop-color="#FFFBC9"/>
<stop offset="0.54" stop-color="#F9B673"/>
<stop offset="0.64" stop-color="#F9B876"/>
<stop offset="0.72" stop-color="#FABE81"/>
<stop offset="0.81" stop-color="#FCC993"/>
<stop offset="0.86" stop-color="#FED2A3"/>
<stop offset="0.97" stop-color="#FFC28C"/>
</linearGradient>
<radialGradient id="paint55_radial_1798:147" cx="0" cy="0" r="1" gradientUnits="userSpaceOnUse" gradientTransform="translate(9097.29 3431.75) scale(1646.23 498.873)">
<stop stop-color="white"/>
<stop offset="1"/>
</radialGradient>
<radialGradient id="paint56_radial_1798:147" cx="0" cy="0" r="1" gradientUnits="userSpaceOnUse" gradientTransform="translate(7661.71 2380.79) scale(542.899 166.44)">
<stop stop-color="white"/>
<stop offset="1"/>
</radialGradient>
<linearGradient id="paint57_linear_1798:147" x1="8370.97" y1="2186.16" x2="8139.4" y2="2946.29" gradientUnits="userSpaceOnUse">
<stop stop-color="#FFBB96"/>
<stop offset="0.23" stop-color="#FFFBC9"/>
<stop offset="0.54" stop-color="#F9B673"/>
<stop offset="0.64" stop-color="#F9B876"/>
<stop offset="0.72" stop-color="#FABE81"/>
<stop offset="0.81" stop-color="#FCC993"/>
<stop offset="0.86" stop-color="#FED2A3"/>
<stop offset="0.97" stop-color="#FFC28C"/>
</linearGradient>
<linearGradient id="paint58_linear_1798:147" x1="5544.78" y1="3757.14" x2="6520.22" y2="3757.14" gradientUnits="userSpaceOnUse">
<stop stop-color="#FFBB96"/>
<stop offset="0.23" stop-color="#FFFBC9"/>
<stop offset="0.54" stop-color="#F9B673"/>
<stop offset="0.64" stop-color="#F9B876"/>
<stop offset="0.72" stop-color="#FABE81"/>
<stop offset="0.81" stop-color="#FCC993"/>
<stop offset="0.86" stop-color="#FED2A3"/>
<stop offset="0.97" stop-color="#FFC28C"/>
</linearGradient>
<linearGradient id="paint59_linear_1798:147" x1="5420.61" y1="4113.78" x2="5786.97" y2="3474.52" gradientUnits="userSpaceOnUse">
<stop offset="0.04" stop-color="#FFBA78"/>
<stop offset="0.4" stop-color="#FFC987"/>
<stop offset="1" stop-color="#FEECA8"/>
</linearGradient>
</defs>
</svg>
