<svg width="435" height="485" viewBox="0 0 435 485" fill="none" xmlns="http://www.w3.org/2000/svg">
<g opacity="0.2">
<path opacity="0.2" d="M229.656 397.529L30.3173 282.418C22.4445 277.874 23.4286 269.929 32.517 264.69L145.718 199.363C154.821 194.11 168.569 193.574 176.442 198.089L375.824 313.157C383.697 317.701 382.698 325.632 373.61 330.885L260.467 396.212C251.364 401.509 237.558 402.073 229.656 397.529Z" fill="black"/>
</g>
<path d="M229.656 397.341L30.3172 282.23C26.8005 280.204 25.0493 277.512 24.9915 274.676V264.791C24.9915 261.347 27.6109 267.338 32.5169 264.502L145.718 199.175C154.821 193.922 168.569 193.386 176.442 197.901L375.824 313.012C378.443 314.46 380.354 308.092 381.034 310.118C381.265 310.798 381.121 319.843 381.135 320.552C381.207 324.083 378.66 327.788 373.61 330.683L260.467 396.01C251.364 401.321 237.557 401.885 229.656 397.341Z" fill="url(#paint0_linear_1798:413)"/>
<path d="M229.656 387.645L30.3173 272.548C22.4445 267.99 23.4286 260.059 32.517 254.806L145.718 189.479C154.821 184.225 168.569 183.69 176.442 188.205L375.824 303.316C383.697 307.86 382.698 315.805 373.61 321.044L260.467 386.371C251.364 391.625 237.558 392.204 229.656 387.645Z" fill="#F7EEE5"/>
<g filter="url(#filter0_d_1798:413)">
<path d="M243.028 386.733C239.092 386.868 235.187 385.996 231.682 384.201L32.3 269.09C31.0554 268.381 28.9714 266.876 28.9714 264.835C28.9714 262.794 31.0409 260.262 34.5142 258.25L147.657 192.923C152.393 190.366 157.702 189.056 163.084 189.117C167.02 188.983 170.925 189.854 174.43 191.65L373.812 306.761C375.057 307.484 377.141 308.989 377.141 311.015C377.141 313.041 375.071 315.603 371.613 317.6L258.455 382.927C253.722 385.491 248.411 386.802 243.028 386.733Z" fill="url(#paint1_linear_1798:413)"/>
</g>
<path style="mix-blend-mode:color-dodge" d="M150.725 258.681C176.718 249.741 193.509 230.05 188.229 214.699C182.95 199.349 157.599 194.152 131.606 203.091C105.614 212.031 88.8225 231.722 94.1021 247.073C99.3818 262.424 124.733 267.621 150.725 258.681Z" fill="url(#paint2_radial_1798:413)"/>
<path d="M265.112 345.256L103.213 251.781C99.9713 249.9 100.319 246.629 104.125 244.473L164.908 209.378C168.656 207.222 174.314 206.976 177.556 208.857L339.455 302.332C342.697 304.199 342.35 307.47 338.558 309.568L277.775 344.663C274.027 346.892 268.354 347.123 265.112 345.256Z" fill="#9B9B9B"/>
<g filter="url(#filter1_d_1798:413)">
<path d="M168.453 216.194L178.83 222.186C179.567 222.561 180.383 222.756 181.21 222.756C182.038 222.756 182.853 222.561 183.591 222.186C184.908 221.433 184.893 220.203 183.591 219.436L173.215 213.473C172.477 213.098 171.661 212.903 170.834 212.903C170.006 212.903 169.191 213.098 168.453 213.473C167.122 214.212 167.136 215.442 168.453 216.194ZM186.239 226.469L191.16 229.364C191.897 229.739 192.713 229.934 193.541 229.934C194.368 229.934 195.184 229.739 195.921 229.364C197.238 228.611 197.224 227.381 195.921 226.614L191.015 223.72C190.275 223.345 189.457 223.149 188.627 223.149C187.798 223.149 186.979 223.345 186.239 223.72C185.95 223.815 185.698 223.999 185.519 224.246C185.34 224.493 185.244 224.79 185.244 225.095C185.244 225.399 185.34 225.696 185.519 225.943C185.698 226.19 185.95 226.374 186.239 226.469ZM198.555 233.561L203.461 236.455C204.199 236.83 205.014 237.026 205.842 237.026C206.669 237.026 207.485 236.83 208.222 236.455C209.539 235.703 209.525 234.472 208.222 233.705L203.316 230.811C202.579 230.436 201.763 230.241 200.936 230.241C200.108 230.241 199.293 230.436 198.555 230.811C198.265 230.903 198.01 231.085 197.829 231.33C197.648 231.575 197.548 231.871 197.545 232.175C197.542 232.48 197.635 232.778 197.811 233.027C197.987 233.276 198.238 233.463 198.526 233.561H198.555ZM210.856 240.667L215.762 243.561C216.5 243.936 217.316 244.131 218.143 244.131C218.97 244.131 219.786 243.936 220.524 243.561C221.841 242.808 221.841 241.578 220.524 240.811L215.618 237.917C214.88 237.542 214.064 237.346 213.237 237.346C212.41 237.346 211.594 237.542 210.856 237.917C210.566 238.01 210.313 238.193 210.133 238.439C209.953 238.685 209.855 238.982 209.854 239.286C209.852 239.591 209.947 239.889 210.124 240.137C210.302 240.384 210.553 240.57 210.842 240.667H210.856ZM223.158 247.772L228.064 250.667C228.804 251.042 229.622 251.237 230.452 251.237C231.281 251.237 232.099 251.042 232.839 250.667C233.129 250.572 233.381 250.387 233.56 250.141C233.739 249.894 233.835 249.597 233.835 249.292C233.835 248.987 233.739 248.69 233.56 248.443C233.381 248.196 233.129 248.012 232.839 247.917L227.919 245.023C227.181 244.648 226.366 244.452 225.538 244.452C224.711 244.452 223.895 244.648 223.158 245.023C221.797 245.775 221.812 247.005 223.129 247.772H223.158ZM235.459 254.878L240.379 257.773C241.117 258.147 241.933 258.343 242.76 258.343C243.587 258.343 244.403 258.147 245.141 257.773C245.43 257.677 245.682 257.493 245.861 257.246C246.04 256.999 246.136 256.702 246.136 256.398C246.136 256.093 246.04 255.796 245.861 255.549C245.682 255.302 245.43 255.118 245.141 255.023L240.22 252.128C239.482 251.757 238.666 251.563 237.84 251.563C237.013 251.563 236.198 251.757 235.459 252.128C234.099 252.881 234.113 254.111 235.444 254.878H235.459ZM247.76 261.984L252.681 264.878C253.418 265.253 254.234 265.449 255.061 265.449C255.889 265.449 256.704 265.253 257.442 264.878C257.732 264.783 257.984 264.599 258.162 264.352C258.341 264.105 258.437 263.808 258.437 263.503C258.437 263.199 258.341 262.902 258.162 262.655C257.984 262.408 257.732 262.224 257.442 262.129L252.522 259.234C251.784 258.859 250.968 258.664 250.141 258.664C249.313 258.664 248.498 258.859 247.76 259.234C246.4 259.987 246.414 261.217 247.731 261.984H247.76ZM260.061 269.09L264.982 271.984C265.72 272.359 266.535 272.554 267.363 272.554C268.19 272.554 269.006 272.359 269.743 271.984C271.06 271.232 271.046 270.001 269.743 269.234L264.823 266.34C264.086 265.962 263.27 265.764 262.442 265.764C261.614 265.764 260.798 265.962 260.061 266.34C259.771 266.434 259.518 266.616 259.338 266.862C259.158 267.108 259.06 267.405 259.059 267.71C259.057 268.014 259.152 268.312 259.329 268.56C259.507 268.808 259.758 268.993 260.047 269.09H260.061ZM272.363 276.181L277.283 279.075C278.021 279.45 278.837 279.646 279.664 279.646C280.491 279.646 281.307 279.45 282.045 279.075C283.362 278.323 283.347 277.093 282.045 276.326L277.124 273.431C276.387 273.056 275.571 272.861 274.743 272.861C273.916 272.861 273.1 273.056 272.363 273.431C272.072 273.523 271.818 273.705 271.637 273.95C271.455 274.195 271.356 274.491 271.353 274.796C271.35 275.1 271.443 275.399 271.619 275.647C271.795 275.896 272.045 276.083 272.334 276.181H272.363ZM284.664 283.287L289.585 286.181C290.322 286.556 291.138 286.752 291.965 286.752C292.793 286.752 293.608 286.556 294.346 286.181C294.635 286.086 294.888 285.902 295.066 285.655C295.245 285.408 295.341 285.111 295.341 284.806C295.341 284.502 295.245 284.205 295.066 283.958C294.888 283.711 294.635 283.527 294.346 283.432L289.44 280.537C288.7 280.162 287.882 279.967 287.052 279.967C286.222 279.967 285.404 280.162 284.664 280.537C284.374 280.631 284.121 280.814 283.941 281.06C283.761 281.305 283.663 281.602 283.661 281.907C283.66 282.212 283.754 282.509 283.932 282.757C284.109 283.005 284.361 283.19 284.65 283.287H284.664ZM296.98 290.393L301.886 293.287C302.623 293.662 303.439 293.857 304.266 293.857C305.094 293.857 305.91 293.662 306.647 293.287C306.937 293.192 307.189 293.008 307.368 292.761C307.546 292.514 307.642 292.217 307.642 291.912C307.642 291.607 307.546 291.31 307.368 291.064C307.189 290.817 306.937 290.632 306.647 290.537L301.741 287.643C301.004 287.268 300.188 287.073 299.36 287.073C298.533 287.073 297.717 287.268 296.98 287.643C295.619 288.395 295.619 289.626 296.951 290.393H296.98ZM309.281 297.498L314.187 300.393C314.924 300.771 315.74 300.969 316.568 300.969C317.396 300.969 318.212 300.771 318.948 300.393C320.265 299.64 320.265 298.41 318.948 297.643L314.042 294.749C313.304 294.377 312.488 294.184 311.662 294.184C310.835 294.184 310.02 294.377 309.281 294.749C307.921 295.501 307.935 296.731 309.252 297.498H309.281ZM321.843 304.734L326.749 307.629C327.486 308.004 328.302 308.199 329.13 308.199C329.957 308.199 330.773 308.004 331.51 307.629C331.8 307.534 332.052 307.35 332.231 307.103C332.409 306.856 332.506 306.559 332.506 306.254C332.506 305.949 332.409 305.652 332.231 305.405C332.052 305.158 331.8 304.974 331.51 304.879L326.604 301.985C325.866 301.613 325.05 301.42 324.223 301.42C323.397 301.42 322.581 301.613 321.843 301.985C320.482 302.752 320.482 303.982 321.814 304.749L321.843 304.734ZM157.382 222.982L161.637 225.427C162.477 225.856 163.407 226.079 164.35 226.079C165.294 226.079 166.223 225.856 167.064 225.427L171.29 222.982C171.617 222.871 171.901 222.661 172.102 222.381C172.303 222.1 172.411 221.764 172.411 221.419C172.411 221.074 172.303 220.737 172.102 220.457C171.901 220.176 171.617 219.966 171.29 219.856L167.035 217.395C166.193 216.971 165.264 216.749 164.321 216.749C163.379 216.749 162.449 216.971 161.608 217.395L157.382 219.827C157.052 219.938 156.765 220.15 156.561 220.433C156.358 220.716 156.248 221.056 156.248 221.404C156.248 221.753 156.358 222.092 156.561 222.375C156.765 222.658 157.052 222.871 157.382 222.982ZM179.365 232.548L183.591 230.102C183.918 229.991 184.202 229.781 184.403 229.501C184.604 229.22 184.713 228.884 184.713 228.539C184.713 228.194 184.604 227.857 184.403 227.577C184.202 227.297 183.918 227.086 183.591 226.976L179.336 224.516C178.496 224.087 177.566 223.864 176.623 223.864C175.679 223.864 174.75 224.087 173.909 224.516L169.683 226.947C168.236 227.815 168.236 229.219 169.683 230.087L173.938 232.533C174.778 232.963 175.707 233.188 176.65 233.19C177.593 233.193 178.523 232.973 179.365 232.548ZM181.999 237.179L186.254 239.639C187.093 240.064 188.02 240.285 188.96 240.285C189.9 240.285 190.828 240.064 191.666 239.639L195.892 237.193C196.219 237.083 196.503 236.872 196.704 236.592C196.906 236.312 197.014 235.975 197.014 235.63C197.014 235.285 196.906 234.949 196.704 234.668C196.503 234.388 196.219 234.178 195.892 234.067L191.637 231.607C190.799 231.182 189.871 230.961 188.931 230.961C187.991 230.961 187.064 231.182 186.225 231.607L181.985 234.053C180.451 234.921 180.451 236.31 181.999 237.179ZM194.3 244.285L198.555 246.745C199.394 247.17 200.321 247.391 201.261 247.391C202.202 247.391 203.129 247.17 203.968 246.745L208.194 244.299C209.641 243.431 209.641 242.041 208.194 241.173L203.939 238.713C203.1 238.288 202.173 238.067 201.232 238.067C200.292 238.067 199.365 238.288 198.526 238.713L194.3 241.159C192.781 242.012 192.795 243.416 194.3 244.285ZM220.48 248.279L216.226 245.833C215.387 245.408 214.46 245.187 213.519 245.187C212.579 245.187 211.652 245.408 210.813 245.833L206.587 248.279C206.26 248.389 205.976 248.6 205.775 248.88C205.574 249.16 205.466 249.497 205.466 249.842C205.466 250.187 205.574 250.523 205.775 250.804C205.976 251.084 206.26 251.294 206.587 251.405L210.842 253.822C211.68 254.25 212.607 254.473 213.548 254.473C214.489 254.473 215.417 254.25 216.254 253.822L220.495 251.39C222 250.551 221.985 249.147 220.48 248.279ZM232.796 255.385L228.541 252.939C227.701 252.511 226.771 252.287 225.828 252.287C224.885 252.287 223.955 252.511 223.114 252.939L218.888 255.385C218.561 255.495 218.277 255.705 218.076 255.986C217.875 256.266 217.767 256.603 217.767 256.948C217.767 257.293 217.875 257.629 218.076 257.91C218.277 258.19 218.561 258.4 218.888 258.511L223.143 260.971C223.985 261.396 224.914 261.617 225.857 261.617C226.799 261.617 227.729 261.396 228.57 260.971L232.796 258.54C233.126 258.428 233.414 258.216 233.617 257.933C233.82 257.65 233.93 257.311 233.93 256.962C233.93 256.614 233.82 256.274 233.617 255.991C233.414 255.708 233.126 255.496 232.796 255.385ZM245.097 262.49L240.843 260.03C240.002 259.602 239.072 259.379 238.129 259.379C237.186 259.379 236.256 259.602 235.416 260.03L231.19 262.505C230.864 262.619 230.583 262.832 230.383 263.113C230.184 263.394 230.077 263.73 230.077 264.075C230.077 264.42 230.184 264.756 230.383 265.037C230.583 265.319 230.864 265.531 231.19 265.645L235.444 268.091C236.285 268.519 237.215 268.743 238.158 268.743C239.101 268.743 240.031 268.519 240.872 268.091L245.097 265.645C246.602 264.763 246.588 263.359 245.097 262.505V262.49ZM257.399 269.596L253.144 267.136C252.303 266.708 251.374 266.484 250.43 266.484C249.487 266.484 248.557 266.708 247.717 267.136L243.491 269.567C243.164 269.678 242.88 269.888 242.679 270.168C242.478 270.449 242.369 270.785 242.369 271.13C242.369 271.475 242.478 271.812 242.679 272.092C242.88 272.373 243.164 272.583 243.491 272.693L247.746 275.153C248.587 275.578 249.517 275.8 250.459 275.8C251.402 275.8 252.331 275.578 253.173 275.153L257.399 272.708C257.72 272.594 257.999 272.383 258.196 272.105C258.393 271.826 258.499 271.493 258.499 271.152C258.499 270.811 258.393 270.478 258.196 270.199C257.999 269.92 257.72 269.71 257.399 269.596ZM269.7 276.702L265.445 274.242C264.604 273.817 263.674 273.596 262.732 273.596C261.789 273.596 260.86 273.817 260.018 274.242L255.792 276.688C255.465 276.798 255.181 277.008 254.98 277.289C254.779 277.569 254.671 277.905 254.671 278.251C254.671 278.596 254.779 278.932 254.98 279.212C255.181 279.493 255.465 279.703 255.792 279.814L260.047 282.274C260.888 282.699 261.818 282.92 262.761 282.92C263.703 282.92 264.633 282.699 265.474 282.274L269.7 279.828C270.027 279.717 270.311 279.507 270.512 279.227C270.713 278.947 270.822 278.61 270.822 278.265C270.822 277.92 270.713 277.583 270.512 277.303C270.311 277.023 270.027 276.812 269.7 276.702ZM282.001 283.808L277.746 281.348C276.907 280.923 275.98 280.702 275.04 280.702C274.1 280.702 273.173 280.923 272.334 281.348L268.094 283.793C266.646 284.647 266.646 286.051 268.094 286.919L272.348 289.38C273.187 289.804 274.114 290.026 275.055 290.026C275.995 290.026 276.922 289.804 277.761 289.38L281.987 286.934C282.314 286.825 282.599 286.616 282.802 286.336C283.004 286.057 283.114 285.721 283.116 285.376C283.117 285.031 283.011 284.694 282.811 284.413C282.611 284.131 282.328 283.92 282.001 283.808ZM280.424 294.011L284.679 296.471C285.516 296.899 286.444 297.122 287.385 297.122C288.326 297.122 289.253 296.899 290.091 296.471L294.317 294.04C294.649 293.932 294.939 293.723 295.144 293.441C295.35 293.158 295.46 292.818 295.46 292.469C295.46 292.12 295.35 291.78 295.144 291.498C294.939 291.216 294.649 291.006 294.317 290.899L290.062 288.453C289.224 288.025 288.297 287.802 287.356 287.802C286.415 287.802 285.487 288.025 284.65 288.453L280.424 290.899C278.861 291.739 278.861 293.142 280.424 294.011ZM306.604 298.005L302.349 295.559C301.511 295.131 300.584 294.908 299.643 294.908C298.702 294.908 297.774 295.131 296.936 295.559L292.711 298.005C292.384 298.115 292.1 298.326 291.898 298.606C291.697 298.886 291.589 299.223 291.589 299.568C291.589 299.913 291.697 300.249 291.898 300.53C292.1 300.81 292.384 301.02 292.711 301.131L296.965 303.591C297.804 304.016 298.731 304.237 299.672 304.237C300.612 304.237 301.539 304.016 302.378 303.591L306.618 301.16C308.123 300.277 308.109 298.873 306.604 298.005ZM324.621 308.41L314.911 302.81C314.073 302.382 313.145 302.158 312.204 302.158C311.264 302.158 310.336 302.382 309.498 302.81L305.258 305.255C303.811 306.109 303.811 307.513 305.258 308.381L314.969 313.982C315.809 314.41 316.739 314.634 317.682 314.634C318.625 314.634 319.555 314.41 320.396 313.982L324.621 311.536C326.141 310.682 326.127 309.279 324.621 308.41ZM145.993 229.552L155.703 235.167C156.545 235.592 157.474 235.813 158.417 235.813C159.359 235.813 160.289 235.592 161.13 235.167L165.356 232.721C165.683 232.611 165.967 232.401 166.168 232.12C166.37 231.84 166.478 231.503 166.478 231.158C166.478 230.813 166.37 230.477 166.168 230.196C165.967 229.916 165.683 229.706 165.356 229.595L155.645 223.98C154.804 223.555 153.874 223.334 152.932 223.334C151.989 223.334 151.06 223.555 150.218 223.98L145.993 226.426C145.666 226.536 145.382 226.747 145.18 227.027C144.979 227.307 144.871 227.644 144.871 227.989C144.871 228.334 144.979 228.67 145.18 228.951C145.382 229.231 145.666 229.441 145.993 229.552ZM163.75 239.813L168.005 242.273C168.845 242.701 169.775 242.924 170.718 242.924C171.661 242.924 172.591 242.701 173.432 242.273L177.657 239.842C177.983 239.727 178.264 239.515 178.464 239.234C178.663 238.952 178.77 238.616 178.77 238.271C178.77 237.927 178.663 237.59 178.464 237.309C178.264 237.028 177.983 236.815 177.657 236.701L173.403 234.255C172.561 233.831 171.632 233.609 170.689 233.609C169.746 233.609 168.817 233.831 167.976 234.255L163.75 236.701C162.245 237.541 162.259 238.944 163.75 239.813ZM180.32 249.379C181.159 249.803 182.086 250.025 183.027 250.025C183.967 250.025 184.894 249.803 185.733 249.379L189.959 246.947C190.284 246.833 190.566 246.621 190.765 246.339C190.964 246.058 191.071 245.722 191.071 245.377C191.071 245.032 190.964 244.696 190.765 244.415C190.566 244.134 190.284 243.921 189.959 243.807L185.704 241.361C184.866 240.933 183.939 240.71 182.998 240.71C182.057 240.71 181.129 240.933 180.291 241.361L176.109 243.792C174.662 244.646 174.662 246.05 176.109 246.918L180.32 249.379ZM192.622 256.47C193.459 256.898 194.387 257.121 195.328 257.121C196.269 257.121 197.196 256.898 198.034 256.47L202.26 254.024C203.707 253.17 203.707 251.767 202.26 250.898L198.005 248.438C197.167 248.01 196.24 247.787 195.299 247.787C194.358 247.787 193.431 248.01 192.593 248.438L188.352 250.927C188.02 251.034 187.73 251.244 187.525 251.526C187.319 251.808 187.209 252.148 187.209 252.497C187.209 252.846 187.319 253.187 187.525 253.469C187.73 253.751 188.02 253.961 188.352 254.068L192.622 256.47ZM204.879 255.558L200.711 257.99C200.385 258.1 200.1 258.31 199.899 258.591C199.698 258.871 199.59 259.207 199.59 259.553C199.59 259.898 199.698 260.234 199.899 260.514C200.1 260.795 200.385 261.005 200.711 261.116L204.966 263.576C205.805 264.001 206.732 264.222 207.673 264.222C208.613 264.222 209.54 264.001 210.379 263.576L214.619 261.13C216.066 260.276 216.066 258.872 214.619 258.004L210.364 255.544C209.516 255.106 208.575 254.879 207.62 254.881C206.665 254.884 205.725 255.116 204.879 255.558ZM217.441 262.505L212.694 265.24C212.311 265.24 211.942 265.393 211.671 265.664C211.4 265.935 211.247 266.303 211.247 266.687C211.247 267.071 211.4 267.439 211.671 267.711C211.942 267.982 212.311 268.135 212.694 268.135L217.47 270.884C218.229 271.273 219.07 271.476 219.923 271.476C220.776 271.476 221.617 271.273 222.376 270.884L227.123 268.149C227.507 268.149 227.875 267.997 228.146 267.725C228.418 267.454 228.57 267.086 228.57 266.702C228.57 266.318 228.418 265.95 228.146 265.678C227.875 265.407 227.507 265.255 227.123 265.255L222.333 262.505C221.576 262.116 220.738 261.914 219.887 261.914C219.036 261.914 218.198 262.116 217.441 262.505ZM229.742 269.611L224.996 272.346C224.612 272.346 224.244 272.498 223.972 272.77C223.701 273.041 223.548 273.409 223.548 273.793C223.548 274.177 223.701 274.545 223.972 274.816C224.244 275.088 224.612 275.24 224.996 275.24L229.771 277.99C230.532 278.375 231.372 278.576 232.224 278.576C233.077 278.576 233.917 278.375 234.677 277.99L239.424 275.24C240.77 274.473 240.756 273.2 239.424 272.346L234.649 269.582C233.886 269.201 233.044 269.005 232.192 269.01C231.34 269.015 230.501 269.221 229.742 269.611ZM242.044 276.716L237.297 279.452C236.977 279.525 236.692 279.704 236.487 279.96C236.283 280.217 236.171 280.535 236.171 280.863C236.171 281.191 236.283 281.509 236.487 281.765C236.692 282.022 236.977 282.201 237.297 282.274L242.073 285.038C242.833 285.423 243.673 285.624 244.526 285.624C245.378 285.624 246.218 285.423 246.979 285.038L251.726 282.288C252.109 282.288 252.478 282.136 252.749 281.864C253.02 281.593 253.173 281.225 253.173 280.841C253.173 280.457 253.02 280.089 252.749 279.818C252.478 279.546 252.109 279.394 251.726 279.394L246.95 276.63C246.183 276.258 245.339 276.072 244.486 276.087C243.634 276.102 242.797 276.318 242.044 276.716ZM254.345 283.808L249.598 286.557C249.278 286.63 248.993 286.81 248.788 287.066C248.584 287.322 248.473 287.641 248.473 287.969C248.473 288.296 248.584 288.615 248.788 288.871C248.993 289.127 249.278 289.307 249.598 289.38L254.374 292.144C255.135 292.526 255.975 292.725 256.827 292.725C257.679 292.725 258.519 292.526 259.28 292.144L264.027 289.394C264.411 289.394 264.779 289.242 265.05 288.97C265.322 288.699 265.474 288.331 265.474 287.947C265.474 287.563 265.322 287.195 265.05 286.923C264.779 286.652 264.411 286.5 264.027 286.5L259.251 283.735C258.484 283.365 257.641 283.178 256.789 283.191C255.938 283.203 255.101 283.415 254.345 283.808ZM266.646 290.914L261.899 293.663C260.554 294.43 260.568 295.704 261.899 296.485L266.69 299.25C267.447 299.635 268.285 299.835 269.135 299.835C269.986 299.835 270.824 299.635 271.581 299.25L276.328 296.514C277.674 295.733 277.674 294.474 276.328 293.62L271.552 290.87C270.789 290.492 269.946 290.298 269.094 290.306C268.242 290.313 267.403 290.522 266.646 290.914ZM283.897 306.355L288.644 303.62C289.028 303.62 289.396 303.468 289.667 303.196C289.939 302.925 290.091 302.557 290.091 302.173C290.091 301.789 289.939 301.421 289.667 301.15C289.396 300.878 289.028 300.726 288.644 300.726L283.868 297.976C283.11 297.591 282.272 297.39 281.422 297.39C280.572 297.39 279.734 297.591 278.977 297.976L274.215 300.726C272.869 301.493 272.884 302.766 274.215 303.548L278.991 306.312C279.747 306.706 280.586 306.916 281.439 306.923C282.292 306.931 283.134 306.736 283.897 306.355ZM296.198 313.461L300.945 310.726C301.329 310.726 301.697 310.573 301.968 310.302C302.24 310.031 302.392 309.663 302.392 309.279C302.392 308.895 302.24 308.527 301.968 308.255C301.697 307.984 301.329 307.831 300.945 307.831L296.169 305.082C295.413 304.693 294.574 304.491 293.724 304.491C292.873 304.491 292.035 304.693 291.278 305.082L286.531 307.817C286.147 307.817 285.779 307.969 285.508 308.241C285.236 308.512 285.084 308.88 285.084 309.264C285.084 309.648 285.236 310.016 285.508 310.288C285.779 310.559 286.147 310.711 286.531 310.711L291.307 313.461C292.067 313.854 292.911 314.06 293.767 314.06C294.623 314.06 295.467 313.854 296.227 313.461H296.198ZM313.565 315.14L308.789 312.39C308.03 312.002 307.189 311.799 306.336 311.799C305.483 311.799 304.642 312.002 303.883 312.39L299.122 315.111C298.738 315.111 298.37 315.263 298.098 315.535C297.827 315.806 297.674 316.174 297.674 316.558C297.674 316.942 297.827 317.31 298.098 317.581C298.37 317.853 298.738 318.005 299.122 318.005L303.912 320.755C304.669 321.144 305.507 321.346 306.358 321.346C307.208 321.346 308.047 321.144 308.803 320.755L313.55 318.02C313.907 317.977 314.235 317.804 314.471 317.533C314.707 317.262 314.834 316.913 314.827 316.554C314.819 316.194 314.679 315.851 314.432 315.589C314.186 315.328 313.851 315.168 313.492 315.14H313.565ZM134.4 235.978L149.828 244.892C150.589 245.274 151.429 245.473 152.281 245.473C153.132 245.473 153.972 245.274 154.734 244.892L159.48 242.143C159.8 242.07 160.086 241.89 160.29 241.634C160.495 241.378 160.606 241.06 160.606 240.732C160.606 240.404 160.495 240.085 160.29 239.829C160.086 239.573 159.8 239.393 159.48 239.321L144.053 230.406C143.295 230.021 142.457 229.82 141.607 229.82C140.757 229.82 139.919 230.021 139.162 230.406L134.4 233.141C134.071 233.199 133.772 233.368 133.554 233.622C133.335 233.875 133.212 234.196 133.203 234.53C133.195 234.864 133.302 235.191 133.507 235.454C133.712 235.718 134.002 235.903 134.328 235.978H134.4ZM157.295 249.234L162.085 251.998C162.843 252.383 163.681 252.584 164.531 252.584C165.381 252.584 166.219 252.383 166.977 251.998L171.724 249.263C173.07 248.481 173.07 247.222 171.724 246.369L166.948 243.619C166.188 243.234 165.347 243.033 164.495 243.033C163.643 243.033 162.802 243.234 162.042 243.619L157.295 246.412C155.92 247.179 155.935 248.452 157.295 249.234ZM169.611 256.34L174.387 259.104C175.145 259.489 175.983 259.69 176.833 259.69C177.683 259.69 178.521 259.489 179.278 259.104L184.025 256.369C184.409 256.369 184.777 256.216 185.048 255.945C185.32 255.673 185.472 255.305 185.472 254.922C185.472 254.538 185.32 254.17 185.048 253.898C184.777 253.627 184.409 253.474 184.025 253.474L179.249 250.725C178.492 250.339 177.654 250.139 176.804 250.139C175.954 250.139 175.116 250.339 174.358 250.725L169.596 253.46C168.222 254.285 168.236 255.558 169.596 256.34H169.611ZM181.912 263.446L186.688 266.195C187.445 266.584 188.283 266.786 189.134 266.786C189.984 266.786 190.823 266.584 191.58 266.195L196.326 263.46C196.71 263.46 197.078 263.308 197.35 263.036C197.621 262.765 197.774 262.397 197.774 262.013C197.774 261.629 197.621 261.261 197.35 260.99C197.078 260.718 196.71 260.566 196.326 260.566L191.551 257.801C190.793 257.416 189.955 257.216 189.105 257.216C188.255 257.216 187.417 257.416 186.659 257.801L181.898 260.609C181.571 260.675 181.276 260.853 181.065 261.111C180.854 261.37 180.739 261.693 180.739 262.027C180.739 262.361 180.854 262.685 181.065 262.943C181.276 263.202 181.571 263.379 181.898 263.446H181.912ZM203.881 273.316L208.642 270.566C209.988 269.799 209.974 268.525 208.642 267.744L203.866 264.98C203.109 264.594 202.271 264.394 201.421 264.394C200.571 264.394 199.733 264.594 198.975 264.98L194.228 267.715C192.882 268.496 192.882 269.755 194.228 270.609L199.004 273.359C199.761 273.733 200.596 273.923 201.44 273.916C202.285 273.908 203.116 273.703 203.866 273.316H203.881ZM216.197 280.421L220.943 277.672C221.263 277.599 221.549 277.419 221.753 277.163C221.958 276.907 222.069 276.589 222.069 276.261C222.069 275.933 221.958 275.614 221.753 275.358C221.549 275.102 221.263 274.922 220.943 274.85L216.153 272.085C215.395 271.7 214.557 271.5 213.707 271.5C212.857 271.5 212.019 271.7 211.262 272.085L206.5 274.821C206.116 274.821 205.748 274.973 205.477 275.245C205.206 275.516 205.053 275.884 205.053 276.268C205.053 276.652 205.206 277.02 205.477 277.291C205.748 277.563 206.116 277.715 206.5 277.715L211.276 280.479C212.042 280.852 212.884 281.041 213.736 281.031C214.588 281.021 215.425 280.812 216.182 280.421H216.197ZM228.498 287.513L233.245 284.777C233.564 284.705 233.85 284.525 234.054 284.269C234.259 284.013 234.37 283.694 234.37 283.366C234.37 283.038 234.259 282.72 234.054 282.464C233.85 282.208 233.564 282.028 233.245 281.955L228.469 279.191C227.708 278.809 226.868 278.61 226.016 278.61C225.164 278.61 224.324 278.809 223.563 279.191L218.816 281.941C218.432 281.941 218.064 282.093 217.793 282.365C217.521 282.636 217.369 283.004 217.369 283.388C217.369 283.772 217.521 284.14 217.793 284.411C218.064 284.683 218.432 284.835 218.816 284.835L223.592 287.599C224.357 287.969 225.198 288.154 226.048 288.139C226.898 288.123 227.732 287.909 228.483 287.513H228.498ZM240.799 294.618L245.575 291.883C246.921 291.102 246.921 289.843 245.575 288.989L240.799 286.239C240.039 285.854 239.198 285.653 238.346 285.653C237.494 285.653 236.653 285.854 235.893 286.239L231.146 288.989C230.827 289.062 230.541 289.241 230.337 289.497C230.132 289.754 230.021 290.072 230.021 290.4C230.021 290.728 230.132 291.046 230.337 291.302C230.541 291.559 230.827 291.738 231.146 291.811L235.922 294.575C236.673 294.96 237.504 295.164 238.348 295.172C239.192 295.179 240.027 294.99 240.785 294.618H240.799ZM253.1 301.724L257.847 298.989C258.231 298.989 258.599 298.837 258.871 298.565C259.142 298.294 259.294 297.926 259.294 297.542C259.294 297.158 259.142 296.79 258.871 296.518C258.599 296.247 258.231 296.095 257.847 296.095L253.071 293.345C252.312 292.956 251.471 292.754 250.618 292.754C249.765 292.754 248.925 292.956 248.165 293.345L243.419 296.08C243.035 296.08 242.667 296.233 242.395 296.504C242.124 296.775 241.971 297.144 241.971 297.527C241.971 297.911 242.124 298.279 242.395 298.551C242.667 298.822 243.035 298.975 243.419 298.975L248.194 301.724C248.952 302.111 249.79 302.312 250.64 302.312C251.49 302.312 252.329 302.111 253.086 301.724H253.1ZM265.402 308.83L270.149 306.08C270.532 306.08 270.9 305.928 271.172 305.656C271.443 305.385 271.596 305.017 271.596 304.633C271.596 304.249 271.443 303.881 271.172 303.61C270.9 303.338 270.532 303.186 270.149 303.186L265.373 300.422C264.612 300.036 263.772 299.836 262.92 299.836C262.067 299.836 261.227 300.036 260.467 300.422L255.705 303.229C255.322 303.229 254.953 303.382 254.682 303.653C254.411 303.925 254.258 304.293 254.258 304.677C254.258 305.06 254.411 305.428 254.682 305.7C254.953 305.971 255.322 306.124 255.705 306.124L260.496 308.873C261.258 309.25 262.098 309.44 262.948 309.43C263.798 309.42 264.634 309.21 265.387 308.816L265.402 308.83ZM268.036 313.172L272.811 315.921C273.569 316.307 274.407 316.507 275.257 316.507C276.107 316.507 276.945 316.307 277.703 315.921L282.45 313.172C283.81 312.405 283.796 311.131 282.45 310.277L277.674 307.513C276.916 307.128 276.078 306.927 275.228 306.927C274.378 306.927 273.54 307.128 272.782 307.513L268.021 310.248C266.646 311.117 266.661 312.376 268.021 313.157L268.036 313.172ZM302.117 321.725L289.961 314.706C289.202 314.324 288.364 314.125 287.515 314.125C286.666 314.125 285.828 314.324 285.069 314.706L280.308 317.499C278.948 318.28 278.962 319.539 280.308 320.321L292.45 327.34C293.211 327.722 294.051 327.921 294.903 327.921C295.755 327.921 296.595 327.722 297.356 327.34L302.103 324.59C302.448 324.541 302.764 324.369 302.992 324.106C303.22 323.843 303.346 323.506 303.346 323.157C303.346 322.809 303.22 322.472 302.992 322.209C302.764 321.946 302.448 321.774 302.103 321.725H302.117ZM122.982 242.91L144.878 255.544C145.736 255.975 146.682 256.2 147.642 256.2C148.602 256.2 149.549 255.975 150.406 255.544L154.517 253.156C156.051 252.288 155.964 250.855 154.517 249.972L132.693 237.338C131.834 236.903 130.884 236.676 129.921 236.676C128.958 236.676 128.009 236.903 127.15 237.338L123.04 239.711C121.448 240.594 121.448 242.012 122.982 242.91ZM153.04 260.276L157.179 262.679C158.036 263.113 158.983 263.34 159.944 263.34C160.904 263.34 161.851 263.113 162.708 262.679L166.832 260.305C168.28 259.422 168.28 258.004 166.832 257.107L162.693 254.719C161.836 254.287 160.889 254.063 159.929 254.063C158.969 254.063 158.023 254.287 157.165 254.719L153.055 257.107C151.506 257.932 151.506 259.364 153.04 260.247V260.276ZM165.342 267.382L169.481 269.77C170.336 270.208 171.284 270.437 172.245 270.437C173.206 270.437 174.154 270.208 175.009 269.77L179.134 267.396C179.466 267.281 179.753 267.065 179.957 266.778C180.161 266.492 180.27 266.149 180.27 265.797C180.27 265.446 180.161 265.103 179.957 264.816C179.753 264.53 179.466 264.314 179.134 264.198L174.98 261.81C174.123 261.379 173.176 261.154 172.216 261.154C171.256 261.154 170.309 261.379 169.452 261.81L165.342 264.184C165.019 264.305 164.742 264.522 164.546 264.805C164.35 265.088 164.245 265.424 164.245 265.768C164.245 266.113 164.35 266.449 164.546 266.732C164.742 267.015 165.019 267.232 165.342 267.353V267.382ZM177.643 274.488L181.782 276.876C182.641 277.311 183.59 277.537 184.553 277.537C185.516 277.537 186.466 277.311 187.325 276.876L191.435 274.502C191.767 274.387 192.055 274.171 192.258 273.884C192.462 273.598 192.572 273.255 192.572 272.903C192.572 272.552 192.462 272.209 192.258 271.922C192.055 271.636 191.767 271.419 191.435 271.304L187.296 268.916C186.437 268.481 185.487 268.255 184.524 268.255C183.562 268.255 182.612 268.481 181.753 268.916L177.643 271.289C177.321 271.411 177.043 271.627 176.847 271.911C176.651 272.194 176.546 272.53 176.546 272.874C176.546 273.218 176.651 273.555 176.847 273.838C177.043 274.121 177.321 274.338 177.643 274.459V274.488ZM189.944 281.594L194.083 283.981C194.942 284.416 195.892 284.643 196.855 284.643C197.818 284.643 198.767 284.416 199.626 283.981L203.736 281.608C204.068 281.492 204.356 281.276 204.56 280.99C204.763 280.703 204.873 280.36 204.873 280.009C204.873 279.657 204.763 279.314 204.56 279.028C204.356 278.741 204.068 278.525 203.736 278.41L199.597 276.022C198.738 275.587 197.789 275.36 196.826 275.36C195.863 275.36 194.913 275.587 194.054 276.022L189.93 278.424C189.617 278.552 189.35 278.77 189.163 279.051C188.975 279.331 188.876 279.662 188.877 279.999C188.879 280.337 188.981 280.666 189.171 280.945C189.361 281.224 189.631 281.44 189.944 281.565V281.594ZM202.245 288.699L206.385 291.087C207.245 291.519 208.194 291.744 209.156 291.744C210.118 291.744 211.067 291.519 211.927 291.087L216.037 288.699C216.371 288.588 216.661 288.374 216.867 288.088C217.073 287.802 217.183 287.459 217.183 287.107C217.183 286.755 217.073 286.412 216.867 286.127C216.661 285.841 216.371 285.627 216.037 285.516L211.898 283.113C211.039 282.678 210.09 282.452 209.127 282.452C208.164 282.452 207.215 282.678 206.356 283.113L202.245 285.487C201.918 285.605 201.636 285.821 201.436 286.106C201.236 286.391 201.129 286.731 201.129 287.078C201.129 287.426 201.236 287.766 201.436 288.051C201.636 288.335 201.918 288.552 202.245 288.67V288.699ZM214.547 295.805L218.7 298.193C219.557 298.628 220.504 298.854 221.464 298.854C222.425 298.854 223.372 298.628 224.229 298.193L228.339 295.82C229.873 294.951 229.786 293.519 228.339 292.636L224.2 290.233C223.343 289.799 222.396 289.572 221.436 289.572C220.475 289.572 219.528 289.799 218.671 290.233L214.547 292.607C213.013 293.461 213.013 294.879 214.547 295.791V295.805ZM226.863 302.896L231.002 305.299C231.858 305.734 232.805 305.96 233.766 305.96C234.726 305.96 235.673 305.734 236.53 305.299L240.64 302.925C240.972 302.81 241.26 302.594 241.464 302.307C241.667 302.021 241.777 301.678 241.777 301.326C241.777 300.975 241.667 300.632 241.464 300.345C241.26 300.059 240.972 299.843 240.64 299.727L236.501 297.339C235.643 296.908 234.697 296.683 233.737 296.683C232.777 296.683 231.83 296.908 230.973 297.339L226.848 299.727C225.314 300.552 225.314 301.985 226.863 302.868V302.896ZM239.164 310.002L243.303 312.39C244.158 312.828 245.106 313.057 246.067 313.057C247.028 313.057 247.976 312.828 248.831 312.39L252.956 310.017C253.288 309.901 253.576 309.685 253.779 309.399C253.983 309.112 254.092 308.769 254.092 308.418C254.092 308.066 253.983 307.723 253.779 307.437C253.576 307.15 253.288 306.934 252.956 306.818L248.788 304.474C247.931 304.039 246.984 303.813 246.024 303.813C245.063 303.813 244.116 304.039 243.259 304.474L239.135 306.847C238.827 306.979 238.566 307.198 238.383 307.478C238.2 307.758 238.104 308.086 238.107 308.42C238.11 308.754 238.212 309.08 238.4 309.357C238.588 309.633 238.854 309.848 239.164 309.973V310.002ZM251.465 317.108L255.604 319.496C256.461 319.931 257.408 320.157 258.368 320.157C259.329 320.157 260.276 319.931 261.132 319.496L265.257 317.123C265.589 317.007 265.877 316.791 266.081 316.504C266.284 316.218 266.394 315.875 266.394 315.523C266.394 315.172 266.284 314.829 266.081 314.542C265.877 314.256 265.589 314.04 265.257 313.924L261.118 311.536C260.261 311.102 259.314 310.875 258.354 310.875C257.393 310.875 256.446 311.102 255.59 311.536L251.48 313.91C251.157 314.03 250.878 314.245 250.681 314.527C250.484 314.809 250.377 315.145 250.376 315.489C250.374 315.834 250.477 316.17 250.672 316.454C250.867 316.738 251.143 316.956 251.465 317.079V317.108ZM263.766 324.214L267.905 326.602C268.762 327.037 269.709 327.263 270.67 327.263C271.63 327.263 272.577 327.037 273.434 326.602L277.558 324.228C277.89 324.113 278.178 323.897 278.382 323.61C278.586 323.324 278.695 322.981 278.695 322.629C278.695 322.278 278.586 321.935 278.382 321.648C278.178 321.362 277.89 321.146 277.558 321.03L273.405 318.642C272.549 318.204 271.602 317.975 270.641 317.975C269.679 317.975 268.732 318.204 267.876 318.642L263.766 321.016C263.444 321.137 263.166 321.353 262.971 321.637C262.775 321.92 262.67 322.256 262.67 322.6C262.67 322.945 262.775 323.281 262.971 323.564C263.166 323.847 263.444 324.064 263.766 324.185V324.214ZM290.12 328.309L285.967 325.907C285.11 325.472 284.163 325.246 283.202 325.246C282.242 325.246 281.295 325.472 280.438 325.907L276.328 328.281C274.794 329.163 274.809 330.582 276.328 331.479L280.467 333.867C281.324 334.302 282.271 334.528 283.231 334.528C284.192 334.528 285.139 334.302 285.995 333.867L290.12 331.493C290.465 331.389 290.766 331.176 290.981 330.887C291.195 330.598 291.311 330.247 291.311 329.887C291.311 329.527 291.195 329.176 290.981 328.887C290.766 328.598 290.465 328.385 290.12 328.281V328.309ZM130.826 249.48L121.216 243.937C120.359 243.506 119.412 243.281 118.452 243.281C117.492 243.281 116.546 243.506 115.688 243.937L111.578 246.311C111.246 246.426 110.958 246.642 110.754 246.929C110.551 247.215 110.441 247.558 110.441 247.91C110.441 248.261 110.551 248.604 110.754 248.891C110.958 249.177 111.246 249.393 111.578 249.509L121.173 255.052C122.032 255.487 122.981 255.713 123.944 255.713C124.907 255.713 125.857 255.487 126.716 255.052L130.826 252.678C131.158 252.563 131.446 252.347 131.649 252.06C131.853 251.774 131.962 251.431 131.962 251.079C131.962 250.728 131.853 250.385 131.649 250.098C131.446 249.812 131.158 249.596 130.826 249.48ZM143.127 256.586L138.988 254.198C138.132 253.76 137.185 253.531 136.224 253.531C135.263 253.531 134.315 253.76 133.46 254.198L129.335 256.571C129.003 256.687 128.715 256.903 128.512 257.19C128.308 257.476 128.198 257.819 128.198 258.171C128.198 258.522 128.308 258.865 128.512 259.152C128.715 259.438 129.003 259.654 129.335 259.77L133.489 262.158C134.345 262.592 135.292 262.819 136.253 262.819C137.213 262.819 138.16 262.592 139.017 262.158L143.127 259.784C143.464 259.672 143.758 259.456 143.965 259.168C144.173 258.88 144.285 258.533 144.285 258.178C144.285 257.822 144.173 257.476 143.965 257.188C143.758 256.899 143.464 256.684 143.127 256.571V256.586ZM155.428 263.692L151.289 261.289C150.433 260.854 149.486 260.628 148.525 260.628C147.565 260.628 146.618 260.854 145.761 261.289L141.636 263.663C141.304 263.778 141.017 263.994 140.813 264.281C140.609 264.567 140.5 264.91 140.5 265.262C140.5 265.613 140.609 265.956 140.813 266.243C141.017 266.529 141.304 266.745 141.636 266.861L145.775 269.249C146.633 269.68 147.58 269.905 148.54 269.905C149.5 269.905 150.446 269.68 151.304 269.249L155.443 266.847C156.977 265.993 156.962 264.56 155.428 263.677V263.692ZM241.552 313.403L163.591 268.395C162.734 267.96 161.787 267.734 160.826 267.734C159.866 267.734 158.919 267.96 158.062 268.395L153.938 270.768C152.418 271.651 152.49 273.07 153.938 273.967L231.928 318.946C232.784 319.381 233.731 319.607 234.692 319.607C235.652 319.607 236.6 319.381 237.456 318.946L241.566 316.573C243.1 315.704 243.086 314.286 241.552 313.389V313.403ZM253.853 320.509L249.714 318.121C248.856 317.69 247.91 317.465 246.95 317.465C245.99 317.465 245.043 317.69 244.186 318.121L240.061 320.509C238.542 321.377 238.614 322.81 240.061 323.693L244.2 326.095C245.057 326.53 246.004 326.757 246.964 326.757C247.925 326.757 248.872 326.53 249.728 326.095L253.839 323.722C254.182 323.614 254.481 323.401 254.695 323.112C254.908 322.822 255.024 322.473 255.026 322.113C255.028 321.754 254.915 321.403 254.704 321.112C254.493 320.821 254.195 320.605 253.853 320.495V320.509ZM266.154 327.615L262.015 325.227C261.159 324.792 260.212 324.566 259.251 324.566C258.29 324.566 257.343 324.792 256.487 325.227L252.362 327.629C252.03 327.745 251.742 327.961 251.539 328.247C251.335 328.534 251.226 328.877 251.226 329.228C251.226 329.58 251.335 329.923 251.539 330.209C251.742 330.496 252.03 330.712 252.362 330.828L256.501 333.216C257.357 333.654 258.304 333.882 259.266 333.882C260.227 333.882 261.174 333.654 262.03 333.216L266.154 330.842C266.491 330.73 266.785 330.514 266.993 330.226C267.2 329.938 267.312 329.591 267.312 329.236C267.312 328.88 267.2 328.534 266.993 328.246C266.785 327.957 266.491 327.742 266.154 327.629V327.615ZM278.716 334.851L274.519 332.463C273.663 332.028 272.716 331.802 271.755 331.802C270.794 331.802 269.847 332.028 268.991 332.463L264.924 334.865C264.592 334.981 264.304 335.197 264.101 335.483C263.897 335.77 263.787 336.113 263.787 336.464C263.787 336.816 263.897 337.159 264.101 337.445C264.304 337.732 264.592 337.948 264.924 338.064L269.063 340.452C269.919 340.89 270.866 341.118 271.827 341.118C272.788 341.118 273.736 340.89 274.591 340.452L278.702 338.078C279.039 337.967 279.334 337.753 279.543 337.466C279.752 337.178 279.865 336.832 279.867 336.477C279.868 336.122 279.758 335.775 279.552 335.485C279.345 335.196 279.053 334.979 278.716 334.865V334.851Z" fill="url(#paint3_linear_1798:413)"/>
</g>
<g style="mix-blend-mode:screen" opacity="0.3">
<path d="M177.643 274.459L181.782 276.847C182.641 277.282 183.59 277.508 184.553 277.508C185.516 277.508 186.466 277.282 187.325 276.847L191.435 274.473C192.39 273.923 192.737 273.142 192.491 272.433C192.285 272.923 191.91 273.323 191.435 273.562L187.325 275.935C186.466 276.37 185.516 276.597 184.553 276.597C183.59 276.597 182.641 276.37 181.782 275.935L177.643 273.547C177.161 273.299 176.781 272.889 176.572 272.389C176.311 273.127 176.673 273.894 177.643 274.459Z" fill="white"/>
</g>
<g style="mix-blend-mode:screen" opacity="0.3">
<path d="M181.898 263.445L186.674 266.195C187.43 266.584 188.269 266.786 189.119 266.786C189.97 266.786 190.808 266.584 191.565 266.195L196.312 263.46C197.195 262.953 197.484 262.244 197.224 261.593C197.034 262.004 196.713 262.34 196.312 262.548L191.565 265.283C190.807 265.669 189.969 265.869 189.119 265.869C188.269 265.869 187.431 265.669 186.674 265.283L181.898 262.505C181.488 262.296 181.161 261.954 180.972 261.535C180.711 262.215 181.015 262.939 181.898 263.445Z" fill="white"/>
</g>
<g style="mix-blend-mode:screen" opacity="0.3">
<path d="M189.944 281.565L194.083 283.953C194.942 284.387 195.892 284.614 196.854 284.614C197.817 284.614 198.767 284.387 199.626 283.953L203.736 281.579C204.691 281.015 205.038 280.248 204.792 279.524C204.591 280.021 204.216 280.428 203.736 280.667L199.626 283.041C198.767 283.476 197.817 283.702 196.854 283.702C195.892 283.702 194.942 283.476 194.083 283.041L189.944 280.638C189.46 280.399 189.08 279.993 188.873 279.495C188.627 280.219 188.974 281 189.944 281.565Z" fill="white"/>
</g>
<g style="mix-blend-mode:screen" opacity="0.3">
<path d="M214.547 295.791L218.7 298.178C219.557 298.613 220.504 298.84 221.464 298.84C222.425 298.84 223.372 298.613 224.228 298.178L228.338 295.805C229.308 295.255 229.655 294.488 229.395 293.765C229.191 294.259 228.816 294.665 228.338 294.908L224.228 297.238C223.372 297.673 222.425 297.899 221.464 297.899C220.504 297.899 219.557 297.673 218.7 297.238L214.547 294.85C214.065 294.601 213.686 294.191 213.476 293.692C213.23 294.43 213.577 295.212 214.547 295.791Z" fill="white"/>
</g>
<g style="mix-blend-mode:screen" opacity="0.3">
<path d="M202.246 288.67L206.385 291.058C207.245 291.49 208.194 291.714 209.156 291.714C210.118 291.714 211.067 291.49 211.927 291.058L216.037 288.67C216.993 288.12 217.354 287.353 217.094 286.63C216.893 287.127 216.517 287.533 216.037 287.773L211.927 290.146C211.069 290.585 210.12 290.813 209.156 290.813C208.192 290.813 207.243 290.585 206.385 290.146L202.246 287.759C201.762 287.52 201.382 287.113 201.175 286.615C200.929 287.324 201.276 288.106 202.246 288.67Z" fill="white"/>
</g>
<g style="mix-blend-mode:screen" opacity="0.3">
<path d="M246.443 290.002C246.263 290.418 245.939 290.757 245.531 290.957L240.785 293.707C240.024 294.092 239.184 294.293 238.332 294.293C237.479 294.293 236.639 294.092 235.879 293.707L231.103 290.957C230.699 290.74 230.375 290.4 230.177 289.987C229.916 290.639 230.177 291.348 231.103 291.854L235.879 294.618C236.639 295.004 237.479 295.204 238.332 295.204C239.184 295.204 240.024 295.004 240.785 294.618L245.575 291.883C246.4 291.449 246.704 290.667 246.443 290.002Z" fill="white"/>
</g>
<g style="mix-blend-mode:screen" opacity="0.3">
<path d="M221.826 275.819C221.643 276.23 221.327 276.566 220.929 276.774L216.182 279.51C215.422 279.895 214.581 280.096 213.729 280.096C212.877 280.096 212.036 279.895 211.276 279.51L206.5 276.746C206.094 276.532 205.768 276.192 205.574 275.776C205.314 276.427 205.574 277.136 206.5 277.643L211.276 280.407C212.037 280.789 212.877 280.988 213.729 280.988C214.581 280.988 215.421 280.789 216.182 280.407L220.929 277.657C221.797 277.165 222.087 276.471 221.826 275.819Z" fill="white"/>
</g>
<g style="mix-blend-mode:screen" opacity="0.3">
<path d="M194.199 270.551L198.975 273.301C199.733 273.686 200.571 273.887 201.421 273.887C202.271 273.887 203.109 273.686 203.866 273.301L208.628 270.551C209.496 270.059 209.786 269.35 209.525 268.699C209.342 269.109 209.026 269.445 208.628 269.654L203.866 272.389C203.109 272.774 202.271 272.975 201.421 272.975C200.571 272.975 199.733 272.774 198.975 272.389L194.199 269.625C193.789 269.416 193.463 269.074 193.273 268.655C193.012 269.321 193.316 270.03 194.199 270.551Z" fill="white"/>
</g>
<g style="mix-blend-mode:screen" opacity="0.3">
<path d="M258.744 297.122C258.555 297.533 258.234 297.869 257.833 298.077L253.086 300.827C252.324 301.209 251.485 301.408 250.633 301.408C249.781 301.408 248.941 301.209 248.18 300.827L243.404 298.063C242.994 297.858 242.671 297.514 242.492 297.093C242.232 297.744 242.492 298.54 243.404 298.974L248.18 301.724C248.939 302.113 249.78 302.315 250.633 302.315C251.486 302.315 252.327 302.113 253.086 301.724L257.833 298.989C258.701 298.482 259.005 297.773 258.744 297.122Z" fill="white"/>
</g>
<g style="mix-blend-mode:screen" opacity="0.3">
<path d="M248.831 312.376L252.956 310.002C253.911 309.452 254.258 308.671 253.998 307.962C253.798 308.451 253.428 308.852 252.956 309.09L248.831 311.478C247.974 311.91 247.027 312.134 246.067 312.134C245.107 312.134 244.161 311.91 243.303 311.478L239.164 309.09C238.679 308.847 238.298 308.435 238.093 307.933C237.833 308.656 238.194 309.38 239.164 309.988L243.303 312.376C244.159 312.814 245.106 313.042 246.067 313.042C247.028 313.042 247.976 312.814 248.831 312.376Z" fill="white"/>
</g>
<g style="mix-blend-mode:screen" opacity="0.3">
<path d="M165.342 267.353L169.481 269.741C170.336 270.179 171.284 270.408 172.245 270.408C173.206 270.408 174.154 270.179 175.009 269.741L179.134 267.368C180.089 266.818 180.436 266.036 180.19 265.327C179.984 265.817 179.609 266.218 179.134 266.456L175.009 268.844C174.152 269.275 173.205 269.5 172.245 269.5C171.285 269.5 170.338 269.275 169.481 268.844L165.342 266.456C164.86 266.208 164.48 265.798 164.271 265.298C164.01 266.022 164.372 266.847 165.342 267.353Z" fill="white"/>
</g>
<g style="mix-blend-mode:screen" opacity="0.3">
<path d="M271.045 304.228C270.856 304.638 270.535 304.974 270.134 305.183L265.387 307.918C264.629 308.303 263.791 308.504 262.941 308.504C262.091 308.504 261.253 308.303 260.495 307.918L255.705 305.154C255.299 304.944 254.977 304.602 254.793 304.184C254.533 304.836 254.793 305.545 255.705 306.066L260.495 308.815C261.253 309.201 262.091 309.401 262.941 309.401C263.791 309.401 264.629 309.201 265.387 308.815L270.134 306.066C271.002 305.588 271.306 304.879 271.045 304.228Z" fill="white"/>
</g>
<g style="mix-blend-mode:screen" opacity="0.3">
<path d="M176.109 246.918L180.364 249.379C181.203 249.803 182.13 250.025 183.07 250.025C184.01 250.025 184.937 249.803 185.776 249.379L190.002 246.947C190.943 246.397 191.29 245.63 191.03 244.936C190.829 245.413 190.465 245.803 190.002 246.036L185.776 248.481C184.937 248.906 184.01 249.127 183.07 249.127C182.13 249.127 181.203 248.906 180.364 248.481L176.109 246.007C175.637 245.77 175.263 245.376 175.052 244.892C174.763 245.601 175.11 246.368 176.109 246.918Z" fill="white"/>
</g>
<g style="mix-blend-mode:screen" opacity="0.3">
<path d="M234.127 282.925C233.944 283.335 233.628 283.672 233.23 283.88L228.483 286.616C227.723 287.001 226.882 287.202 226.03 287.202C225.178 287.202 224.337 287.001 223.577 286.616L218.801 283.866C218.395 283.653 218.069 283.312 217.875 282.896C217.615 283.547 217.875 284.257 218.801 284.763L223.577 287.527C224.337 287.913 225.178 288.113 226.03 288.113C226.882 288.113 227.723 287.913 228.483 287.527L233.23 284.792C234.098 284.213 234.402 283.562 234.127 282.925Z" fill="white"/>
</g>
<g style="mix-blend-mode:screen" opacity="0.3">
<path d="M226.862 302.867L231.001 305.27C231.858 305.704 232.805 305.931 233.765 305.931C234.726 305.931 235.673 305.704 236.53 305.27L240.64 302.896C241.609 302.346 241.957 301.565 241.696 300.856C241.492 301.351 241.117 301.756 240.64 301.999L236.53 304.372C235.673 304.807 234.726 305.034 233.765 305.034C232.805 305.034 231.858 304.807 231.001 304.372L226.862 301.984C226.377 301.736 225.993 301.327 225.777 300.827C225.531 301.579 225.893 302.317 226.862 302.867Z" fill="white"/>
</g>
<g style="mix-blend-mode:screen" opacity="0.3">
<path d="M277.254 294.647C277.073 295.064 276.75 295.402 276.342 295.602L271.596 298.352C270.838 298.737 270 298.938 269.15 298.938C268.3 298.938 267.462 298.737 266.704 298.352L261.914 295.602C261.507 295.394 261.185 295.051 261.002 294.633C260.741 295.284 261.002 295.993 261.914 296.499L266.704 299.264C267.462 299.649 268.3 299.85 269.15 299.85C270 299.85 270.838 299.649 271.596 299.264L276.342 296.528C277.211 296.007 277.515 295.298 277.254 294.647Z" fill="white"/>
</g>
<g style="mix-blend-mode:screen" opacity="0.3">
<path d="M251.74 281.405L247.022 284.213C246.262 284.598 245.421 284.799 244.569 284.799C243.717 284.799 242.876 284.598 242.116 284.213L237.34 281.449C236.931 281.24 236.604 280.898 236.414 280.479C236.154 281.13 236.414 281.84 237.34 282.346L242.116 285.11C242.876 285.496 243.717 285.696 244.569 285.696C245.421 285.696 246.262 285.496 247.022 285.11L251.769 282.361C252.637 281.854 252.941 281.159 252.681 280.508C252.469 280.899 252.14 281.213 251.74 281.405Z" fill="white"/>
</g>
<g style="mix-blend-mode:screen" opacity="0.3">
<path d="M245.112 264.719L240.886 267.165C240.045 267.59 239.115 267.811 238.173 267.811C237.23 267.811 236.301 267.59 235.459 267.165L231.204 264.704C230.737 264.467 230.368 264.073 230.162 263.59C229.902 264.299 230.249 265.037 231.204 265.616L235.459 268.062C236.3 268.49 237.229 268.713 238.173 268.713C239.116 268.713 240.046 268.49 240.886 268.062L245.112 265.616C246.053 265.081 246.4 264.314 246.14 263.605C245.936 264.083 245.573 264.477 245.112 264.719Z" fill="white"/>
</g>
<g style="mix-blend-mode:screen" opacity="0.3">
<path d="M232.81 257.613L228.585 260.059C227.743 260.484 226.814 260.705 225.871 260.705C224.928 260.705 223.999 260.484 223.158 260.059L218.903 257.599C218.435 257.362 218.066 256.967 217.861 256.485C217.6 257.194 217.948 257.932 218.903 258.511L223.158 260.971C223.999 261.396 224.928 261.617 225.871 261.617C226.814 261.617 227.743 261.396 228.585 260.971L232.81 258.54C233.751 257.99 234.084 257.223 233.838 256.528C233.631 256.997 233.268 257.381 232.81 257.613Z" fill="white"/>
</g>
<g style="mix-blend-mode:screen" opacity="0.3">
<path d="M269.714 278.93L265.488 281.318C264.647 281.743 263.717 281.965 262.775 281.965C261.832 281.965 260.903 281.743 260.061 281.318L255.806 278.858C255.335 278.619 254.965 278.219 254.764 277.729C254.518 278.438 254.866 279.176 255.806 279.755L260.061 282.216C260.903 282.64 261.832 282.862 262.775 282.862C263.717 282.862 264.647 282.64 265.488 282.216L269.714 279.77C270.655 279.22 271.002 278.467 270.742 277.758C270.555 278.262 270.189 278.679 269.714 278.93Z" fill="white"/>
</g>
<g style="mix-blend-mode:screen" opacity="0.3">
<path d="M257.413 271.825L253.187 274.256C252.347 274.684 251.417 274.907 250.474 274.907C249.531 274.907 248.601 274.684 247.76 274.256L243.506 271.796C243.038 271.558 242.669 271.164 242.464 270.681C242.203 271.376 242.55 272.129 243.506 272.693L247.76 275.153C248.602 275.578 249.531 275.799 250.474 275.799C251.417 275.799 252.346 275.578 253.187 275.153L257.413 272.708C258.354 272.172 258.701 271.405 258.441 270.696C258.245 271.183 257.88 271.584 257.413 271.825Z" fill="white"/>
</g>
<g style="mix-blend-mode:screen" opacity="0.3">
<path d="M220.509 250.508L216.269 252.953C215.43 253.378 214.503 253.599 213.563 253.599C212.622 253.599 211.695 253.378 210.856 252.953L206.602 250.493C206.134 250.256 205.765 249.861 205.56 249.379C205.299 250.088 205.646 250.826 206.602 251.405L210.842 253.822C211.68 254.25 212.607 254.473 213.548 254.473C214.489 254.473 215.417 254.25 216.254 253.822L220.495 251.39C221.435 250.84 221.768 250.088 221.522 249.379C221.331 249.865 220.972 250.265 220.509 250.508Z" fill="white"/>
</g>
<g style="mix-blend-mode:screen" opacity="0.3">
<path d="M208.193 243.402L203.968 245.847C203.13 246.275 202.202 246.499 201.261 246.499C200.32 246.499 199.393 246.275 198.555 245.847L194.3 243.402C193.829 243.163 193.459 242.762 193.258 242.273C192.998 242.982 193.345 243.72 194.3 244.299L198.555 246.759C199.394 247.184 200.321 247.405 201.261 247.405C202.202 247.405 203.129 247.184 203.968 246.759L208.193 244.313C209.149 243.763 209.482 243.011 209.235 242.302C209.033 242.782 208.662 243.173 208.193 243.402Z" fill="white"/>
</g>
<g style="mix-blend-mode:screen" opacity="0.3">
<path d="M169.698 230.087L173.952 232.533C174.791 232.958 175.718 233.179 176.659 233.179C177.599 233.179 178.526 232.958 179.365 232.533L183.591 230.087C184.531 229.552 184.879 228.785 184.618 228.076C184.42 228.558 184.055 228.953 183.591 229.19L179.365 231.621C178.527 232.05 177.6 232.273 176.659 232.273C175.718 232.273 174.79 232.05 173.952 231.621L169.698 229.161C169.223 228.929 168.848 228.533 168.641 228.047C168.395 228.77 168.742 229.523 169.698 230.087Z" fill="white"/>
</g>
<g style="mix-blend-mode:screen" opacity="0.3">
<path d="M195.892 236.31L191.666 238.742C190.828 239.166 189.9 239.388 188.96 239.388C188.02 239.388 187.093 239.166 186.254 238.742L181.999 236.281C181.531 236.04 181.159 235.647 180.943 235.167C180.697 235.862 181.044 236.614 181.999 237.179L186.254 239.639C187.093 240.064 188.02 240.285 188.96 240.285C189.9 240.285 190.828 240.064 191.666 239.639L195.892 237.193C196.847 236.643 197.18 235.891 196.92 235.181C196.724 235.669 196.359 236.07 195.892 236.31Z" fill="white"/>
</g>
<g style="mix-blend-mode:screen" opacity="0.3">
<path d="M214.576 260.247L210.336 262.678C209.498 263.106 208.57 263.33 207.629 263.33C206.688 263.33 205.761 263.106 204.923 262.678L200.668 260.218C200.201 259.981 199.832 259.586 199.626 259.104C199.366 259.798 199.713 260.551 200.668 261.115L204.923 263.576C205.762 264 206.689 264.222 207.629 264.222C208.57 264.222 209.497 264 210.336 263.576L214.576 261.13C215.517 260.594 215.849 259.827 215.603 259.118C215.402 259.602 215.039 260.002 214.576 260.247Z" fill="white"/>
</g>
<g style="mix-blend-mode:screen" opacity="0.3">
<path d="M227.137 267.194L222.391 269.944C221.629 270.325 220.789 270.524 219.938 270.524C219.086 270.524 218.246 270.325 217.485 269.944L212.709 267.179C212.299 266.971 211.972 266.629 211.783 266.21C211.522 266.861 211.783 267.585 212.709 268.091L217.485 270.841C218.244 271.229 219.085 271.432 219.938 271.432C220.791 271.432 221.631 271.229 222.391 270.841L227.137 268.106C228.006 267.599 228.295 266.89 228.035 266.239C227.852 266.649 227.535 266.985 227.137 267.194Z" fill="white"/>
</g>
<g style="mix-blend-mode:screen" opacity="0.3">
<path d="M264.041 288.555L259.295 291.29C258.535 291.679 257.695 291.881 256.842 291.881C255.989 291.881 255.148 291.679 254.389 291.29L249.613 288.54C249.206 288.327 248.881 287.986 248.687 287.571C248.426 288.222 248.687 288.931 249.613 289.437L254.389 292.202C255.15 292.584 255.99 292.782 256.842 292.782C257.693 292.782 258.533 292.584 259.295 292.202L264.041 289.452C264.91 288.945 265.214 288.236 264.953 287.599C264.764 288.01 264.443 288.346 264.041 288.555Z" fill="white"/>
</g>
<g style="mix-blend-mode:screen" opacity="0.3">
<path d="M239.439 274.3L234.692 276.977C233.932 277.362 233.091 277.563 232.239 277.563C231.387 277.563 230.546 277.362 229.786 276.977L225.01 274.213C224.6 274.004 224.274 273.662 224.084 273.243C223.823 273.894 224.084 274.604 225.01 275.125L229.786 277.874C230.546 278.259 231.387 278.46 232.239 278.46C233.091 278.46 233.932 278.259 234.692 277.874L239.439 275.125C240.307 274.632 240.596 273.923 240.336 273.272C240.167 273.709 239.849 274.073 239.439 274.3Z" fill="white"/>
</g>
<g style="mix-blend-mode:screen" opacity="0.3">
<path d="M282.015 286.022L277.789 288.467C276.952 288.896 276.024 289.119 275.083 289.119C274.142 289.119 273.215 288.896 272.377 288.467L268.122 286.022C267.647 285.783 267.272 285.383 267.066 284.893C266.82 285.602 267.167 286.34 268.122 286.919L272.377 289.379C273.216 289.804 274.143 290.025 275.083 290.025C276.023 290.025 276.951 289.804 277.789 289.379L282.015 286.933C282.956 286.383 283.303 285.631 283.043 284.922C282.847 285.402 282.481 285.794 282.015 286.022Z" fill="white"/>
</g>
<g style="mix-blend-mode:screen" opacity="0.3">
<path d="M289.556 301.753C289.366 302.164 289.045 302.5 288.644 302.708L283.897 305.458C283.138 305.84 282.301 306.039 281.451 306.039C280.602 306.039 279.764 305.84 279.006 305.458L274.23 302.694C273.821 302.491 273.494 302.154 273.304 301.739C273.043 302.39 273.304 303.099 274.23 303.606L279.006 306.37C279.763 306.755 280.601 306.956 281.451 306.956C282.301 306.956 283.139 306.755 283.897 306.37L288.644 303.635C289.527 303.114 289.816 302.404 289.556 301.753Z" fill="white"/>
</g>
<g style="mix-blend-mode:screen" opacity="0.3">
<path d="M294.317 293.128L290.091 295.574C289.252 295.998 288.325 296.22 287.385 296.22C286.444 296.22 285.517 295.998 284.678 295.574L280.424 293.113C279.956 292.872 279.583 292.479 279.367 291.999C279.121 292.708 279.468 293.446 280.424 294.025L284.678 296.485C285.516 296.913 286.444 297.137 287.385 297.137C288.326 297.137 289.253 296.913 290.091 296.485L294.317 294.054C295.272 293.504 295.605 292.737 295.359 292.042C295.145 292.512 294.777 292.895 294.317 293.128Z" fill="white"/>
</g>
<g style="mix-blend-mode:screen" opacity="0.3">
<path d="M188.367 254.024L192.622 256.47C193.459 256.898 194.387 257.121 195.328 257.121C196.269 257.121 197.196 256.898 198.034 256.47L202.26 254.024C203.215 253.489 203.548 252.722 203.287 252.013C203.089 252.495 202.724 252.89 202.26 253.127L198.034 255.573C197.195 255.997 196.268 256.219 195.328 256.219C194.388 256.219 193.46 255.997 192.622 255.573L188.367 253.112C187.899 252.871 187.526 252.478 187.31 251.998C187.064 252.707 187.412 253.474 188.367 254.024Z" fill="white"/>
</g>
<g style="mix-blend-mode:screen" opacity="0.3">
<path d="M266.314 315.067C266.098 315.552 265.726 315.949 265.257 316.196L261.133 318.57C260.276 319.004 259.329 319.231 258.369 319.231C257.408 319.231 256.461 319.004 255.604 318.57L251.465 316.182C250.983 315.934 250.604 315.524 250.394 315.024C250.134 315.748 250.496 316.471 251.465 317.079L255.604 319.467C256.461 319.902 257.408 320.128 258.369 320.128C259.329 320.128 260.276 319.902 261.133 319.467L265.257 317.093C266.212 316.544 266.56 315.776 266.314 315.067Z" fill="white"/>
</g>
<g style="mix-blend-mode:screen" opacity="0.3">
<path d="M169.597 256.34L174.372 259.104C175.13 259.489 175.968 259.69 176.818 259.69C177.668 259.69 178.506 259.489 179.264 259.104L184.011 256.369C184.894 255.862 185.183 255.153 184.922 254.502C184.733 254.912 184.412 255.248 184.011 255.457L179.264 258.207C178.505 258.588 177.668 258.787 176.818 258.787C175.969 258.787 175.131 258.588 174.372 258.207L169.597 255.443C169.184 255.238 168.856 254.895 168.67 254.473C168.41 255.11 168.714 255.833 169.597 256.34Z" fill="white"/>
</g>
<g style="mix-blend-mode:screen" opacity="0.3">
<path d="M131.896 250.623C131.69 251.113 131.316 251.514 130.84 251.752L126.73 254.125C125.871 254.56 124.921 254.787 123.958 254.787C122.996 254.787 122.046 254.56 121.187 254.125L111.592 248.583C111.11 248.335 110.731 247.925 110.521 247.425C110.261 248.148 110.622 248.872 111.592 249.48L121.187 255.023C122.046 255.458 122.996 255.684 123.958 255.684C124.921 255.684 125.871 255.458 126.73 255.023L130.84 252.649C131.795 252.114 132.157 251.332 131.896 250.623Z" fill="white"/>
</g>
<g style="mix-blend-mode:screen" opacity="0.3">
<path d="M144.27 257.714C144.069 258.212 143.693 258.618 143.214 258.858L139.104 261.231C138.247 261.666 137.3 261.893 136.339 261.893C135.379 261.893 134.432 261.666 133.575 261.231L129.422 258.829C128.941 258.586 128.562 258.181 128.351 257.686C128.105 258.395 128.452 259.133 129.422 259.741L133.575 262.128C134.432 262.563 135.379 262.79 136.339 262.79C137.3 262.79 138.247 262.563 139.104 262.128L143.214 259.755C144.111 259.205 144.458 258.438 144.27 257.714Z" fill="white"/>
</g>
<g style="mix-blend-mode:screen" opacity="0.3">
<path d="M122.982 242.91L144.878 255.544C145.735 255.979 146.682 256.205 147.642 256.205C148.603 256.205 149.55 255.979 150.406 255.544L154.517 253.17C155.486 252.62 155.834 251.853 155.573 251.13C155.372 251.627 154.996 252.034 154.517 252.273L150.406 254.647C149.55 255.081 148.603 255.308 147.642 255.308C146.682 255.308 145.735 255.081 144.878 254.647L122.982 242.012C122.504 241.765 122.126 241.362 121.911 240.869C121.665 241.564 122.012 242.345 122.982 242.91Z" fill="white"/>
</g>
<g style="mix-blend-mode:screen" opacity="0.3">
<path d="M242.68 314.604C242.476 315.099 242.101 315.505 241.624 315.747L237.514 318.121C236.657 318.556 235.71 318.782 234.75 318.782C233.789 318.782 232.842 318.556 231.986 318.121L153.967 273.04C153.478 272.801 153.096 272.388 152.896 271.883C152.635 272.606 152.997 273.33 153.967 273.952L231.928 318.946C232.784 319.381 233.731 319.607 234.692 319.607C235.652 319.607 236.599 319.381 237.456 318.946L241.566 316.572C242.536 316.051 242.883 315.27 242.68 314.604Z" fill="white"/>
</g>
<g style="mix-blend-mode:screen" opacity="0.3">
<path d="M156.499 264.82C156.298 265.317 155.922 265.724 155.443 265.964L151.333 268.294C150.477 268.732 149.53 268.96 148.568 268.96C147.607 268.96 146.66 268.732 145.804 268.294L141.665 265.906C141.178 265.667 140.792 265.262 140.58 264.762C140.334 265.472 140.681 266.21 141.665 266.817L145.804 269.205C146.662 269.637 147.608 269.862 148.568 269.862C149.528 269.862 150.475 269.637 151.333 269.205L155.443 266.846C156.412 266.311 156.76 265.544 156.499 264.82Z" fill="white"/>
</g>
<g style="mix-blend-mode:screen" opacity="0.3">
<path d="M134.328 235.977L149.755 244.892C150.516 245.274 151.356 245.473 152.208 245.473C153.06 245.473 153.9 245.274 154.661 244.892L159.408 242.143C160.276 241.636 160.58 240.927 160.32 240.29C160.13 240.701 159.809 241.037 159.408 241.245L154.661 243.981C153.902 244.369 153.061 244.572 152.208 244.572C151.355 244.572 150.514 244.369 149.755 243.981L134.328 235.08C133.922 234.871 133.6 234.529 133.416 234.111C133.156 234.762 133.46 235.471 134.328 235.977Z" fill="white"/>
</g>
<g style="mix-blend-mode:screen" opacity="0.3">
<path d="M157.382 222.982L161.637 225.427C162.477 225.856 163.407 226.079 164.351 226.079C165.294 226.079 166.224 225.856 167.064 225.427L171.29 222.982C172.231 222.446 172.578 221.679 172.317 220.985C172.117 221.462 171.753 221.852 171.29 222.084L167.064 224.53C166.223 224.955 165.293 225.176 164.351 225.176C163.408 225.176 162.478 224.955 161.637 224.53L157.382 222.07C156.915 221.833 156.546 221.438 156.34 220.956C156.094 221.665 156.427 222.432 157.382 222.982Z" fill="white"/>
</g>
<g style="mix-blend-mode:screen" opacity="0.3">
<path d="M145.992 229.552L155.703 235.167C156.545 235.592 157.474 235.813 158.417 235.813C159.359 235.813 160.289 235.592 161.13 235.167L165.356 232.721C166.297 232.171 166.644 231.419 166.384 230.71C166.188 231.19 165.822 231.582 165.356 231.81L161.13 234.255C160.29 234.684 159.36 234.907 158.417 234.907C157.473 234.907 156.544 234.684 155.703 234.255L145.992 228.655C145.521 228.416 145.151 228.015 144.95 227.526C144.69 228.235 145.037 229.002 145.992 229.552Z" fill="white"/>
</g>
<g style="mix-blend-mode:screen" opacity="0.3">
<path d="M313.507 317.065L308.76 319.814C308.001 320.196 307.164 320.395 306.314 320.395C305.465 320.395 304.627 320.196 303.868 319.814L299.122 317.036C298.716 316.826 298.394 316.484 298.21 316.066C297.949 316.717 298.21 317.513 299.122 317.948L303.912 320.697C304.668 321.086 305.507 321.288 306.358 321.288C307.208 321.288 308.047 321.086 308.803 320.697L313.55 317.962C314.433 317.456 314.722 316.746 314.462 316.095C314.264 316.518 313.927 316.86 313.507 317.065Z" fill="white"/>
</g>
<g style="mix-blend-mode:screen" opacity="0.3">
<path d="M168.453 216.194L178.83 222.186C179.567 222.56 180.383 222.756 181.21 222.756C182.038 222.756 182.854 222.56 183.591 222.186C184.445 221.693 184.734 220.999 184.474 220.377C184.285 220.767 183.975 221.087 183.591 221.288C182.854 221.663 182.038 221.859 181.21 221.859C180.383 221.859 179.567 221.663 178.83 221.288L168.453 215.297C168.058 215.099 167.742 214.772 167.556 214.371C167.296 215.007 167.585 215.702 168.453 216.194Z" fill="white"/>
</g>
<g style="mix-blend-mode:screen" opacity="0.3">
<path d="M302.117 323.649L297.37 326.384C296.61 326.77 295.77 326.97 294.917 326.97C294.065 326.97 293.224 326.77 292.464 326.384L280.308 319.365C279.901 319.152 279.576 318.812 279.381 318.396C279.121 319.047 279.381 319.756 280.308 320.263L292.45 327.282C293.211 327.664 294.051 327.862 294.903 327.862C295.754 327.862 296.594 327.664 297.356 327.282L302.103 324.532C302.971 324.025 303.275 323.331 303.014 322.679C302.827 323.09 302.512 323.43 302.117 323.649Z" fill="white"/>
</g>
<g style="mix-blend-mode:screen" opacity="0.3">
<path d="M324.651 310.639L320.425 313.157C319.583 313.582 318.654 313.803 317.711 313.803C316.769 313.803 315.839 313.582 314.998 313.157L305.287 307.542C304.819 307.301 304.447 306.908 304.23 306.428C303.984 307.137 304.332 307.875 305.287 308.454L314.998 314.055C315.838 314.483 316.768 314.706 317.711 314.706C318.654 314.706 319.584 314.483 320.425 314.055L324.651 311.609C325.591 311.073 325.924 310.306 325.678 309.597C325.461 310.049 325.099 310.415 324.651 310.639Z" fill="white"/>
</g>
<g style="mix-blend-mode:screen" opacity="0.3">
<path d="M254.924 321.652C254.72 322.147 254.345 322.553 253.868 322.796L249.758 325.169C248.9 325.6 247.953 325.825 246.993 325.825C246.033 325.825 245.087 325.6 244.229 325.169L240.09 322.781C239.605 322.533 239.221 322.124 239.005 321.623C238.759 322.347 239.121 323.07 240.09 323.678L244.229 326.081C245.086 326.515 246.033 326.742 246.993 326.742C247.954 326.742 248.901 326.515 249.758 326.081L253.868 323.707C254.837 323.143 255.185 322.361 254.924 321.652Z" fill="white"/>
</g>
<g style="mix-blend-mode:screen" opacity="0.3">
<path d="M331.481 306.688C330.744 307.063 329.928 307.258 329.101 307.258C328.273 307.258 327.458 307.063 326.72 306.688L321.814 303.794C321.419 303.595 321.102 303.269 320.917 302.867C320.656 303.504 320.917 304.199 321.814 304.705L326.72 307.6C327.458 307.975 328.273 308.17 329.101 308.17C329.928 308.17 330.744 307.975 331.481 307.6C332.335 307.093 332.625 306.413 332.364 305.776C332.18 306.17 331.869 306.491 331.481 306.688Z" fill="white"/>
</g>
<g style="mix-blend-mode:screen" opacity="0.3">
<path d="M267.283 328.758C267.083 329.247 266.713 329.648 266.241 329.887L262.117 332.275C261.259 332.706 260.312 332.931 259.352 332.931C258.392 332.931 257.446 332.706 256.588 332.275L252.449 329.887C251.964 329.643 251.583 329.232 251.378 328.729C251.118 329.453 251.48 330.176 252.449 330.784L256.588 333.172C257.445 333.607 258.392 333.833 259.352 333.833C260.313 333.833 261.26 333.607 262.117 333.172L266.241 330.799C267.138 330.249 267.486 329.467 267.283 328.758Z" fill="white"/>
</g>
<g style="mix-blend-mode:screen" opacity="0.3">
<path d="M278.731 337.138L274.621 339.525C273.763 339.957 272.816 340.182 271.856 340.182C270.896 340.182 269.95 339.957 269.092 339.525L264.939 337.138C264.46 336.885 264.082 336.476 263.868 335.98C263.622 336.703 263.969 337.427 264.939 338.035L269.092 340.423C269.948 340.861 270.895 341.089 271.856 341.089C272.818 341.089 273.765 340.861 274.621 340.423L278.731 338.049C279.7 337.499 280.048 336.718 279.787 336.009C279.585 336.502 279.209 336.904 278.731 337.138Z" fill="white"/>
</g>
<g style="mix-blend-mode:screen" opacity="0.3">
<path d="M290.134 330.524L286.01 332.897C285.153 333.332 284.206 333.559 283.245 333.559C282.285 333.559 281.338 333.332 280.481 332.897L276.342 330.524C275.857 330.28 275.476 329.869 275.271 329.366C275.011 330.09 275.373 330.813 276.342 331.436L280.481 333.824C281.338 334.258 282.285 334.485 283.245 334.485C284.206 334.485 285.153 334.258 286.01 333.824L290.134 331.45C291.089 330.9 291.437 330.133 291.191 329.41C290.976 329.89 290.603 330.284 290.134 330.524Z" fill="white"/>
</g>
<g style="mix-blend-mode:screen" opacity="0.3">
<path d="M272.334 276.181L277.254 279.075C277.992 279.45 278.807 279.646 279.635 279.646C280.462 279.646 281.278 279.45 282.015 279.075C282.869 278.583 283.159 277.889 282.898 277.252C282.706 277.644 282.398 277.967 282.015 278.178C281.278 278.553 280.462 278.748 279.635 278.748C278.807 278.748 277.992 278.553 277.254 278.178L272.334 275.284C271.948 275.077 271.639 274.752 271.451 274.357C271.19 274.994 271.48 275.689 272.334 276.181Z" fill="white"/>
</g>
<g style="mix-blend-mode:screen" opacity="0.3">
<path d="M301.857 308.815C301.667 309.226 301.347 309.562 300.945 309.77L296.198 312.52C295.44 312.902 294.602 313.101 293.753 313.101C292.903 313.101 292.066 312.902 291.307 312.52L286.531 309.756C286.121 309.547 285.795 309.205 285.605 308.786C285.344 309.438 285.605 310.161 286.531 310.668L291.307 313.417C292.064 313.806 292.902 314.009 293.753 314.009C294.603 314.009 295.442 313.806 296.198 313.417L300.945 310.682C301.828 310.263 302.117 309.51 301.857 308.815Z" fill="white"/>
</g>
<g style="mix-blend-mode:screen" opacity="0.3">
<path d="M307.66 299.134C307.456 299.609 307.092 299.997 306.633 300.234L302.392 302.68C301.554 303.104 300.626 303.326 299.686 303.326C298.746 303.326 297.819 303.104 296.98 302.68L292.725 300.219C292.257 299.982 291.889 299.587 291.683 299.105C291.423 299.814 291.77 300.552 292.725 301.131L296.98 303.591C297.819 304.016 298.746 304.237 299.686 304.237C300.626 304.237 301.554 304.016 302.392 303.591L306.633 301.146C307.573 300.596 307.906 299.829 307.66 299.134Z" fill="white"/>
</g>
<g style="mix-blend-mode:screen" opacity="0.3">
<path d="M309.252 297.498L314.158 300.393C314.895 300.771 315.711 300.968 316.539 300.968C317.367 300.968 318.183 300.771 318.919 300.393C319.773 299.901 320.063 299.22 319.802 298.584C319.618 298.977 319.307 299.298 318.919 299.495C318.182 299.87 317.366 300.066 316.539 300.066C315.711 300.066 314.896 299.87 314.158 299.495L309.252 296.601C308.857 296.403 308.541 296.076 308.355 295.675C308.094 296.297 308.384 296.992 309.252 297.498Z" fill="white"/>
</g>
<g style="mix-blend-mode:screen" opacity="0.3">
<path d="M283.347 311.334C283.158 311.744 282.837 312.08 282.435 312.289L277.689 315.024C276.931 315.409 276.093 315.61 275.243 315.61C274.393 315.61 273.555 315.409 272.797 315.024L268.021 312.26C267.609 312.055 267.281 311.712 267.095 311.29C266.835 311.942 267.095 312.651 268.021 313.172L272.797 315.921C273.555 316.306 274.393 316.507 275.243 316.507C276.093 316.507 276.931 316.306 277.689 315.921L282.435 313.172C283.318 312.68 283.608 311.985 283.347 311.334Z" fill="white"/>
</g>
<g style="mix-blend-mode:screen" opacity="0.3">
<path d="M157.295 249.234L162.086 251.998C162.843 252.383 163.681 252.584 164.531 252.584C165.381 252.584 166.219 252.383 166.977 251.998L171.724 249.263C172.592 248.757 172.896 248.047 172.636 247.396C172.455 247.813 172.132 248.151 171.724 248.351L166.977 251.101C166.219 251.486 165.381 251.687 164.531 251.687C163.681 251.687 162.843 251.486 162.086 251.101L157.295 248.337C156.889 248.128 156.567 247.786 156.384 247.367C156.109 248.033 156.398 248.728 157.295 249.234Z" fill="white"/>
</g>
<g style="mix-blend-mode:screen" opacity="0.3">
<path d="M278.615 322.159C278.409 322.653 278.035 323.058 277.558 323.302L273.434 325.676C272.577 326.11 271.63 326.337 270.67 326.337C269.709 326.337 268.762 326.11 267.905 325.676L263.766 323.288C263.283 323.049 262.902 322.643 262.695 322.145C262.435 322.854 262.797 323.592 263.766 324.2L267.905 326.587C268.762 327.022 269.709 327.249 270.67 327.249C271.63 327.249 272.577 327.022 273.434 326.587L277.558 324.214C278.513 323.65 278.861 322.883 278.615 322.159Z" fill="white"/>
</g>
<g style="mix-blend-mode:screen" opacity="0.3">
<path d="M186.239 226.469L191.16 229.364C191.897 229.739 192.713 229.934 193.541 229.934C194.368 229.934 195.184 229.739 195.921 229.364C196.775 228.872 197.065 228.177 196.804 227.54C196.62 227.938 196.31 228.264 195.921 228.466C195.184 228.841 194.368 229.037 193.541 229.037C192.713 229.037 191.897 228.841 191.16 228.466L186.239 225.572C185.854 225.365 185.545 225.041 185.357 224.646C185.067 225.268 185.357 225.963 186.239 226.469Z" fill="white"/>
</g>
<g style="mix-blend-mode:screen" opacity="0.3">
<path d="M153.04 260.247L157.179 262.649C158.036 263.084 158.983 263.311 159.943 263.311C160.904 263.311 161.851 263.084 162.708 262.649L166.832 260.276C167.787 259.726 168.135 258.959 167.889 258.235C167.675 258.725 167.303 259.127 166.832 259.379L162.708 261.752C161.851 262.187 160.904 262.414 159.943 262.414C158.983 262.414 158.036 262.187 157.179 261.752L153.04 259.364C152.558 259.117 152.179 258.707 151.969 258.207C151.709 258.916 152.071 259.697 153.04 260.247Z" fill="white"/>
</g>
<g style="mix-blend-mode:screen" opacity="0.3">
<path d="M296.951 290.392L301.857 293.287C302.595 293.662 303.41 293.857 304.238 293.857C305.065 293.857 305.881 293.662 306.618 293.287C307.472 292.795 307.762 292.1 307.501 291.463C307.317 291.857 307.006 292.178 306.618 292.375C305.88 292.746 305.065 292.94 304.238 292.94C303.411 292.94 302.596 292.746 301.857 292.375L296.951 289.48C296.557 289.273 296.242 288.943 296.054 288.54C295.793 289.191 296.083 289.9 296.951 290.392Z" fill="white"/>
</g>
<g style="mix-blend-mode:screen" opacity="0.3">
<path d="M235.444 254.878L240.365 257.772C241.102 258.147 241.918 258.343 242.746 258.343C243.573 258.343 244.389 258.147 245.126 257.772C245.98 257.266 246.255 256.586 245.994 255.949C245.815 256.342 245.51 256.663 245.126 256.861C244.389 257.236 243.573 257.431 242.746 257.431C241.918 257.431 241.102 257.236 240.365 256.861L235.444 253.966C235.049 253.768 234.733 253.441 234.547 253.04C234.272 253.677 234.562 254.371 235.444 254.878Z" fill="white"/>
</g>
<g style="mix-blend-mode:screen" opacity="0.3">
<path d="M210.842 240.666L215.748 243.561C216.485 243.936 217.301 244.131 218.128 244.131C218.956 244.131 219.771 243.936 220.509 243.561C221.363 243.069 221.652 242.374 221.392 241.737C221.207 242.131 220.896 242.452 220.509 242.649C219.771 243.024 218.956 243.219 218.128 243.219C217.301 243.219 216.485 243.024 215.748 242.649L210.842 239.755C210.452 239.548 210.138 239.224 209.944 238.828C209.669 239.48 209.959 240.174 210.842 240.666Z" fill="white"/>
</g>
<g style="mix-blend-mode:screen" opacity="0.3">
<path d="M223.129 247.772L228.035 250.667C228.775 251.042 229.593 251.237 230.423 251.237C231.252 251.237 232.07 251.042 232.81 250.667C233.664 250.174 233.939 249.48 233.679 248.843C233.495 249.233 233.191 249.552 232.81 249.755C232.07 250.13 231.252 250.325 230.423 250.325C229.593 250.325 228.775 250.13 228.035 249.755L223.129 246.86C222.735 246.653 222.42 246.323 222.231 245.92C221.971 246.585 222.26 247.28 223.129 247.772Z" fill="white"/>
</g>
<g style="mix-blend-mode:screen" opacity="0.3">
<path d="M198.526 233.561L203.432 236.455C204.17 236.83 204.985 237.025 205.813 237.025C206.64 237.025 207.456 236.83 208.193 236.455C209.047 235.963 209.337 235.268 209.076 234.631C208.892 235.029 208.582 235.355 208.193 235.558C207.456 235.933 206.64 236.128 205.813 236.128C204.985 236.128 204.17 235.933 203.432 235.558L198.526 232.663C198.134 232.46 197.819 232.135 197.629 231.737C197.368 232.374 197.658 233.068 198.526 233.561Z" fill="white"/>
</g>
<g style="mix-blend-mode:screen" opacity="0.3">
<path d="M247.731 261.984L252.652 264.878C253.389 265.253 254.205 265.449 255.033 265.449C255.86 265.449 256.676 265.253 257.413 264.878C258.267 264.386 258.542 263.692 258.281 263.069C258.102 263.462 257.797 263.783 257.413 263.981C256.676 264.356 255.86 264.551 255.033 264.551C254.205 264.551 253.389 264.356 252.652 263.981L247.731 261.087C247.339 260.889 247.028 260.561 246.849 260.16C246.574 260.783 246.863 261.477 247.731 261.984Z" fill="white"/>
</g>
<g style="mix-blend-mode:screen" opacity="0.3">
<path d="M163.75 239.813L168.004 242.273C168.845 242.701 169.775 242.924 170.718 242.924C171.661 242.924 172.591 242.701 173.431 242.273L177.657 239.842C178.598 239.292 178.945 238.539 178.685 237.83C178.489 238.31 178.123 238.702 177.657 238.93L173.431 241.376C172.59 241.8 171.661 242.022 170.718 242.022C169.775 242.022 168.846 241.8 168.004 241.376L163.75 238.915C163.282 238.678 162.913 238.283 162.708 237.801C162.462 238.496 162.794 239.263 163.75 239.813Z" fill="white"/>
</g>
<g style="mix-blend-mode:screen" opacity="0.3">
<path d="M260.047 269.09L264.968 271.984C265.705 272.359 266.521 272.554 267.348 272.554C268.176 272.554 268.992 272.359 269.729 271.984C270.583 271.492 270.872 270.797 270.597 270.161C270.424 270.561 270.117 270.888 269.729 271.087C268.992 271.462 268.176 271.657 267.348 271.657C266.521 271.657 265.705 271.462 264.968 271.087L260.047 268.192C259.655 267.994 259.344 267.667 259.164 267.266C258.89 267.888 259.179 268.583 260.047 269.09Z" fill="white"/>
</g>
<g style="mix-blend-mode:screen" opacity="0.3">
<path d="M284.65 283.287L289.57 286.181C290.308 286.556 291.124 286.752 291.951 286.752C292.778 286.752 293.594 286.556 294.332 286.181C295.185 285.689 295.475 284.995 295.214 284.358C295.025 284.749 294.716 285.068 294.332 285.27C293.594 285.645 292.778 285.84 291.951 285.84C291.124 285.84 290.308 285.645 289.57 285.27L284.65 282.375C284.263 282.163 283.954 281.834 283.767 281.435C283.492 282.086 283.781 282.766 284.65 283.287Z" fill="white"/>
</g>
<path d="M372.597 301.782L180.451 190.81C173.027 186.469 166.992 174.992 166.992 165.079V14.3809C166.992 4.46753 173.027 -0.0911753 180.451 4.25045L372.597 115.179C380.035 119.521 386.07 130.997 386.07 140.91V291.608C386.07 301.579 380.035 306.08 372.597 301.782Z" fill="#DFD0C2"/>
<g filter="url(#filter2_d_1798:413)">
<path d="M374.376 294.04L184.285 184.269C178.294 180.463 174.604 172.865 174.604 165.079V13.6574C174.601 13.2365 174.71 12.8224 174.919 12.4576C175.129 12.0927 175.432 11.7902 175.798 11.5811C176.163 11.3719 176.577 11.2637 176.998 11.2674C177.419 11.2712 177.831 11.3867 178.193 11.6023L178.612 11.8484L368.819 121.72C375.939 125.831 378.501 133.124 378.501 140.91V291.985C378.502 292.436 378.384 292.879 378.159 293.27C377.935 293.662 377.611 293.987 377.222 294.214C376.832 294.441 376.389 294.562 375.938 294.565C375.487 294.567 375.043 294.451 374.651 294.228L374.376 294.04Z" fill="url(#paint4_linear_1798:413)"/>
</g>
<path d="M376.417 113.153L184.315 2.18091C183.177 1.40147 181.876 0.892012 180.512 0.691373C179.148 0.490734 177.756 0.604207 176.442 1.02314C176.152 1.12445 172.404 3.1216 172.1 3.26632C174.387 2.15197 177.296 2.35457 180.465 4.19253L372.596 115.179C380.035 119.521 386.07 130.997 386.07 140.91V291.608C386.07 297.802 383.725 301.898 380.151 303.056C380.572 303.048 380.981 302.911 381.323 302.665C381.497 302.564 385.563 300.263 385.737 300.147C388.284 298.352 389.891 294.676 389.891 289.582V138.884C389.891 128.971 383.856 117.451 376.417 113.153Z" fill="url(#paint5_linear_1798:413)"/>
<g filter="url(#filter3_d_1798:413)">
<path d="M310.497 168.889C310.497 171.968 307.163 173.892 304.496 172.353L257.98 145.495C256.743 144.781 255.98 143.46 255.98 142.031V122.339C255.98 119.26 259.314 117.335 261.98 118.875L308.497 145.733C309.734 146.447 310.497 147.768 310.497 149.197V168.889Z" fill="url(#paint6_linear_1798:413)"/>
</g>
<g filter="url(#filter4_d_1798:413)">
<path d="M215.473 114.43C215.473 117.509 212.139 119.434 209.473 117.894L162.956 91.0363C161.719 90.3218 160.957 89.0013 160.957 87.5723V67.8803C160.957 64.8011 164.29 62.8766 166.957 64.4162L213.473 91.274C214.711 91.9885 215.473 93.309 215.473 94.738V114.43Z" fill="url(#paint7_linear_1798:413)"/>
</g>
<g filter="url(#filter5_d_1798:413)">
<path d="M258.6 194.486L213.736 168.552C209.901 166.338 206.79 160.404 206.79 155.296C206.79 150.187 209.901 147.843 213.736 150.057L258.6 175.991C262.42 178.205 265.532 184.139 265.532 189.247C265.59 194.486 262.478 196.758 258.6 194.486Z" fill="url(#paint8_linear_1798:413)"/>
</g>
<path d="M286.299 124.195V109.014L264.287 96.6692L263.578 97.9283L284.852 109.868V123.356L281.741 121.547L285.243 130.592L288.76 125.613L286.299 124.195Z" fill="#222222"/>
<path d="M191.522 77.1319L195.038 72.1535L192.506 70.7062V56.8565L208.758 66.2778L209.481 65.0187L191.058 54.3528V69.8669L188.005 68.1013L191.522 77.1319Z" fill="#222222"/>
<path d="M281.234 168.668L188.613 115.352V106.626L187.166 106.192V116.177L237.007 144.962V155.773L234.185 154.152L237.702 163.197L241.219 158.204L238.455 156.612V145.802L281.596 170.549L282.681 171.171V160.534L281.234 160.1V168.668Z" fill="#222222"/>
<g filter="url(#filter6_d_1798:413)">
<path d="M241.477 103.486C239.086 104.08 236.575 103.151 235.145 101.145L215.047 72.9379C212.591 69.4907 214.38 64.6524 218.489 63.6329L233.552 59.8947C235.943 59.3013 238.454 60.2299 239.883 62.2364L259.981 90.443C262.437 93.8902 260.648 98.7285 256.54 99.748L241.477 103.486Z" fill="url(#paint9_linear_1798:413)"/>
</g>
<path style="mix-blend-mode:screen" d="M255.98 115.411V116.554L309.773 147.611V175.397L310.497 175.817V146.887L255.98 115.411Z" fill="url(#paint10_radial_1798:413)"/>
<path style="mix-blend-mode:screen" d="M160.957 60.9519V62.0952L214.749 93.1523V120.939L215.473 121.358V92.4287L160.957 60.9519Z" fill="url(#paint11_radial_1798:413)"/>
<path style="mix-blend-mode:screen" d="M261.002 35.0326L216.139 9.09865C213.823 7.75274 211.797 8.10007 210.523 9.692C211.253 9.20767 212.114 8.96027 212.99 8.98358C213.865 9.00689 214.712 9.29977 215.415 9.82225L260.278 35.7562C264.114 37.9705 267.283 43.9764 267.283 49.0127C267.374 50.6647 266.91 52.2997 265.966 53.6582C266.678 52.9758 267.225 52.1403 267.566 51.215C267.907 50.2898 268.033 49.2991 267.934 48.318C267.934 43.1804 264.837 37.2469 261.002 35.0326Z" fill="url(#paint12_radial_1798:413)"/>
<path style="mix-blend-mode:screen" d="M258.6 176.049L213.736 150.115C211.421 148.783 209.395 149.116 208.121 150.708C208.855 150.236 209.714 149.995 210.587 150.018C211.46 150.042 212.305 150.327 213.013 150.838L257.876 176.772C261.697 178.987 264.808 184.92 264.808 190.029C264.899 191.681 264.436 193.316 263.491 194.674C264.22 193.996 264.783 193.158 265.137 192.227C265.491 191.296 265.626 190.297 265.532 189.305C265.59 184.197 262.478 178.263 258.6 176.049Z" fill="url(#paint13_radial_1798:413)"/>
<path style="mix-blend-mode:screen" d="M236.791 59.635L264.042 97.8847L265.098 97.6242L237.514 58.9114L209.93 65.7567L210.263 66.2343L236.791 59.635Z" fill="url(#paint14_radial_1798:413)"/>
<g filter="url(#filter7_b_1798:413)">
<path d="M107.598 49.2154C99.4068 44.5119 92.8799 48.3181 92.8799 57.6092V186.237C92.8799 195.572 99.4647 206.947 107.598 211.636L185.313 256.716C193.446 261.42 200.046 257.657 200.046 248.322V119.709C200.046 110.374 193.446 98.9993 185.313 94.3104L107.598 49.2154Z" fill="url(#paint15_linear_1798:413)"/>
<path d="M108.1 210.771L108.097 210.769C104.218 208.533 100.652 204.662 98.0542 200.177C95.456 195.692 93.8799 190.687 93.8799 186.237V57.6092C93.8799 53.1739 95.43 50.3151 97.6652 49.0315C99.9015 47.7473 103.182 47.8335 107.098 50.0815C107.099 50.0818 107.099 50.0822 107.1 50.0826L184.811 95.1753L184.814 95.1767C188.693 97.4134 192.263 101.284 194.864 105.769C197.466 110.255 199.046 115.26 199.046 119.709V248.322C199.046 252.777 197.479 255.635 195.234 256.915C192.986 258.196 189.7 258.098 185.814 255.85L108.1 210.771Z" stroke="url(#paint16_linear_1798:413)" stroke-width="2"/>
</g>
<g opacity="0.7">
<g filter="url(#filter8_b_1798:413)">
<path d="M107.598 261.955C99.4647 257.251 92.8799 261.014 92.8799 270.349V323.172C92.8799 332.506 99.4647 343.867 107.598 348.57L185.313 393.665C193.446 398.354 200.046 394.592 200.046 385.272V332.448C200.046 323.114 193.446 311.739 185.313 307.05L107.598 261.955Z" fill="url(#paint17_linear_1798:413)"/>
<path d="M108.1 347.705L108.099 347.705C104.218 345.461 100.652 341.589 98.0542 337.106C95.4559 332.623 93.8799 327.621 93.8799 323.172V270.349C93.8799 265.894 95.4432 263.035 97.6846 261.756C99.9285 260.476 103.21 260.573 107.097 262.82C107.097 262.82 107.097 262.82 107.097 262.821L184.811 307.915L184.814 307.916C188.693 310.153 192.263 314.024 194.864 318.509C197.466 322.994 199.046 327.999 199.046 332.448V385.272C199.046 389.718 197.48 392.573 195.234 393.853C192.985 395.135 189.699 395.039 185.814 392.8C185.813 392.799 185.813 392.799 185.813 392.799L108.1 347.705Z" stroke="url(#paint18_linear_1798:413)" stroke-width="2"/>
</g>
</g>
<g filter="url(#filter9_b_1798:413)">
<path d="M415.955 321.03L270.279 236.643C259.801 230.666 251.219 214.226 251.219 200.275V190.347C251.219 176.381 259.801 169.898 270.279 175.947L415.955 260.334C426.433 266.383 435 282.766 435 296.731V306.645C435 320.61 426.476 327.079 415.955 321.03Z" fill="url(#paint19_linear_1798:413)"/>
<path d="M270.78 235.778L270.774 235.774C265.755 232.911 261.105 227.481 257.706 220.985C254.311 214.5 252.219 207.06 252.219 200.275V190.347C252.219 183.533 254.314 178.788 257.423 176.439C260.47 174.137 264.782 173.928 269.778 176.813C269.778 176.813 269.779 176.813 269.779 176.813L415.454 261.199L415.455 261.2C420.478 264.1 425.125 269.537 428.521 276.027C431.912 282.51 434 289.938 434 296.731V306.645C434 313.461 431.918 318.201 428.82 320.545C425.783 322.842 421.476 323.05 416.455 320.164C416.455 320.164 416.454 320.163 416.453 320.163L270.78 235.778Z" stroke="url(#paint20_linear_1798:413)" stroke-width="2"/>
</g>
<path opacity="0.6" d="M310.244 246.537C317.62 242.225 317.544 228.37 310.073 215.591C302.603 202.812 290.567 195.948 283.191 200.26C275.815 204.572 275.891 218.427 283.361 231.206C290.832 243.985 302.868 250.849 310.244 246.537Z" fill="#3FABAE"/>
<path opacity="0.6" d="M354.755 273.04C362.131 268.728 362.055 254.873 354.584 242.094C347.114 229.315 335.078 222.451 327.702 226.763C320.325 231.075 320.402 244.93 327.872 257.709C335.343 270.489 347.378 277.352 354.755 273.04Z" fill="#3FABAE"/>
<path opacity="0.6" d="M399.618 298.612C406.994 294.3 406.918 280.445 399.447 267.666C391.977 254.887 379.941 248.023 372.565 252.335C365.189 256.647 365.265 270.502 372.736 283.281C380.206 296.06 392.242 302.924 399.618 298.612Z" fill="#3FABAE"/>
<g opacity="0.8">
<path opacity="0.8" d="M234.822 91.3144C234.64 91.1958 234.486 91.0375 234.373 90.8513C234.25 90.662 234.184 90.4406 234.185 90.2146V87.3925C234.172 87.2837 234.182 87.1733 234.215 87.0686C234.247 86.9639 234.301 86.8671 234.373 86.7847C234.554 86.6572 234.762 86.5731 234.981 86.5386L242.68 85.0914L234.981 74.7294C234.753 74.4279 234.55 74.1084 234.373 73.7743C234.243 73.5282 234.185 70.1128 234.185 70.1128C234.185 69.862 234.243 69.7028 234.359 69.6352C234.436 69.6065 234.519 69.598 234.6 69.6107C234.681 69.6234 234.758 69.6568 234.822 69.7076C235.076 69.8975 235.292 70.1331 235.459 70.4023L246.24 85.077C246.523 85.4409 246.765 85.8339 246.964 86.2492C247.094 86.5664 247.162 86.9052 247.167 87.2478V88.1306C247.202 88.3766 247.151 88.6273 247.022 88.8397C246.825 89.0208 246.578 89.137 246.313 89.1726L235.444 91.3868C235.341 91.4192 235.233 91.4295 235.125 91.417C235.018 91.4046 234.915 91.3696 234.822 91.3144Z" fill="white"/>
<path opacity="0.8" d="M234.186 87.3635L234.272 71.9363L237.413 73.7742V88.0003L234.186 87.3635Z" fill="white"/>
</g>
<path opacity="0.8" d="M291.06 233.937V208.864L304.607 229.224L291.06 233.937Z" fill="white"/>
<path opacity="0.8" d="M336.416 260.759V235.686L349.962 256.046L336.416 260.759Z" fill="white"/>
<path opacity="0.8" d="M381.771 287.581V262.508L395.318 282.868L381.771 287.581Z" fill="white"/>
<defs>
<filter id="filter0_d_1798:413" x="0.971436" y="189.104" width="404.169" height="295.643" filterUnits="userSpaceOnUse" color-interpolation-filters="sRGB">
<feFlood flood-opacity="0" result="BackgroundImageFix"/>
<feColorMatrix in="SourceAlpha" type="matrix" values="0 0 0 0 0 0 0 0 0 0 0 0 0 0 0 0 0 0 127 0" result="hardAlpha"/>
<feOffset dy="70"/>
<feGaussianBlur stdDeviation="14"/>
<feComposite in2="hardAlpha" operator="out"/>
<feColorMatrix type="matrix" values="0 0 0 0 0 0 0 0 0 0 0 0 0 0 0 0 0 0 0.08 0"/>
<feBlend mode="normal" in2="BackgroundImageFix" result="effect1_dropShadow_1798:413"/>
<feBlend mode="normal" in="SourceGraphic" in2="effect1_dropShadow_1798:413" result="shape"/>
</filter>
<filter id="filter1_d_1798:413" x="90.4412" y="212.903" width="262.064" height="218.215" filterUnits="userSpaceOnUse" color-interpolation-filters="sRGB">
<feFlood flood-opacity="0" result="BackgroundImageFix"/>
<feColorMatrix in="SourceAlpha" type="matrix" values="0 0 0 0 0 0 0 0 0 0 0 0 0 0 0 0 0 0 127 0" result="hardAlpha"/>
<feOffset dy="70"/>
<feGaussianBlur stdDeviation="10"/>
<feComposite in2="hardAlpha" operator="out"/>
<feColorMatrix type="matrix" values="0 0 0 0 0 0 0 0 0 0 0 0 0 0 0 0 0 0 0.05 0"/>
<feBlend mode="normal" in2="BackgroundImageFix" result="effect1_dropShadow_1798:413"/>
<feBlend mode="normal" in="SourceGraphic" in2="effect1_dropShadow_1798:413" result="shape"/>
</filter>
<filter id="filter2_d_1798:413" x="154.604" y="11.2673" width="243.897" height="353.297" filterUnits="userSpaceOnUse" color-interpolation-filters="sRGB">
<feFlood flood-opacity="0" result="BackgroundImageFix"/>
<feColorMatrix in="SourceAlpha" type="matrix" values="0 0 0 0 0 0 0 0 0 0 0 0 0 0 0 0 0 0 127 0" result="hardAlpha"/>
<feOffset dy="50"/>
<feGaussianBlur stdDeviation="10"/>
<feComposite in2="hardAlpha" operator="out"/>
<feColorMatrix type="matrix" values="0 0 0 0 0 0 0 0 0 0 0 0 0 0 0 0 0 0 0.05 0"/>
<feBlend mode="normal" in2="BackgroundImageFix" result="effect1_dropShadow_1798:413"/>
<feBlend mode="normal" in="SourceGraphic" in2="effect1_dropShadow_1798:413" result="shape"/>
</filter>
<filter id="filter3_d_1798:413" x="255.98" y="104.333" width="72.5164" height="70.5618" filterUnits="userSpaceOnUse" color-interpolation-filters="sRGB">
<feFlood flood-opacity="0" result="BackgroundImageFix"/>
<feColorMatrix in="SourceAlpha" type="matrix" values="0 0 0 0 0 0 0 0 0 0 0 0 0 0 0 0 0 0 127 0" result="hardAlpha"/>
<feOffset dx="10" dy="-6"/>
<feGaussianBlur stdDeviation="4"/>
<feComposite in2="hardAlpha" operator="out"/>
<feColorMatrix type="matrix" values="0 0 0 0 0 0 0 0 0 0 0 0 0 0 0 0 0 0 0.1 0"/>
<feBlend mode="normal" in2="BackgroundImageFix" result="effect1_dropShadow_1798:413"/>
<feBlend mode="normal" in="SourceGraphic" in2="effect1_dropShadow_1798:413" result="shape"/>
</filter>
<filter id="filter4_d_1798:413" x="160.957" y="49.8743" width="72.5164" height="70.5618" filterUnits="userSpaceOnUse" color-interpolation-filters="sRGB">
<feFlood flood-opacity="0" result="BackgroundImageFix"/>
<feColorMatrix in="SourceAlpha" type="matrix" values="0 0 0 0 0 0 0 0 0 0 0 0 0 0 0 0 0 0 127 0" result="hardAlpha"/>
<feOffset dx="10" dy="-6"/>
<feGaussianBlur stdDeviation="4"/>
<feComposite in2="hardAlpha" operator="out"/>
<feColorMatrix type="matrix" values="0 0 0 0 0 0 0 0 0 0 0 0 0 0 0 0 0 0 0.1 0"/>
<feBlend mode="normal" in2="BackgroundImageFix" result="effect1_dropShadow_1798:413"/>
<feBlend mode="normal" in="SourceGraphic" in2="effect1_dropShadow_1798:413" result="shape"/>
</filter>
<filter id="filter5_d_1798:413" x="206.79" y="135.222" width="76.7429" height="62.1421" filterUnits="userSpaceOnUse" color-interpolation-filters="sRGB">
<feFlood flood-opacity="0" result="BackgroundImageFix"/>
<feColorMatrix in="SourceAlpha" type="matrix" values="0 0 0 0 0 0 0 0 0 0 0 0 0 0 0 0 0 0 127 0" result="hardAlpha"/>
<feOffset dx="10" dy="-6"/>
<feGaussianBlur stdDeviation="4"/>
<feComposite in2="hardAlpha" operator="out"/>
<feColorMatrix type="matrix" values="0 0 0 0 0 0 0 0 0 0 0 0 0 0 0 0 0 0 0.1 0"/>
<feBlend mode="normal" in2="BackgroundImageFix" result="effect1_dropShadow_1798:413"/>
<feBlend mode="normal" in="SourceGraphic" in2="effect1_dropShadow_1798:413" result="shape"/>
</filter>
<filter id="filter6_d_1798:413" x="213.929" y="45.7178" width="65.1694" height="59.9453" filterUnits="userSpaceOnUse" color-interpolation-filters="sRGB">
<feFlood flood-opacity="0" result="BackgroundImageFix"/>
<feColorMatrix in="SourceAlpha" type="matrix" values="0 0 0 0 0 0 0 0 0 0 0 0 0 0 0 0 0 0 127 0" result="hardAlpha"/>
<feOffset dx="10" dy="-6"/>
<feGaussianBlur stdDeviation="4"/>
<feComposite in2="hardAlpha" operator="out"/>
<feColorMatrix type="matrix" values="0 0 0 0 0 0 0 0 0 0 0 0 0 0 0 0 0 0 0.1 0"/>
<feBlend mode="normal" in2="BackgroundImageFix" result="effect1_dropShadow_1798:413"/>
<feBlend mode="normal" in="SourceGraphic" in2="effect1_dropShadow_1798:413" result="shape"/>
</filter>
<filter id="filter7_b_1798:413" x="82.8799" y="37.1965" width="127.166" height="231.546" filterUnits="userSpaceOnUse" color-interpolation-filters="sRGB">
<feFlood flood-opacity="0" result="BackgroundImageFix"/>
<feGaussianBlur in="BackgroundImage" stdDeviation="5"/>
<feComposite in2="SourceAlpha" operator="in" result="effect1_backgroundBlur_1798:413"/>
<feBlend mode="normal" in="SourceGraphic" in2="effect1_backgroundBlur_1798:413" result="shape"/>
</filter>
<filter id="filter8_b_1798:413" x="82.8799" y="249.928" width="127.166" height="155.755" filterUnits="userSpaceOnUse" color-interpolation-filters="sRGB">
<feFlood flood-opacity="0" result="BackgroundImageFix"/>
<feGaussianBlur in="BackgroundImage" stdDeviation="5"/>
<feComposite in2="SourceAlpha" operator="in" result="effect1_backgroundBlur_1798:413"/>
<feBlend mode="normal" in="SourceGraphic" in2="effect1_backgroundBlur_1798:413" result="shape"/>
</filter>
<filter id="filter9_b_1798:413" x="241.219" y="163.68" width="203.781" height="169.618" filterUnits="userSpaceOnUse" color-interpolation-filters="sRGB">
<feFlood flood-opacity="0" result="BackgroundImageFix"/>
<feGaussianBlur in="BackgroundImage" stdDeviation="5"/>
<feComposite in2="SourceAlpha" operator="in" result="effect1_backgroundBlur_1798:413"/>
<feBlend mode="normal" in="SourceGraphic" in2="effect1_backgroundBlur_1798:413" result="shape"/>
</filter>
<linearGradient id="paint0_linear_1798:413" x1="10.6582" y1="337.979" x2="406.126" y2="352.047" gradientUnits="userSpaceOnUse">
<stop offset="0.485406" stop-color="#222222"/>
<stop offset="0.601534" stop-color="#666666"/>
<stop offset="0.726494" stop-color="#222222"/>
</linearGradient>
<linearGradient id="paint1_linear_1798:413" x1="248.257" y1="400.651" x2="220.338" y2="133.551" gradientUnits="userSpaceOnUse">
<stop offset="0.03" stop-color="#FFDBB0"/>
<stop offset="1" stop-color="#F7EEE5"/>
</linearGradient>
<radialGradient id="paint2_radial_1798:413" cx="0" cy="0" r="1" gradientUnits="userSpaceOnUse" gradientTransform="translate(141.758 232.341) rotate(-18.98) scale(49.7695 29.364)">
<stop stop-color="#972A74"/>
<stop offset="0.04" stop-color="#8A266A"/>
<stop offset="0.19" stop-color="#601B4A"/>
<stop offset="0.35" stop-color="#3D112F"/>
<stop offset="0.51" stop-color="#230A1B"/>
<stop offset="0.67" stop-color="#0F040C"/>
<stop offset="0.83" stop-color="#040103"/>
<stop offset="1"/>
</radialGradient>
<linearGradient id="paint3_linear_1798:413" x1="250.303" y1="350.138" x2="231.888" y2="176.93" gradientUnits="userSpaceOnUse">
<stop offset="0.03" stop-color="#FFDBB0"/>
<stop offset="1" stop-color="#F7EEE5"/>
</linearGradient>
<linearGradient id="paint4_linear_1798:413" x1="378.501" y1="301.071" x2="155.347" y2="20.3874" gradientUnits="userSpaceOnUse">
<stop offset="0.03" stop-color="#F7EEE5"/>
<stop offset="1" stop-color="white"/>
</linearGradient>
<linearGradient id="paint5_linear_1798:413" x1="188.754" y1="0.594956" x2="410.782" y2="227.579" gradientUnits="userSpaceOnUse">
<stop offset="0.345483" stop-color="#222222"/>
<stop offset="0.601534" stop-color="#666666"/>
<stop offset="0.853741" stop-color="#222222"/>
</linearGradient>
<linearGradient id="paint6_linear_1798:413" x1="283.238" y1="126.499" x2="283.828" y2="163.577" gradientUnits="userSpaceOnUse">
<stop stop-color="#55D6DA"/>
<stop offset="1" stop-color="#40ABAE"/>
</linearGradient>
<linearGradient id="paint7_linear_1798:413" x1="188.215" y1="72.0401" x2="188.805" y2="109.118" gradientUnits="userSpaceOnUse">
<stop stop-color="#55D6DA"/>
<stop offset="1" stop-color="#40ABAE"/>
</linearGradient>
<linearGradient id="paint8_linear_1798:413" x1="236.161" y1="157.692" x2="236.481" y2="186.018" gradientUnits="userSpaceOnUse">
<stop stop-color="#55D6DA"/>
<stop offset="1" stop-color="#40ABAE"/>
</linearGradient>
<linearGradient id="paint9_linear_1798:413" x1="237.514" y1="58.9114" x2="237.514" y2="96.678" gradientUnits="userSpaceOnUse">
<stop stop-color="#FF8E6C"/>
<stop offset="1" stop-color="#FE5826"/>
</linearGradient>
<radialGradient id="paint10_radial_1798:413" cx="0" cy="0" r="1" gradientUnits="userSpaceOnUse" gradientTransform="translate(10397.1 6169.95) scale(1083.79 1200.88)">
<stop stop-color="white"/>
<stop offset="1"/>
</radialGradient>
<radialGradient id="paint11_radial_1798:413" cx="0" cy="0" r="1" gradientUnits="userSpaceOnUse" gradientTransform="translate(6722.54 3842.4) scale(1083.79 1200.88)">
<stop stop-color="white"/>
<stop offset="1"/>
</radialGradient>
<radialGradient id="paint12_radial_1798:413" cx="0" cy="0" r="1" gradientUnits="userSpaceOnUse" gradientTransform="translate(9148.13 961.964) scale(1027.66 812.073)">
<stop stop-color="white"/>
<stop offset="1"/>
</radialGradient>
<radialGradient id="paint13_radial_1798:413" cx="0" cy="0" r="1" gradientUnits="userSpaceOnUse" gradientTransform="translate(9052.13 5525.31) scale(1027.6 811.964)">
<stop stop-color="white"/>
<stop offset="1"/>
</radialGradient>
<radialGradient id="paint14_radial_1798:413" cx="0" cy="0" r="1" gradientUnits="userSpaceOnUse" gradientTransform="translate(8729.46 2154.9) scale(910.266 643.06)">
<stop stop-color="white"/>
<stop offset="1"/>
</radialGradient>
<linearGradient id="paint15_linear_1798:413" x1="96.2899" y1="43.8896" x2="247.065" y2="214.218" gradientUnits="userSpaceOnUse">
<stop stop-color="white"/>
<stop offset="0.482292" stop-color="white" stop-opacity="0.23"/>
<stop offset="1" stop-color="white" stop-opacity="0"/>
</linearGradient>
<linearGradient id="paint16_linear_1798:413" x1="200.046" y1="258.743" x2="10.9548" y2="43.4368" gradientUnits="userSpaceOnUse">
<stop stop-color="white"/>
<stop offset="1" stop-color="white" stop-opacity="0"/>
</linearGradient>
<linearGradient id="paint17_linear_1798:413" x1="96.2899" y1="257.806" x2="180.017" y2="405.198" gradientUnits="userSpaceOnUse">
<stop stop-color="white"/>
<stop offset="0.482292" stop-color="white" stop-opacity="0.23"/>
<stop offset="1" stop-color="white" stop-opacity="0"/>
</linearGradient>
<linearGradient id="paint18_linear_1798:413" x1="200.046" y1="395.683" x2="95.3642" y2="209.943" gradientUnits="userSpaceOnUse">
<stop stop-color="white"/>
<stop offset="1" stop-color="white" stop-opacity="0"/>
</linearGradient>
<linearGradient id="paint19_linear_1798:413" x1="257.067" y1="171.342" x2="326.282" y2="360.935" gradientUnits="userSpaceOnUse">
<stop stop-color="#FE5826"/>
<stop offset="0.482292" stop-color="#FE5826" stop-opacity="0.52"/>
<stop offset="1" stop-color="#FE5826" stop-opacity="0"/>
</linearGradient>
<linearGradient id="paint20_linear_1798:413" x1="435" y1="323.299" x2="348.634" y2="84.8501" gradientUnits="userSpaceOnUse">
<stop stop-color="white"/>
<stop offset="1" stop-color="white" stop-opacity="0"/>
</linearGradient>
</defs>
</svg>
