<svg width="752" height="114" viewBox="0 0 752 114" fill="none" xmlns="http://www.w3.org/2000/svg">
<path d="M0.5 3.59445C0.5 3.87059 0.723858 4.09445 1 4.09445C1.27614 4.09445 1.5 3.87059 1.5 3.59445H0.5ZM1.5 9.82535C1.5 9.54921 1.27614 9.32535 1 9.32535C0.723858 9.32535 0.5 9.54921 0.5 9.82535H1.5ZM1.27087 20.8443C1.32446 21.1152 1.5875 21.2914 1.8584 21.2378C2.12929 21.1842 2.30545 20.9211 2.25186 20.6502L1.27087 20.8443ZM8.15287 34.8873C7.99925 34.6578 7.68869 34.5963 7.45922 34.7499C7.22976 34.9036 7.16828 35.2141 7.3219 35.4436L8.15287 34.8873ZM18.4972 46.6189C18.7267 46.7725 19.0372 46.711 19.1909 46.4816C19.3445 46.2521 19.283 45.9416 19.0535 45.7879L18.4972 46.6189ZM33.2906 51.6889C33.0197 51.6353 32.7566 51.8115 32.703 52.0824C32.6494 52.3533 32.8256 52.6163 33.0965 52.6699L33.2906 51.6889ZM50.8529 53.4408C51.1291 53.4408 51.3529 53.2169 51.3529 52.9408C51.3529 52.6647 51.1291 52.4408 50.8529 52.4408V53.4408ZM70.5588 52.4408C70.2827 52.4408 70.0588 52.6647 70.0588 52.9408C70.0588 53.2169 70.2827 53.4408 70.5588 53.4408V52.4408ZM90.2647 53.4408C90.5408 53.4408 90.7647 53.2169 90.7647 52.9408C90.7647 52.6647 90.5408 52.4408 90.2647 52.4408V53.4408ZM109.971 52.4408C109.694 52.4408 109.471 52.6647 109.471 52.9408C109.471 53.2169 109.694 53.4408 109.971 53.4408V52.4408ZM129.676 53.4408C129.953 53.4408 130.176 53.2169 130.176 52.9408C130.176 52.6647 129.953 52.4408 129.676 52.4408V53.4408ZM149.382 52.4408C149.106 52.4408 148.882 52.6647 148.882 52.9408C148.882 53.2169 149.106 53.4408 149.382 53.4408V52.4408ZM169.088 53.4408C169.364 53.4408 169.588 53.2169 169.588 52.9408C169.588 52.6647 169.364 52.4408 169.088 52.4408V53.4408ZM188.794 52.4408C188.518 52.4408 188.294 52.6647 188.294 52.9408C188.294 53.2169 188.518 53.4408 188.794 53.4408V52.4408ZM208.5 53.4408C208.776 53.4408 209 53.2169 209 52.9408C209 52.6647 208.776 52.4408 208.5 52.4408V53.4408ZM228.206 52.4408C227.93 52.4408 227.706 52.6647 227.706 52.9408C227.706 53.2169 227.93 53.4408 228.206 53.4408V52.4408ZM247.912 53.4408C248.188 53.4408 248.412 53.2169 248.412 52.9408C248.412 52.6647 248.188 52.4408 247.912 52.4408V53.4408ZM267.618 52.4408C267.342 52.4408 267.118 52.6647 267.118 52.9408C267.118 53.2169 267.342 53.4408 267.618 53.4408V52.4408ZM287.324 53.4408C287.6 53.4408 287.824 53.2169 287.824 52.9408C287.824 52.6647 287.6 52.4408 287.324 52.4408V53.4408ZM307.029 52.4408C306.753 52.4408 306.529 52.6647 306.529 52.9408C306.529 53.2169 306.753 53.4408 307.029 53.4408V52.4408ZM326.735 53.4408C327.011 53.4408 327.235 53.2169 327.235 52.9408C327.235 52.6647 327.011 52.4408 326.735 52.4408V53.4408ZM346.441 52.4408C346.165 52.4408 345.941 52.6647 345.941 52.9408C345.941 53.2169 346.165 53.4408 346.441 53.4408V52.4408ZM366.147 53.4408C366.423 53.4408 366.647 53.2169 366.647 52.9408C366.647 52.6647 366.423 52.4408 366.147 52.4408V53.4408ZM385.853 52.4408C385.577 52.4408 385.353 52.6647 385.353 52.9408C385.353 53.2169 385.577 53.4408 385.853 53.4408V52.4408ZM405.559 53.4408C405.835 53.4408 406.059 53.2169 406.059 52.9408C406.059 52.6647 405.835 52.4408 405.559 52.4408V53.4408ZM425.265 52.4408C424.989 52.4408 424.765 52.6647 424.765 52.9408C424.765 53.2169 424.989 53.4408 425.265 53.4408V52.4408ZM444.971 53.4408C445.247 53.4408 445.471 53.2169 445.471 52.9408C445.471 52.6647 445.247 52.4408 444.971 52.4408V53.4408ZM464.676 52.4408C464.4 52.4408 464.176 52.6647 464.176 52.9408C464.176 53.2169 464.4 53.4408 464.676 53.4408V52.4408ZM484.382 53.4408C484.658 53.4408 484.882 53.2169 484.882 52.9408C484.882 52.6647 484.658 52.4408 484.382 52.4408V53.4408ZM504.088 52.4408C503.812 52.4408 503.588 52.6647 503.588 52.9408C503.588 53.2169 503.812 53.4408 504.088 53.4408V52.4408ZM523.794 53.4408C524.07 53.4408 524.294 53.2169 524.294 52.9408C524.294 52.6647 524.07 52.4408 523.794 52.4408V53.4408ZM543.5 52.4408C543.224 52.4408 543 52.6647 543 52.9408C543 53.2169 543.224 53.4408 543.5 53.4408V52.4408ZM563.206 53.4408C563.482 53.4408 563.706 53.2169 563.706 52.9408C563.706 52.6647 563.482 52.4408 563.206 52.4408V53.4408ZM582.912 52.4408C582.636 52.4408 582.412 52.6647 582.412 52.9408C582.412 53.2169 582.636 53.4408 582.912 53.4408V52.4408ZM602.618 53.4408C602.894 53.4408 603.118 53.2169 603.118 52.9408C603.118 52.6647 602.894 52.4408 602.618 52.4408V53.4408ZM622.323 52.4408C622.047 52.4408 621.823 52.6647 621.823 52.9408C621.823 53.2169 622.047 53.4408 622.323 53.4408V52.4408ZM642.029 53.4408C642.305 53.4408 642.529 53.2169 642.529 52.9408C642.529 52.6647 642.305 52.4408 642.029 52.4408V53.4408ZM661.735 52.4408C661.459 52.4408 661.235 52.6647 661.235 52.9408C661.235 53.2169 661.459 53.4408 661.735 53.4408V52.4408ZM681.441 53.4408C681.717 53.4408 681.941 53.2169 681.941 52.9408C681.941 52.6647 681.717 52.4408 681.441 52.4408V53.4408ZM701.147 52.4408C700.871 52.4408 700.647 52.6647 700.647 52.9408C700.647 53.2169 700.871 53.4408 701.147 53.4408V52.4408ZM718.709 54.1927C718.98 54.2462 719.243 54.0701 719.297 53.7992C719.351 53.5283 719.174 53.2653 718.904 53.2117L718.709 54.1927ZM733.503 59.2627C733.273 59.1091 732.963 59.1706 732.809 59.4C732.656 59.6295 732.717 59.94 732.946 60.0937L733.503 59.2627ZM743.847 70.9943C744.001 71.2238 744.311 71.2853 744.541 71.1317C744.77 70.978 744.832 70.6675 744.678 70.438L743.847 70.9943ZM750.729 85.0373C750.676 84.7664 750.412 84.5902 750.142 84.6438C749.871 84.6974 749.695 84.9605 749.748 85.2314L750.729 85.0373ZM750.5 98.074C750.5 98.3502 750.724 98.574 751 98.574C751.276 98.574 751.5 98.3502 751.5 98.074H750.5ZM751.5 108.34C751.5 108.064 751.276 107.84 751 107.84C750.724 107.84 750.5 108.064 750.5 108.34H751.5ZM0.5 0.479004V3.59445H1.5V0.479004H0.5ZM0.5 9.82535V12.9408H1.5V9.82535H0.5ZM0.5 12.9408C0.5 15.645 0.765096 18.2877 1.27087 20.8443L2.25186 20.6502C1.75866 18.1572 1.5 15.5795 1.5 12.9408H0.5ZM7.3219 35.4436C10.2786 39.86 14.0808 43.6622 18.4972 46.6189L19.0535 45.7879C14.7458 42.904 11.0368 39.195 8.15287 34.8873L7.3219 35.4436ZM33.0965 52.6699C35.6531 53.1757 38.2958 53.4408 41 53.4408V52.4408C38.3613 52.4408 35.7836 52.1821 33.2906 51.6889L33.0965 52.6699ZM41 53.4408H50.8529V52.4408H41V53.4408ZM70.5588 53.4408H90.2647V52.4408H70.5588V53.4408ZM109.971 53.4408H129.676V52.4408H109.971V53.4408ZM149.382 53.4408H169.088V52.4408H149.382V53.4408ZM188.794 53.4408H208.5V52.4408H188.794V53.4408ZM228.206 53.4408H247.912V52.4408H228.206V53.4408ZM267.618 53.4408H287.324V52.4408H267.618V53.4408ZM307.029 53.4408H326.735V52.4408H307.029V53.4408ZM346.441 53.4408H366.147V52.4408H346.441V53.4408ZM385.853 53.4408H405.559V52.4408H385.853V53.4408ZM425.265 53.4408H444.971V52.4408H425.265V53.4408ZM464.676 53.4408H484.382V52.4408H464.676V53.4408ZM504.088 53.4408H523.794V52.4408H504.088V53.4408ZM543.5 53.4408H563.206V52.4408H543.5V53.4408ZM582.912 53.4408H602.618V52.4408H582.912V53.4408ZM622.323 53.4408H642.029V52.4408H622.323V53.4408ZM661.735 53.4408H681.441V52.4408H661.735V53.4408ZM701.147 53.4408H711V52.4408H701.147V53.4408ZM711 53.4408C713.639 53.4408 716.216 53.6995 718.709 54.1927L718.904 53.2117C716.347 52.7059 713.704 52.4408 711 52.4408V53.4408ZM732.946 60.0937C737.254 62.9776 740.963 66.6866 743.847 70.9943L744.678 70.438C741.721 66.0216 737.919 62.2194 733.503 59.2627L732.946 60.0937ZM749.748 85.2314C750.241 87.7244 750.5 90.3021 750.5 92.9408H751.5C751.5 90.2366 751.235 87.5939 750.729 85.0373L749.748 85.2314ZM750.5 92.9408V98.074H751.5V92.9408H750.5ZM750.5 108.34V113.474H751.5V108.34H750.5ZM0 3.59445C0 4.14674 0.447715 4.59445 1 4.59445C1.55228 4.59445 2 4.14674 2 3.59445H0ZM2 9.82535C2 9.27306 1.55228 8.82535 1 8.82535C0.447715 8.82535 0 9.27306 0 9.82535H2ZM0.780374 20.9413C0.887555 21.4831 1.41365 21.8354 1.95543 21.7283C2.49722 21.6211 2.84953 21.095 2.74235 20.5532L0.780374 20.9413ZM8.56835 34.6091C8.26111 34.1502 7.64 34.0272 7.18106 34.3345C6.72213 34.6417 6.59917 35.2628 6.90642 35.7217L8.56835 34.6091ZM18.2191 47.0344C18.678 47.3416 19.2991 47.2187 19.6063 46.7597C19.9136 46.3008 19.7906 45.6797 19.3317 45.3724L18.2191 47.0344ZM33.3876 51.1984C32.8458 51.0913 32.3197 51.4436 32.2125 51.9854C32.1054 52.5271 32.4577 53.0532 32.9995 53.1604L33.3876 51.1984ZM50.8529 53.9408C51.4052 53.9408 51.8529 53.4931 51.8529 52.9408C51.8529 52.3885 51.4052 51.9408 50.8529 51.9408V53.9408ZM70.5588 51.9408C70.0065 51.9408 69.5588 52.3885 69.5588 52.9408C69.5588 53.4931 70.0065 53.9408 70.5588 53.9408V51.9408ZM90.2647 53.9408C90.817 53.9408 91.2647 53.4931 91.2647 52.9408C91.2647 52.3885 90.817 51.9408 90.2647 51.9408V53.9408ZM109.971 51.9408C109.418 51.9408 108.971 52.3885 108.971 52.9408C108.971 53.4931 109.418 53.9408 109.971 53.9408V51.9408ZM129.676 53.9408C130.229 53.9408 130.676 53.4931 130.676 52.9408C130.676 52.3885 130.229 51.9408 129.676 51.9408V53.9408ZM149.382 51.9408C148.83 51.9408 148.382 52.3885 148.382 52.9408C148.382 53.4931 148.83 53.9408 149.382 53.9408V51.9408ZM169.088 53.9408C169.641 53.9408 170.088 53.4931 170.088 52.9408C170.088 52.3885 169.641 51.9408 169.088 51.9408V53.9408ZM188.794 51.9408C188.242 51.9408 187.794 52.3885 187.794 52.9408C187.794 53.4931 188.242 53.9408 188.794 53.9408V51.9408ZM208.5 53.9408C209.052 53.9408 209.5 53.4931 209.5 52.9408C209.5 52.3885 209.052 51.9408 208.5 51.9408V53.9408ZM228.206 51.9408C227.654 51.9408 227.206 52.3885 227.206 52.9408C227.206 53.4931 227.654 53.9408 228.206 53.9408V51.9408ZM247.912 53.9408C248.464 53.9408 248.912 53.4931 248.912 52.9408C248.912 52.3885 248.464 51.9408 247.912 51.9408V53.9408ZM267.618 51.9408C267.065 51.9408 266.618 52.3885 266.618 52.9408C266.618 53.4931 267.065 53.9408 267.618 53.9408V51.9408ZM287.324 53.9408C287.876 53.9408 288.324 53.4931 288.324 52.9408C288.324 52.3885 287.876 51.9408 287.324 51.9408V53.9408ZM307.029 51.9408C306.477 51.9408 306.029 52.3885 306.029 52.9408C306.029 53.4931 306.477 53.9408 307.029 53.9408V51.9408ZM326.735 53.9408C327.288 53.9408 327.735 53.4931 327.735 52.9408C327.735 52.3885 327.288 51.9408 326.735 51.9408V53.9408ZM346.441 51.9408C345.889 51.9408 345.441 52.3885 345.441 52.9408C345.441 53.4931 345.889 53.9408 346.441 53.9408V51.9408ZM366.147 53.9408C366.699 53.9408 367.147 53.4931 367.147 52.9408C367.147 52.3885 366.699 51.9408 366.147 51.9408V53.9408ZM385.853 51.9408C385.301 51.9408 384.853 52.3885 384.853 52.9408C384.853 53.4931 385.301 53.9408 385.853 53.9408V51.9408ZM405.559 53.9408C406.111 53.9408 406.559 53.4931 406.559 52.9408C406.559 52.3885 406.111 51.9408 405.559 51.9408V53.9408ZM425.265 51.9408C424.712 51.9408 424.265 52.3885 424.265 52.9408C424.265 53.4931 424.712 53.9408 425.265 53.9408V51.9408ZM444.971 53.9408C445.523 53.9408 445.971 53.4931 445.971 52.9408C445.971 52.3885 445.523 51.9408 444.971 51.9408V53.9408ZM464.676 51.9408C464.124 51.9408 463.676 52.3885 463.676 52.9408C463.676 53.4931 464.124 53.9408 464.676 53.9408V51.9408ZM484.382 53.9408C484.935 53.9408 485.382 53.4931 485.382 52.9408C485.382 52.3885 484.935 51.9408 484.382 51.9408V53.9408ZM504.088 51.9408C503.536 51.9408 503.088 52.3885 503.088 52.9408C503.088 53.4931 503.536 53.9408 504.088 53.9408V51.9408ZM523.794 53.9408C524.346 53.9408 524.794 53.4931 524.794 52.9408C524.794 52.3885 524.346 51.9408 523.794 51.9408V53.9408ZM543.5 51.9408C542.948 51.9408 542.5 52.3885 542.5 52.9408C542.5 53.4931 542.948 53.9408 543.5 53.9408V51.9408ZM563.206 53.9408C563.758 53.9408 564.206 53.4931 564.206 52.9408C564.206 52.3885 563.758 51.9408 563.206 51.9408V53.9408ZM582.912 51.9408C582.359 51.9408 581.912 52.3885 581.912 52.9408C581.912 53.4931 582.359 53.9408 582.912 53.9408V51.9408ZM602.618 53.9408C603.17 53.9408 603.618 53.4931 603.618 52.9408C603.618 52.3885 603.17 51.9408 602.618 51.9408V53.9408ZM622.323 51.9408C621.771 51.9408 621.323 52.3885 621.323 52.9408C621.323 53.4931 621.771 53.9408 622.323 53.9408V51.9408ZM642.029 53.9408C642.582 53.9408 643.029 53.4931 643.029 52.9408C643.029 52.3885 642.582 51.9408 642.029 51.9408V53.9408ZM661.735 51.9408C661.183 51.9408 660.735 52.3885 660.735 52.9408C660.735 53.4931 661.183 53.9408 661.735 53.9408V51.9408ZM681.441 53.9408C681.993 53.9408 682.441 53.4931 682.441 52.9408C682.441 52.3885 681.993 51.9408 681.441 51.9408V53.9408ZM701.147 51.9408C700.595 51.9408 700.147 52.3885 700.147 52.9408C700.147 53.4931 700.595 53.9408 701.147 53.9408V51.9408ZM718.612 54.6831C719.154 54.7903 719.68 54.438 719.787 53.8962C719.895 53.3544 719.542 52.8284 719.001 52.7212L718.612 54.6831ZM733.781 58.8472C733.322 58.54 732.701 58.6629 732.394 59.1219C732.086 59.5808 732.209 60.2019 732.668 60.5092L733.781 58.8472ZM743.432 71.2725C743.739 71.7314 744.36 71.8544 744.819 71.5471C745.278 71.2399 745.401 70.6188 745.094 70.1599L743.432 71.2725ZM751.22 84.9402C751.112 84.3985 750.586 84.0462 750.045 84.1533C749.503 84.2605 749.15 84.7866 749.258 85.3284L751.22 84.9402ZM750 98.074C750 98.6263 750.448 99.074 751 99.074C751.552 99.074 752 98.6263 752 98.074H750ZM752 108.34C752 107.788 751.552 107.34 751 107.34C750.448 107.34 750 107.788 750 108.34H752ZM0 0.479004V3.59445H2V0.479004H0ZM0 9.82535V12.9408H2V9.82535H0ZM0 12.9408C0 15.6777 0.268314 18.353 0.780374 20.9413L2.74235 20.5532C2.25544 18.092 2 15.5467 2 12.9408H0ZM6.90642 35.7217C9.89946 40.1924 13.7484 44.0413 18.2191 47.0344L19.3317 45.3724C15.0783 42.5248 11.416 38.8625 8.56835 34.6091L6.90642 35.7217ZM32.9995 53.1604C35.5878 53.6725 38.2631 53.9408 41 53.9408V51.9408C38.3941 51.9408 35.8488 51.6854 33.3876 51.1984L32.9995 53.1604ZM41 53.9408H50.8529V51.9408H41V53.9408ZM70.5588 53.9408H90.2647V51.9408H70.5588V53.9408ZM109.971 53.9408H129.676V51.9408H109.971V53.9408ZM149.382 53.9408H169.088V51.9408H149.382V53.9408ZM188.794 53.9408H208.5V51.9408H188.794V53.9408ZM228.206 53.9408H247.912V51.9408H228.206V53.9408ZM267.618 53.9408H287.324V51.9408H267.618V53.9408ZM307.029 53.9408H326.735V51.9408H307.029V53.9408ZM346.441 53.9408H366.147V51.9408H346.441V53.9408ZM385.853 53.9408H405.559V51.9408H385.853V53.9408ZM425.265 53.9408H444.971V51.9408H425.265V53.9408ZM464.676 53.9408H484.382V51.9408H464.676V53.9408ZM504.088 53.9408H523.794V51.9408H504.088V53.9408ZM543.5 53.9408H563.206V51.9408H543.5V53.9408ZM582.912 53.9408H602.618V51.9408H582.912V53.9408ZM622.323 53.9408H642.029V51.9408H622.323V53.9408ZM661.735 53.9408H681.441V51.9408H661.735V53.9408ZM701.147 53.9408H711V51.9408H701.147V53.9408ZM711 53.9408C713.606 53.9408 716.151 54.1962 718.612 54.6831L719.001 52.7212C716.412 52.2091 713.737 51.9408 711 51.9408V53.9408ZM732.668 60.5092C736.922 63.3568 740.584 67.0191 743.432 71.2725L745.094 70.1599C742.101 65.6892 738.252 61.8403 733.781 58.8472L732.668 60.5092ZM749.258 85.3284C749.745 87.7896 750 90.3349 750 92.9408H752C752 90.2039 751.732 87.5286 751.22 84.9402L749.258 85.3284ZM750 92.9408V98.074H752V92.9408H750ZM750 108.34V113.474H752V108.34H750Z" fill="url(#paint0_linear_1826:150)"/>
<defs>
<linearGradient id="paint0_linear_1826:150" x1="107.371" y1="20.377" x2="647.116" y2="137.074" gradientUnits="userSpaceOnUse">
<stop stop-color="#FE5826"/>
<stop offset="1" stop-color="#3FABAE"/>
</linearGradient>
</defs>
</svg>
