<svg width="211" height="50" viewBox="0 0 211 50" fill="none" xmlns="http://www.w3.org/2000/svg">
<path opacity="0.6" d="M185.881 0H25.119C11.2462 0 0 11.1929 0 25C0 38.8071 11.2462 50 25.119 50H185.881C199.754 50 211 38.8071 211 25C211 11.1929 199.754 0 185.881 0Z" fill="#3A3A3C"/>
<path d="M22.7428 32.4525C23.2466 32.9535 23.8382 33.3585 24.4886 33.6475C25.172 33.9442 25.9108 34.0933 26.6563 34.085C27.6075 34.085 28.3611 33.8692 28.917 33.4375C29.1858 33.2267 29.4004 32.9555 29.5432 32.646C29.686 32.3365 29.7529 31.9977 29.7384 31.6575C29.754 31.0289 29.5193 30.4196 29.0853 29.9625C28.6106 29.4715 28.0474 29.0738 27.425 28.79C26.7551 28.4683 26.0392 28.1683 25.2773 27.89C24.4065 27.5413 23.5568 27.1423 22.7327 26.695C21.8979 26.2526 21.1668 25.6391 20.5876 24.895C19.9918 24.0906 19.688 23.1087 19.726 22.11C19.6863 21.0852 20.006 20.0785 20.6303 19.2625C21.2462 18.5 22.0615 17.9213 22.9864 17.59C23.9495 17.2273 24.971 17.0426 26.0007 17.045C26.9975 17.0372 27.9876 17.2065 28.9246 17.545C29.7986 17.8581 30.6156 18.3107 31.3435 18.885C32.0161 19.409 32.5743 20.064 32.9838 20.81L30.2911 22.5275C29.7511 21.7978 29.0673 21.1853 28.2815 20.7275C27.4602 20.2465 26.5216 20 25.5687 20.015C24.9337 19.997 24.3063 20.1563 23.7576 20.475C23.5131 20.6212 23.3135 20.8314 23.1807 21.0827C23.0478 21.3339 22.9867 21.6166 23.004 21.9C23.003 22.1525 23.054 22.4026 23.1538 22.6347C23.2536 22.8669 23.4001 23.0763 23.5843 23.25C24.0276 23.6759 24.5364 24.0287 25.0914 24.295C25.7093 24.6025 26.3474 24.8975 27.0281 25.175C28.0817 25.5898 29.1071 26.0725 30.0976 26.62C30.9571 27.0803 31.7102 27.7147 32.3081 28.4825C32.8524 29.2092 33.1253 30.1442 33.127 31.2875C33.1443 32.0755 32.9897 32.8579 32.674 33.5808C32.3584 34.3037 31.889 34.9499 31.2983 35.475C30.0775 36.5917 28.4716 37.15 26.4805 37.15C24.8785 37.167 23.3038 36.7366 21.9353 35.9075C20.5669 35.0785 19.4594 33.8841 18.7388 32.46L21.3889 30.8275C21.7854 31.4121 22.2389 31.9565 22.7428 32.4525Z" fill="white"/>
<path d="M39.9393 30.6525C40.493 31.6623 41.3061 32.5077 42.2954 33.1025C43.3182 33.7098 44.4907 34.0215 45.6815 34.0025C46.6767 34.0099 47.6658 33.8467 48.6054 33.52C49.4676 33.2274 50.2724 32.7884 50.9841 32.2225C51.5892 31.7612 52.0785 31.1664 52.4134 30.485V34.6725C51.6311 35.5279 50.6327 36.159 49.5222 36.5C48.2846 36.9311 46.9827 37.1508 45.6714 37.15C43.8895 37.1743 42.1331 36.7265 40.5823 35.8525C39.0822 35.0021 37.8397 33.7655 36.9853 32.2725C36.0892 30.6939 35.6347 28.9052 35.669 27.0925C35.634 25.2752 36.0922 23.4823 36.9953 21.9025C37.8549 20.4186 39.0966 19.1897 40.5924 18.3425C42.1431 17.4685 43.8995 17.0207 45.6815 17.045C46.9926 17.0433 48.2945 17.2622 49.5322 17.6925C50.7815 18.1275 51.7419 18.735 52.4134 19.515V23.7025C52.0888 23.0111 51.5979 22.41 50.9841 21.9525C50.2676 21.3993 49.4637 20.9685 48.6054 20.6775C47.6658 20.3508 46.6767 20.1876 45.6815 20.195C44.4933 20.1753 43.3223 20.4796 42.2954 21.075C41.3013 21.6583 40.4865 22.5013 39.9393 23.5125C39.3512 24.6136 39.0547 25.8457 39.0777 27.0925C39.0527 28.3331 39.3495 29.5592 39.9393 30.6525Z" fill="white"/>
<path d="M57.3041 21.9025C58.1637 20.4186 59.4053 19.1897 60.9011 18.3425C62.4655 17.4911 64.2198 17.0448 66.0028 17.0448C67.7858 17.0448 69.5402 17.4911 71.1045 18.3425C72.591 19.1941 73.8243 20.4224 74.6789 21.9025C75.5821 23.4823 76.0403 25.2753 76.0052 27.0925C76.0351 28.9036 75.5772 30.6896 74.6789 32.265C73.8294 33.7541 72.5953 34.9901 71.1045 35.845C69.5402 36.6964 67.7858 37.1427 66.0028 37.1427C64.2198 37.1427 62.4655 36.6964 60.9011 35.845C59.401 34.9946 58.1585 33.758 57.3041 32.265C56.4077 30.689 55.9507 28.9032 55.9803 27.0925C55.9457 25.2756 56.403 23.483 57.3041 21.9025ZM60.2506 30.6525C60.8026 31.6635 61.616 32.5093 62.6067 33.1025C63.6377 33.6949 64.8073 34.0068 65.9978 34.0068C67.1883 34.0068 68.3578 33.6949 69.3889 33.1025C70.3782 32.5077 71.1913 31.6623 71.745 30.6525C72.3305 29.5581 72.6229 28.332 72.5941 27.0925C72.6171 25.8457 72.3206 24.6136 71.7325 23.5125C71.1867 22.4976 70.3718 21.6511 69.3763 21.065C68.3407 20.4862 67.173 20.1822 65.9852 20.1822C64.7975 20.1822 63.6297 20.4862 62.5942 21.065C61.5972 21.6493 60.7819 22.4962 60.238 23.5125C59.649 24.6134 59.3516 25.8455 59.3739 27.0925C59.3537 28.3345 59.6556 29.5606 60.2506 30.6525Z" fill="white"/>
<path d="M90.0342 17.3175C89.3999 17.1309 88.7413 17.0391 88.0799 17.045C87.1807 17.045 86.2965 17.3942 85.4274 18.0925C84.8729 18.5427 84.3909 19.0747 83.9981 19.67V17.4625H80.6321V36.725H83.9981V25C83.9875 24.1686 84.0794 23.3391 84.2719 22.53C84.415 21.8698 84.7598 21.2699 85.2591 20.8125C85.7363 20.3958 86.3961 20.1867 87.2385 20.185C87.7113 20.1702 88.1825 20.2484 88.625 20.415C89.0594 20.6107 89.4691 20.8566 89.8458 21.1475L91.6971 18.3975C91.2487 17.8973 90.6748 17.5246 90.0342 17.3175Z" fill="white"/>
<path d="M110.376 21.65C109.696 20.23 108.604 19.0456 107.241 18.25C105.881 17.455 104.247 17.0575 102.34 17.0575C100.583 17.0182 98.8479 17.4499 97.3162 18.3075C95.8785 19.1328 94.7087 20.3509 93.9452 21.8175C93.116 23.4511 92.7036 25.2627 92.7445 27.0925C92.7065 28.9044 93.1035 30.6991 93.9025 32.3275C94.628 33.7857 95.7509 35.0115 97.1429 35.865C98.5807 36.7308 100.235 37.1737 101.916 37.1425C103.99 37.1425 105.792 36.7308 107.321 35.9075C108.894 35.045 110.209 33.7829 111.132 32.25L108.399 30.535C107.788 31.6161 106.903 32.5187 105.832 33.1525C104.764 33.7392 103.559 34.035 102.34 34.01C101.162 34.0453 99.9969 33.7554 98.9741 33.1725C98.0362 32.6012 97.3011 31.7525 96.8716 30.745C96.4891 29.8516 96.264 28.8994 96.206 27.93H111.428C111.428 27.875 111.428 27.7425 111.448 27.5325C111.468 27.3225 111.468 27.1225 111.468 26.925C111.468 24.89 111.104 23.1317 110.376 21.65ZM99.0369 20.7925C100.042 20.2235 101.184 19.9407 102.34 19.975C103.341 19.9513 104.329 20.1975 105.201 20.6875C106.009 21.1557 106.671 21.8365 107.115 22.655C107.515 23.4055 107.745 24.2341 107.788 25.0825H96.3265C96.441 24.4101 96.6455 23.7559 96.9344 23.1375C97.3833 22.1638 98.1158 21.3468 99.0369 20.7925Z" fill="white"/>
<path d="M134.136 21.7125C133.319 20.267 132.123 19.07 130.674 18.25C129.198 17.4358 127.534 17.0203 125.846 17.045C124.351 17.0168 122.882 17.4367 121.629 18.25C120.654 18.907 119.842 19.7754 119.253 20.79V17.4625H115.887V50H119.253V33.375C119.838 34.3956 120.651 35.2689 121.629 35.9275C122.88 36.7454 124.35 37.1688 125.846 37.1425C127.531 37.1635 129.193 36.7446 130.664 35.9275C132.12 35.1083 133.321 33.9061 134.136 32.4525C135.005 30.9525 135.439 29.1658 135.439 27.0925C135.446 25.0008 135.012 23.2075 134.136 21.7125ZM131.121 30.8625C130.561 31.8538 129.73 32.6668 128.725 33.2075C127.712 33.7392 126.582 34.0116 125.437 34C124.416 33.9896 123.416 33.7156 122.533 33.205C121.552 32.6462 120.738 31.8366 120.177 30.86C119.531 29.7099 119.212 28.4068 119.253 27.09C119.212 25.774 119.532 24.4718 120.177 23.3225C120.738 22.3459 121.552 21.5363 122.533 20.9775C123.416 20.4669 124.416 20.1929 125.437 20.1825C126.587 20.1692 127.723 20.4425 128.74 20.9775C129.745 21.5182 130.576 22.3312 131.136 23.3225C131.77 24.4757 132.083 25.7762 132.043 27.09C132.084 28.4054 131.771 29.7078 131.136 30.8625H131.121Z" fill="#FFD334"/>
<path d="M143.442 0V36.725H140.076V0H143.442Z" fill="#FFD334"/>
<path d="M154.171 32.75C154.871 33.5833 155.895 34 157.243 34C158.143 34.0192 159.033 33.8101 159.83 33.3925C160.555 33.0032 161.154 32.4149 161.553 31.6975C161.969 30.9303 162.18 30.0692 162.164 29.1975V17.4625H165.535V36.725H162.169V33.71C161.61 34.7622 160.784 35.6501 159.772 36.285C158.751 36.8733 157.586 37.17 156.406 37.1425C154.387 37.1425 152.774 36.4583 151.568 35.09C150.363 33.7217 149.759 31.8933 149.757 29.605V17.4625H153.123V29.1875C153.12 30.7292 153.469 31.9167 154.171 32.75Z" fill="#FFD334"/>
<path d="M173.985 32.4525C174.492 32.9548 175.088 33.3599 175.743 33.6475C176.426 33.9442 177.165 34.0933 177.911 34.085C178.862 34.085 179.615 33.8692 180.171 33.4375C180.44 33.2267 180.655 32.9555 180.798 32.646C180.94 32.3365 181.007 31.9977 180.993 31.6575C181.008 31.0289 180.774 30.4196 180.34 29.9625C179.864 29.4715 179.3 29.0738 178.677 28.79C178.007 28.4683 177.292 28.1683 176.532 27.89C175.661 27.5418 174.811 27.1427 173.987 26.695C173.152 26.2526 172.421 25.6391 171.842 24.895C171.245 24.0908 170.941 23.1089 170.978 22.11C170.939 21.0849 171.26 20.0783 171.885 19.2625C172.5 18.5006 173.314 17.922 174.238 17.59C175.202 17.2279 176.223 17.0432 177.253 17.045C178.249 17.0372 179.239 17.2065 180.176 17.545C181.05 17.8581 181.867 18.3107 182.595 18.885C183.268 19.409 183.826 20.064 184.236 20.81L181.543 22.5275C181.003 21.7978 180.319 21.1853 179.533 20.7275C178.711 20.2464 177.772 19.9999 176.818 20.015C176.184 19.9973 175.557 20.1567 175.009 20.475C174.765 20.6212 174.565 20.8314 174.433 21.0827C174.3 21.3339 174.239 21.6166 174.256 21.9C174.254 22.152 174.304 22.4017 174.402 22.6338C174.501 22.866 174.646 23.0757 174.829 23.25C175.272 23.6759 175.781 24.0287 176.336 24.295C176.954 24.6025 177.592 24.8975 178.272 25.175C179.332 25.5867 180.363 26.0669 181.36 26.6125C182.219 27.0728 182.972 27.7072 183.57 28.475C184.114 29.2017 184.387 30.1367 184.389 31.28C184.406 32.068 184.252 32.8504 183.936 33.5733C183.62 34.2962 183.151 34.9424 182.56 35.4675C181.339 36.5842 179.733 37.1425 177.742 37.1425C176.14 37.1595 174.566 36.7291 173.197 35.9C171.829 35.071 170.721 33.8766 170.001 32.4525L172.651 30.82C173.041 31.4064 173.487 31.9531 173.985 32.4525Z" fill="#FFD334"/>
<path d="M190.33 33.415C190.763 32.9845 191.35 32.7427 191.962 32.7427C192.575 32.7427 193.162 32.9845 193.595 33.415C194.028 33.8462 194.271 34.4307 194.271 35.04C194.271 35.6493 194.028 36.2338 193.595 36.665C193.384 36.8843 193.131 37.0588 192.85 37.1781C192.569 37.2973 192.267 37.3588 191.962 37.3588C191.657 37.3588 191.355 37.2973 191.075 37.1781C190.794 37.0588 190.541 36.8843 190.33 36.665C190.109 36.455 189.934 36.2027 189.814 35.9235C189.694 35.6442 189.632 35.3437 189.632 35.04C189.632 34.7363 189.694 34.4358 189.814 34.1566C189.934 33.8773 190.109 33.625 190.33 33.415Z" fill="white"/>
</svg>
