<svg width="1920" height="270" viewBox="0 0 1920 270" fill="none" xmlns="http://www.w3.org/2000/svg">
<g id="Group 19" style="mix-blend-mode:overlay">
<path id="Vector 2" d="M-406.318 103.738C-384.664 84.9032 -260.218 1.73581 -117.129 1.73581C25.9595 1.73581 85.1257 103.738 252.22 103.738C366.402 103.738 469.985 1.73581 616.138 1.73581C762.291 1.73581 838.412 118.963 989.132 118.963C1139.85 118.963 1272.3 1.73581 1439.77 1.73581C1607.24 1.73581 1643.77 118.963 1890.41 118.963C2137.04 118.963 2103.55 1.73581 2342.57 1.73581" stroke="white" stroke-width="2" stroke-linecap="round"/>
<path id="Vector 4" d="M-406.318 175.459C-384.664 156.624 -260.218 73.4561 -117.129 73.4561C25.9595 73.4561 85.1257 175.459 252.22 175.459C366.402 175.459 469.985 73.4561 616.138 73.4561C762.291 73.4561 838.412 190.683 989.132 190.683C1139.85 190.683 1272.3 73.4561 1439.77 73.4561C1607.24 73.4561 1643.77 190.683 1890.41 190.683C2137.04 190.683 2103.55 73.4561 2342.57 73.4561" stroke="white" stroke-width="2" stroke-linecap="round"/>
<path id="Vector 3" d="M-406.318 140.965C-384.664 122.13 -260.218 38.9625 -117.129 38.9625C25.9595 38.9625 85.1257 140.965 252.22 140.965C366.402 140.965 469.985 38.9625 616.138 38.9625C762.291 38.9625 838.412 156.189 989.132 156.189C1139.85 156.189 1272.3 38.9625 1439.77 38.9625C1607.24 38.9625 1643.77 156.189 1890.41 156.189C2137.04 156.189 2103.55 38.9625 2342.57 38.9625" stroke="white" stroke-width="2" stroke-linecap="round"/>
<path id="Vector 5" d="M-406.318 212.685C-384.664 193.85 -260.218 110.683 -117.129 110.683C25.9595 110.683 85.1257 212.685 252.22 212.685C366.402 212.685 469.985 110.683 616.138 110.683C762.291 110.683 838.412 227.91 989.132 227.91C1139.85 227.91 1272.3 110.683 1439.77 110.683C1607.24 110.683 1643.77 227.91 1890.41 227.91C2137.04 227.91 2103.55 110.683 2342.57 110.683" stroke="white" stroke-width="2" stroke-linecap="round"/>
<path id="Vector 6" d="M-406.318 253.034C-384.664 234.199 -260.218 151.032 -117.129 151.032C25.9595 151.032 85.1257 253.034 252.22 253.034C366.402 253.034 469.985 151.032 616.138 151.032C762.291 151.032 838.412 268.258 989.132 268.258C1139.85 268.258 1272.3 151.032 1439.77 151.032C1607.24 151.032 1643.77 268.258 1890.41 268.258C2137.04 268.258 2103.55 151.032 2342.57 151.032" stroke="white" stroke-width="2" stroke-linecap="round"/>
</g>
</svg>
