<svg width="1920" height="292" viewBox="0 0 1920 292" fill="none" xmlns="http://www.w3.org/2000/svg">
<g filter="url(#filter0_dd)">
<path d="M-406.778 114.738C-385.124 95.9032 -260.678 12.7358 -117.589 12.7358C25.4995 12.7358 84.6657 114.738 251.76 114.738C365.942 114.738 469.525 12.7358 615.678 12.7358C761.831 12.7358 837.952 129.963 988.672 129.963C1139.39 129.963 1271.84 12.7358 1439.31 12.7358C1606.78 12.7358 1643.31 129.963 1889.95 129.963C2136.58 129.963 2103.09 12.7358 2342.11 12.7358" stroke="#F7EEE5" stroke-linecap="round"/>
<path d="M-406.778 186.459C-385.124 167.624 -260.678 84.4561 -117.589 84.4561C25.4995 84.4561 84.6657 186.459 251.76 186.459C365.942 186.459 469.525 84.4561 615.678 84.4561C761.831 84.4561 837.952 201.683 988.672 201.683C1139.39 201.683 1271.84 84.4561 1439.31 84.4561C1606.78 84.4561 1643.31 201.683 1889.95 201.683C2136.58 201.683 2103.09 84.4561 2342.11 84.4561" stroke="#F7EEE5" stroke-linecap="round"/>
<path d="M-406.778 151.965C-385.124 133.13 -260.678 49.9625 -117.589 49.9625C25.4995 49.9625 84.6657 151.965 251.76 151.965C365.942 151.965 469.525 49.9625 615.678 49.9625C761.831 49.9625 837.952 167.189 988.672 167.189C1139.39 167.189 1271.84 49.9625 1439.31 49.9625C1606.78 49.9625 1643.31 167.189 1889.95 167.189C2136.58 167.189 2103.09 49.9625 2342.11 49.9625" stroke="#F7EEE5" stroke-linecap="round"/>
<path d="M-406.778 223.685C-385.124 204.85 -260.678 121.683 -117.589 121.683C25.4995 121.683 84.6657 223.685 251.76 223.685C365.942 223.685 469.525 121.683 615.678 121.683C761.831 121.683 837.952 238.91 988.672 238.91C1139.39 238.91 1271.84 121.683 1439.31 121.683C1606.78 121.683 1643.31 238.91 1889.95 238.91C2136.58 238.91 2103.09 121.683 2342.11 121.683" stroke="#F7EEE5" stroke-linecap="round"/>
<path d="M-406.778 264.034C-385.124 245.199 -260.678 162.032 -117.589 162.032C25.4995 162.032 84.6657 264.034 251.76 264.034C365.942 264.034 469.525 162.032 615.678 162.032C761.831 162.032 837.952 279.258 988.672 279.258C1139.39 279.258 1271.84 162.032 1439.31 162.032C1606.78 162.032 1643.31 279.258 1889.95 279.258C2136.58 279.258 2103.09 162.032 2342.11 162.032" stroke="#F7EEE5" stroke-linecap="round"/>
</g>
<defs>
<filter id="filter0_dd" x="-413.278" y="0.235809" width="2761.89" height="291.523" filterUnits="userSpaceOnUse" color-interpolation-filters="sRGB">
<feFlood flood-opacity="0" result="BackgroundImageFix"/>
<feColorMatrix in="SourceAlpha" type="matrix" values="0 0 0 0 0 0 0 0 0 0 0 0 0 0 0 0 0 0 127 0" result="hardAlpha"/>
<feOffset dy="-6"/>
<feGaussianBlur stdDeviation="3"/>
<feComposite in2="hardAlpha" operator="out"/>
<feColorMatrix type="matrix" values="0 0 0 0 0.996078 0 0 0 0 0.345098 0 0 0 0 0.14902 0 0 0 1 0"/>
<feBlend mode="normal" in2="BackgroundImageFix" result="effect1_dropShadow"/>
<feColorMatrix in="SourceAlpha" type="matrix" values="0 0 0 0 0 0 0 0 0 0 0 0 0 0 0 0 0 0 127 0" result="hardAlpha"/>
<feOffset dy="6"/>
<feGaussianBlur stdDeviation="3"/>
<feComposite in2="hardAlpha" operator="out"/>
<feColorMatrix type="matrix" values="0 0 0 0 0.247059 0 0 0 0 0.670588 0 0 0 0 0.682353 0 0 0 1 0"/>
<feBlend mode="normal" in2="effect1_dropShadow" result="effect2_dropShadow"/>
<feBlend mode="normal" in="SourceGraphic" in2="effect2_dropShadow" result="shape"/>
</filter>
</defs>
</svg>
