<svg width="1920" height="269" viewBox="0 0 1920 269" fill="none" xmlns="http://www.w3.org/2000/svg">
<g opacity="0.4">
<path d="M-189.901 103.264C-168.246 84.4286 -43.8008 1.26123 99.2881 1.26123C242.377 1.26123 301.543 103.264 468.638 103.264C582.819 103.264 686.403 1.26123 832.555 1.26123C978.708 1.26123 1054.83 118.488 1205.55 118.488C1356.27 118.488 1488.72 1.26123 1656.19 1.26123C1823.65 1.26123 1860.19 118.488 2106.83 118.488C2353.46 118.488 2319.97 1.26123 2558.99 1.26123" stroke="url(#paint0_linear_1824:146)" stroke-linecap="round"/>
<path d="M-189.901 174.984C-168.246 156.149 -43.8008 72.9814 99.2881 72.9814C242.377 72.9814 301.543 174.984 468.638 174.984C582.819 174.984 686.403 72.9814 832.555 72.9814C978.708 72.9814 1054.83 190.208 1205.55 190.208C1356.27 190.208 1488.72 72.9814 1656.19 72.9814C1823.65 72.9814 1860.19 190.208 2106.83 190.208C2353.46 190.208 2319.97 72.9814 2558.99 72.9814" stroke="url(#paint1_linear_1824:146)" stroke-linecap="round"/>
<path d="M-189.901 140.49C-168.246 121.655 -43.8008 38.4878 99.2881 38.4878C242.377 38.4878 301.543 140.49 468.638 140.49C582.819 140.49 686.403 38.4878 832.555 38.4878C978.708 38.4878 1054.83 155.714 1205.55 155.714C1356.27 155.714 1488.72 38.4878 1656.19 38.4878C1823.65 38.4878 1860.19 155.714 2106.83 155.714C2353.46 155.714 2319.97 38.4878 2558.99 38.4878" stroke="url(#paint2_linear_1824:146)" stroke-linecap="round"/>
<path d="M-189.901 212.211C-168.246 193.376 -43.8008 110.208 99.2881 110.208C242.377 110.208 301.543 212.211 468.638 212.211C582.819 212.211 686.403 110.208 832.555 110.208C978.708 110.208 1054.83 227.435 1205.55 227.435C1356.27 227.435 1488.72 110.208 1656.19 110.208C1823.65 110.208 1860.19 227.435 2106.83 227.435C2353.46 227.435 2319.97 110.208 2558.99 110.208" stroke="url(#paint3_linear_1824:146)" stroke-linecap="round"/>
<path d="M-189.901 252.56C-168.246 233.725 -43.8008 150.557 99.2881 150.557C242.377 150.557 301.543 252.56 468.638 252.56C582.819 252.56 686.403 150.557 832.555 150.557C978.708 150.557 1054.83 267.784 1205.55 267.784C1356.27 267.784 1488.72 150.557 1656.19 150.557C1823.65 150.557 1860.19 267.784 2106.83 267.784C2353.46 267.784 2319.97 150.557 2558.99 150.557" stroke="url(#paint4_linear_1824:146)" stroke-linecap="round"/>
</g>
<defs>
<linearGradient id="paint0_linear_1824:146" x1="1184.54" y1="1.26123" x2="1184.54" y2="118.488" gradientUnits="userSpaceOnUse">
<stop stop-color="#161616"/>
<stop offset="1" stop-color="#161616" stop-opacity="0"/>
</linearGradient>
<linearGradient id="paint1_linear_1824:146" x1="1184.54" y1="72.9814" x2="1184.54" y2="190.208" gradientUnits="userSpaceOnUse">
<stop stop-color="#161616"/>
<stop offset="1" stop-color="#161616" stop-opacity="0"/>
</linearGradient>
<linearGradient id="paint2_linear_1824:146" x1="1184.54" y1="38.4878" x2="1184.54" y2="155.714" gradientUnits="userSpaceOnUse">
<stop stop-color="#161616"/>
<stop offset="1" stop-color="#161616" stop-opacity="0"/>
</linearGradient>
<linearGradient id="paint3_linear_1824:146" x1="1184.54" y1="110.208" x2="1184.54" y2="227.435" gradientUnits="userSpaceOnUse">
<stop stop-color="#161616"/>
<stop offset="1" stop-color="#161616" stop-opacity="0"/>
</linearGradient>
<linearGradient id="paint4_linear_1824:146" x1="1184.54" y1="150.557" x2="1184.54" y2="267.784" gradientUnits="userSpaceOnUse">
<stop stop-color="#161616"/>
<stop offset="1" stop-color="#161616" stop-opacity="0"/>
</linearGradient>
</defs>
</svg>
