<svg width="1904" height="268" viewBox="0 0 1904 268" fill="none" xmlns="http://www.w3.org/2000/svg">
<g opacity="0.4">
<path d="M1.15613 102.741C22.8105 83.9062 147.256 0.73877 290.345 0.73877C433.434 0.73877 492.6 102.741 659.695 102.741C773.876 102.741 877.459 0.738771 1023.61 0.738771C1169.77 0.738771 1245.89 117.965 1396.61 117.965C1547.33 117.965 1679.78 0.738771 1847.24 0.738771C2014.71 0.738771 2051.25 117.965 2297.88 117.965C2544.51 117.965 2511.02 0.738771 2750.04 0.738771" stroke="url(#paint0_linear_1820:484)" stroke-linecap="round"/>
<path d="M1.15613 174.462C22.8105 155.626 147.256 72.4591 290.345 72.4591C433.434 72.4591 492.6 174.462 659.695 174.462C773.876 174.462 877.459 72.4591 1023.61 72.4591C1169.77 72.4591 1245.89 189.686 1396.61 189.686C1547.33 189.686 1679.78 72.4591 1847.24 72.4591C2014.71 72.4591 2051.25 189.686 2297.88 189.686C2544.51 189.686 2511.02 72.4591 2750.04 72.4591" stroke="url(#paint1_linear_1820:484)" stroke-linecap="round"/>
<path d="M1.15613 139.968C22.8105 121.133 147.256 37.9655 290.345 37.9655C433.434 37.9655 492.6 139.968 659.695 139.968C773.876 139.968 877.459 37.9655 1023.61 37.9655C1169.77 37.9655 1245.89 155.192 1396.61 155.192C1547.33 155.192 1679.78 37.9655 1847.24 37.9655C2014.71 37.9655 2051.25 155.192 2297.88 155.192C2544.51 155.192 2511.02 37.9655 2750.04 37.9655" stroke="url(#paint2_linear_1820:484)" stroke-linecap="round"/>
<path d="M1.15613 211.688C22.8105 192.853 147.256 109.686 290.345 109.686C433.434 109.686 492.6 211.688 659.695 211.688C773.876 211.688 877.459 109.686 1023.61 109.686C1169.77 109.686 1245.89 226.912 1396.61 226.912C1547.33 226.912 1679.78 109.686 1847.24 109.686C2014.71 109.686 2051.25 226.912 2297.88 226.912C2544.51 226.912 2511.02 109.686 2750.04 109.686" stroke="url(#paint3_linear_1820:484)" stroke-linecap="round"/>
<path d="M1.15613 252.037C22.8105 233.202 147.256 150.035 290.345 150.035C433.434 150.035 492.6 252.037 659.695 252.037C773.876 252.037 877.459 150.035 1023.61 150.035C1169.77 150.035 1245.89 267.261 1396.61 267.261C1547.33 267.261 1679.78 150.035 1847.24 150.035C2014.71 150.035 2051.25 267.261 2297.88 267.261C2544.51 267.261 2511.02 150.035 2750.04 150.035" stroke="url(#paint4_linear_1820:484)" stroke-linecap="round"/>
</g>
<defs>
<linearGradient id="paint0_linear_1820:484" x1="1375.6" y1="0.73877" x2="1375.6" y2="117.965" gradientUnits="userSpaceOnUse">
<stop stop-color="#161616"/>
<stop offset="1" stop-color="#161616" stop-opacity="0"/>
</linearGradient>
<linearGradient id="paint1_linear_1820:484" x1="1375.6" y1="72.4591" x2="1375.6" y2="189.686" gradientUnits="userSpaceOnUse">
<stop stop-color="#161616"/>
<stop offset="1" stop-color="#161616" stop-opacity="0"/>
</linearGradient>
<linearGradient id="paint2_linear_1820:484" x1="1375.6" y1="37.9655" x2="1375.6" y2="155.192" gradientUnits="userSpaceOnUse">
<stop stop-color="#161616"/>
<stop offset="1" stop-color="#161616" stop-opacity="0"/>
</linearGradient>
<linearGradient id="paint3_linear_1820:484" x1="1375.6" y1="109.686" x2="1375.6" y2="226.912" gradientUnits="userSpaceOnUse">
<stop stop-color="#161616"/>
<stop offset="1" stop-color="#161616" stop-opacity="0"/>
</linearGradient>
<linearGradient id="paint4_linear_1820:484" x1="1375.6" y1="150.035" x2="1375.6" y2="267.261" gradientUnits="userSpaceOnUse">
<stop stop-color="#161616"/>
<stop offset="1" stop-color="#161616" stop-opacity="0"/>
</linearGradient>
</defs>
</svg>
