<svg width="1920" height="269" viewBox="0 0 1920 269" fill="none" xmlns="http://www.w3.org/2000/svg">
<g opacity="0.4">
<path d="M-225.171 103.105C-203.516 84.2698 -79.0709 1.10242 64.0181 1.10242C207.107 1.10242 266.273 103.105 433.368 103.105C547.549 103.105 651.133 1.10242 797.285 1.10242C943.438 1.10242 1019.56 118.329 1170.28 118.329C1321 118.329 1453.45 1.10242 1620.92 1.10242C1788.38 1.10242 1824.92 118.329 2071.56 118.329C2318.19 118.329 2284.7 1.10242 2523.72 1.10242" stroke="url(#paint0_linear_1791:154)" stroke-linecap="round"/>
<path d="M-225.171 174.825C-203.516 155.99 -79.0709 72.8228 64.0181 72.8228C207.107 72.8228 266.273 174.825 433.368 174.825C547.549 174.825 651.133 72.8228 797.285 72.8228C943.438 72.8228 1019.56 190.049 1170.28 190.049C1321 190.049 1453.45 72.8228 1620.92 72.8228C1788.38 72.8228 1824.92 190.049 2071.56 190.049C2318.19 190.049 2284.7 72.8228 2523.72 72.8228" stroke="url(#paint1_linear_1791:154)" stroke-linecap="round"/>
<path d="M-225.171 140.332C-203.516 121.496 -79.0709 38.3291 64.0181 38.3291C207.107 38.3291 266.273 140.332 433.368 140.332C547.549 140.332 651.133 38.3291 797.285 38.3291C943.438 38.3291 1019.56 155.556 1170.28 155.556C1321 155.556 1453.45 38.3291 1620.92 38.3291C1788.38 38.3291 1824.92 155.556 2071.56 155.556C2318.19 155.556 2284.7 38.3291 2523.72 38.3291" stroke="url(#paint2_linear_1791:154)" stroke-linecap="round"/>
<path d="M-225.171 212.052C-203.516 193.217 -79.0709 110.049 64.0181 110.049C207.107 110.049 266.273 212.052 433.368 212.052C547.549 212.052 651.133 110.049 797.285 110.049C943.438 110.049 1019.56 227.276 1170.28 227.276C1321 227.276 1453.45 110.049 1620.92 110.049C1788.38 110.049 1824.92 227.276 2071.56 227.276C2318.19 227.276 2284.7 110.049 2523.72 110.049" stroke="url(#paint3_linear_1791:154)" stroke-linecap="round"/>
<path d="M-225.171 252.401C-203.516 233.566 -79.0709 150.398 64.0181 150.398C207.107 150.398 266.273 252.401 433.368 252.401C547.549 252.401 651.133 150.398 797.285 150.398C943.438 150.398 1019.56 267.625 1170.28 267.625C1321 267.625 1453.45 150.398 1620.92 150.398C1788.38 150.398 1824.92 267.625 2071.56 267.625C2318.19 267.625 2284.7 150.398 2523.72 150.398" stroke="url(#paint4_linear_1791:154)" stroke-linecap="round"/>
</g>
<defs>
<linearGradient id="paint0_linear_1791:154" x1="1149.27" y1="1.10242" x2="1149.27" y2="118.329" gradientUnits="userSpaceOnUse">
<stop stop-color="#161616"/>
<stop offset="1" stop-color="white"/>
</linearGradient>
<linearGradient id="paint1_linear_1791:154" x1="1149.27" y1="72.8228" x2="1149.27" y2="190.049" gradientUnits="userSpaceOnUse">
<stop stop-color="#161616"/>
<stop offset="1" stop-color="white"/>
</linearGradient>
<linearGradient id="paint2_linear_1791:154" x1="1149.27" y1="38.3291" x2="1149.27" y2="155.556" gradientUnits="userSpaceOnUse">
<stop stop-color="#161616"/>
<stop offset="1" stop-color="white"/>
</linearGradient>
<linearGradient id="paint3_linear_1791:154" x1="1149.27" y1="110.049" x2="1149.27" y2="227.276" gradientUnits="userSpaceOnUse">
<stop stop-color="#161616"/>
<stop offset="1" stop-color="white"/>
</linearGradient>
<linearGradient id="paint4_linear_1791:154" x1="1149.27" y1="150.398" x2="1149.27" y2="267.625" gradientUnits="userSpaceOnUse">
<stop stop-color="#161616"/>
<stop offset="1" stop-color="white"/>
</linearGradient>
</defs>
</svg>
